<svg version="1.2" baseProfile="tiny-ps" xmlns="http://www.w3.org/2000/svg" viewBox="0 0 512 512" width="512" height="512">
	<title>calculator-svg</title>
	<style>
		tspan { white-space:pre }
		.shp0 { fill: #145388 } 
		.shp1 { fill: #49b3f6 } 
	</style>
	<g id="Layer">
		<path id="Layer" fill-rule="evenodd" class="shp0" d="M185.57 232.9L46.94 232.9C21.06 232.9 0 211.84 0 185.96L0 47.33C0 21.44 21.06 0.38 46.94 0.38L185.57 0.38C211.46 0.38 232.52 21.44 232.52 47.33L232.52 185.96C232.52 211.84 211.46 232.9 185.57 232.9ZM46.94 30.06C37.42 30.06 29.68 37.81 29.68 47.33L29.68 185.96C29.68 195.48 37.42 203.23 46.94 203.23L185.57 203.23C195.1 203.23 202.84 195.48 202.84 185.96L202.84 47.33C202.84 37.81 195.1 30.06 185.57 30.06C185.57 30.06 46.94 30.06 46.94 30.06Z" />
		<path id="Layer" class="shp0" d="M116.26 175.32C108.06 175.32 101.42 168.67 101.42 160.48L101.42 72.81C101.42 64.61 108.07 57.97 116.26 57.97C124.45 57.97 131.1 64.61 131.1 72.81L131.1 160.48C131.1 168.67 124.45 175.32 116.26 175.32Z" />
		<path id="Layer" class="shp0" d="M160.1 131.48L72.42 131.48C64.23 131.48 57.59 124.84 57.59 116.64C57.59 108.45 64.23 101.81 72.42 101.81L160.09 101.81C168.29 101.81 174.93 108.45 174.93 116.64C174.93 124.84 168.29 131.48 160.1 131.48Z" />
	</g>
	<path id="Layer" class="shp1" d="M465.06 218.06L326.43 218.06C308.69 218.06 294.32 203.69 294.32 185.96L294.32 47.33C294.32 29.59 308.69 15.22 326.43 15.22L465.06 15.22C482.79 15.22 497.16 29.59 497.16 47.33L497.16 185.96C497.16 203.69 482.79 218.06 465.06 218.06Z" />
	<g id="Layer">
		<path id="Layer" fill-rule="evenodd" class="shp0" d="M465.06 232.9L326.43 232.9C300.54 232.9 279.48 211.84 279.48 185.96L279.48 47.33C279.48 21.44 300.54 0.38 326.43 0.38L465.06 0.38C490.94 0.38 512 21.44 512 47.33L512 185.96C512 211.84 490.94 232.9 465.06 232.9ZM326.43 30.06C316.9 30.06 309.16 37.81 309.16 47.33L309.16 185.96C309.16 195.48 316.9 203.23 326.43 203.23L465.06 203.23C474.58 203.23 482.32 195.48 482.32 185.96L482.32 47.33C482.32 37.81 474.58 30.06 465.06 30.06C465.06 30.06 326.43 30.06 326.43 30.06Z" />
		<path id="Layer" class="shp0" d="M439.58 131.48L351.9 131.48C343.71 131.48 337.07 124.84 337.07 116.64C337.07 108.45 343.71 101.81 351.9 101.81L439.58 101.81C447.77 101.81 454.42 108.45 454.42 116.64C454.42 124.84 447.77 131.48 439.58 131.48Z" />
	</g>
	<path id="Layer" class="shp1" d="M185.57 496.78L46.94 496.78C29.21 496.78 14.84 482.4 14.84 464.67L14.84 326.04C14.84 308.31 29.21 293.93 46.94 293.93L185.57 293.93C203.31 293.93 217.68 308.31 217.68 326.04L217.68 464.67C217.68 482.4 203.31 496.78 185.57 496.78Z" />
	<g id="Layer">
		<path id="Layer" fill-rule="evenodd" class="shp0" d="M185.57 511.62L46.94 511.62C21.06 511.62 0 490.56 0 464.67L0 326.04C0 300.16 21.06 279.1 46.94 279.1L185.57 279.1C211.46 279.1 232.52 300.16 232.52 326.04L232.52 464.67C232.52 490.56 211.46 511.62 185.57 511.62ZM29.68 326.04L29.68 464.67C29.68 474.19 37.42 481.94 46.94 481.94L185.57 481.94C195.1 481.94 202.84 474.19 202.84 464.67L202.84 326.04C202.84 316.52 195.1 308.77 185.57 308.77L46.94 308.77C37.42 308.77 29.68 316.52 29.68 326.04Z" />
		<path id="Layer" class="shp0" d="M85.26 441.19C81.46 441.19 77.67 439.74 74.77 436.85C68.98 431.05 68.98 421.66 74.77 415.86L136.76 353.87C142.56 348.07 151.95 348.08 157.75 353.87C163.54 359.66 163.54 369.06 157.75 374.85L95.75 436.85C92.86 439.74 89.06 441.19 85.26 441.19Z" />
		<path id="Layer" class="shp0" d="M147.26 441.19C143.46 441.19 139.66 439.74 136.77 436.85L74.77 374.85C68.98 369.06 68.97 359.66 74.77 353.87C80.56 348.07 89.96 348.07 95.75 353.87L157.75 415.86C163.54 421.65 163.54 431.05 157.75 436.85C154.85 439.74 151.05 441.19 147.26 441.19Z" />
		<path id="Layer" class="shp0" d="M465.06 511.62L326.43 511.62C300.54 511.62 279.48 490.56 279.48 464.67L279.48 326.04C279.48 300.16 300.54 279.1 326.43 279.1L465.06 279.1C490.94 279.1 512 300.16 512 326.04L512 378.17C512 386.36 505.36 393.01 497.16 393.01C488.97 393.01 482.32 386.36 482.32 378.17L482.32 326.04C482.32 316.52 474.58 308.77 465.06 308.77L326.43 308.77C316.9 308.77 309.16 316.52 309.16 326.04L309.16 464.67C309.16 474.19 316.9 481.94 326.43 481.94L465.06 481.94C474.58 481.94 482.32 474.19 482.32 464.67L482.32 447.9C482.32 439.7 488.97 433.06 497.16 433.06C505.36 433.06 512 439.7 512 447.9L512 464.67C512 490.56 490.94 511.62 465.06 511.62Z" />
		<path id="Layer" class="shp0" d="M439.58 383.36L351.9 383.36C343.71 383.36 337.07 376.71 337.07 368.52C337.07 360.33 343.71 353.68 351.9 353.68L439.58 353.68C447.77 353.68 454.42 360.33 454.42 368.52C454.42 376.71 447.77 383.36 439.58 383.36Z" />
		<path id="Layer" class="shp0" d="M439.58 437.03L351.9 437.03C343.71 437.03 337.07 430.38 337.07 422.19C337.07 414 343.71 407.35 351.9 407.35L439.58 407.35C447.77 407.35 454.42 414 454.42 422.19C454.42 430.38 447.77 437.03 439.58 437.03Z" />
	</g>
</svg>