<svg version="1.2" baseProfile="tiny-ps" xmlns="http://www.w3.org/2000/svg" viewBox="0 0 512 512" width="512" height="512">
	<title>btn_eraserclear-svg</title>
	<style>
		tspan { white-space:pre }
		.shp0 { fill: #49b3f6 } 
		.shp1 { fill: #145388 } 
	</style>
	<path id="Layer" class="shp0" d="M437.38 244.31C454.79 226.91 454.79 198.69 437.38 181.29L318.86 62.76C301.45 45.36 273.24 45.36 255.83 62.76L141.64 176.96L323.19 358.51L437.38 244.31Z" />
	<g id="Layer">
		<path id="Layer" class="shp1" d="M497.59 476.71L460.13 476.71C452.18 476.71 445.72 470.25 445.72 462.29C445.72 454.34 452.18 447.88 460.13 447.88L497.59 447.88C505.55 447.88 512 454.34 512 462.29C512 470.25 505.55 476.71 497.59 476.71Z" />
		<path id="Layer" fill-rule="evenodd" class="shp1" d="M333.38 368.7L254.2 447.88L390.95 447.88C398.91 447.88 405.36 454.33 405.36 462.29C405.36 470.25 398.91 476.7 390.95 476.7L135.55 476.7C135.06 476.7 134.58 476.68 134.11 476.63C133.75 476.59 133.4 476.53 133.06 476.47C132.94 476.45 132.82 476.44 132.71 476.42C132.3 476.34 131.89 476.23 131.49 476.11C131.44 476.1 131.39 476.09 131.35 476.08C130.94 475.95 130.55 475.81 130.16 475.65C130.11 475.63 130.07 475.62 130.02 475.6C129.65 475.45 129.3 475.28 128.95 475.09C128.88 475.06 128.81 475.03 128.75 475C128.43 474.83 128.12 474.64 127.82 474.44C127.73 474.38 127.63 474.33 127.53 474.27C127.26 474.09 127.01 473.89 126.75 473.69C126.63 473.6 126.51 473.52 126.4 473.43C126.13 473.21 125.89 472.97 125.64 472.74C125.55 472.65 125.45 472.57 125.36 472.48L17.25 364.37C-5.75 341.38 -5.75 303.96 17.25 280.96L69.49 228.72C75.12 223.09 84.24 223.09 89.87 228.72C95.5 234.35 95.5 243.47 89.87 249.1L37.63 301.35C31.93 307.04 28.8 314.61 28.8 322.67C28.8 330.72 31.93 338.3 37.63 343.99L141.52 447.88L213.43 447.88L302.8 358.51L131.44 187.15C128.74 184.44 127.22 180.78 127.22 176.96C127.22 173.13 128.74 169.47 131.44 166.76L245.64 52.57C256.78 41.43 271.59 35.29 287.35 35.29C303.1 35.29 317.91 41.43 329.05 52.57L447.58 171.09C458.72 182.24 464.85 197.05 464.85 212.8C464.85 228.55 458.72 243.36 447.58 254.5L333.38 368.7ZM162.02 176.96L323.19 338.13L427.19 234.12C432.89 228.43 436.03 220.85 436.03 212.8C436.03 204.74 432.89 197.17 427.19 191.48L308.67 72.95C302.97 67.25 295.4 64.12 287.35 64.12C279.29 64.12 271.72 67.25 266.02 72.95L162.02 176.96Z" />
		<path id="Layer" class="shp1" d="M331.71 436.54C326.98 436.54 322.35 434.21 319.59 429.94C315.27 423.25 317.2 414.33 323.89 410.02L364.39 383.89C371.08 379.57 380 381.5 384.32 388.19C388.63 394.88 386.71 403.79 380.02 408.11L339.51 434.24C337.1 435.8 334.39 436.54 331.71 436.54Z" />
	</g>
</svg>