<svg version="1.2" baseProfile="tiny-ps" xmlns="http://www.w3.org/2000/svg" viewBox="0 0 512 512" width="512" height="512">
	<title>btn_poststock-svg</title>
	<style>
		tspan { white-space:pre }
		.shp0 { fill: #49b3f6 } 
		.shp1 { fill: #145388 } 
		.shp2 { fill: #145388;stroke: #49b3f6;stroke-width: 2 } 
	</style>
	<path id="Layer" class="shp0" d="M374.48 281.34L477.6 373.14L477.6 263.14L374.48 178.22L271.36 263.14L271.36 373.14L374.48 281.34Z" />
	<path id="Layer" fill-rule="evenodd" class="shp1" d="M489.73 263.14L489.73 373.14C489.73 377.92 486.93 382.25 482.57 384.21C480.98 384.92 479.28 385.27 477.6 385.27C474.69 385.27 471.8 384.22 469.54 382.2L436.56 352.85L436.56 453.93C436.56 460.63 431.13 466.06 424.43 466.06L324.54 466.06C317.84 466.06 312.41 460.63 312.41 453.93L312.41 352.84L279.43 382.2C275.86 385.38 270.76 386.16 266.4 384.21C262.03 382.25 259.23 377.92 259.23 373.14L259.23 263.14C259.23 259.52 260.85 256.08 263.65 253.78L366.77 168.86C371.25 165.17 377.72 165.17 382.2 168.86L485.31 253.78C488.11 256.08 489.74 259.52 489.73 263.14ZM412.3 441.8L412.3 331.25L374.48 297.59L336.67 331.25L336.67 441.8L412.3 441.8ZM465.47 346.1L465.47 268.87L374.48 193.94L283.49 268.87L283.49 346.1L366.42 272.28C371.01 268.19 377.95 268.19 382.55 272.28L465.47 346.1Z" />
	<path id="Shape 1" class="shp1" d="M13 146L63 146L63 494L13 494L13 146Z" />
	<path id="Shape 1 copy 2" class="shp1" d="M24 446L186 446L186 494L24 494L24 446Z" />
	<path id="Shape 1 copy 7" class="shp1" d="M-210.92 208.82L-185.81 264.14L280.89 54.22L255.78 -1.1L-210.92 208.82Z" />
	<path id="Shape 1 copy 8" class="shp1" d="M723.89 208.82L698.78 264.14L232.08 54.22L257.19 -1.1L723.89 208.82Z" />
	<path id="Layer" class="shp2" d="M134.78 275.51L204.19 275.51L204.19 344.92L134.78 344.92L134.78 275.51Z" />
	<path id="Layer copy 3" class="shp0" d="M183.48 321.64L194.9 321.64L194.9 333.06L183.48 333.06L183.48 321.64Z" />
	<path id="Layer copy 4" class="shp0" d="M167.49 321.64L178.91 321.64L178.91 333.06L167.49 333.06L167.49 321.64Z" />
	<path id="Layer copy" class="shp2" d="M173.78 349.51L243.19 349.51L243.19 418.92L173.78 418.92L173.78 349.51Z" />
	<path id="Layer copy 5" class="shp0" d="M222.48 395.64L233.9 395.64L233.9 407.06L222.48 407.06L222.48 395.64Z" />
	<path id="Layer copy 6" class="shp0" d="M206.49 395.64L217.91 395.64L217.91 407.06L206.49 407.06L206.49 395.64Z" />
	<path id="Layer copy 2" class="shp2" d="M86.78 349.51L156.19 349.51L156.19 418.92L86.78 418.92L86.78 349.51Z" />
	<path id="Layer copy 7" class="shp0" d="M135.48 395.64L146.9 395.64L146.9 407.06L135.48 407.06L135.48 395.64Z" />
	<path id="Layer copy 8" class="shp0" d="M119.49 395.64L130.91 395.64L130.91 407.06L119.49 407.06L119.49 395.64Z" />
</svg>