<svg version="1.2" baseProfile="tiny-ps" xmlns="http://www.w3.org/2000/svg" viewBox="0 0 512 512" width="512" height="512">
	<title>btn_word-svg</title>
	<style>
		tspan { white-space:pre }
		.shp0 { fill: #145388 } 
		.shp1 { fill: #49b3f6 } 
	</style>
	<path id="Layer" class="shp0" d="M438.56 512L19.79 512C11.57 512 4.91 505.34 4.91 497.12L4.91 256.92C4.91 248.7 11.57 242.04 19.79 242.04C28 242.04 34.66 248.7 34.66 256.92L34.66 482.25L423.68 482.25L423.68 449.41C423.68 441.2 430.34 434.54 438.56 434.54C446.77 434.54 453.43 441.2 453.43 449.41L453.43 497.12C453.43 505.34 446.77 512 438.56 512Z" />
	<g id="Layer">
		<path id="Layer" class="shp1" d="M19.79 177.12L19.79 172.33L175.58 14.88L175.58 177.12L19.79 177.12Z" />
		<path id="Layer" class="shp1" d="M196.16 219.44L492.22 219.44L492.22 383.09L196.16 383.09L196.16 219.44Z" />
	</g>
	<g id="Layer">
		<path id="Layer" fill-rule="evenodd" class="shp0" d="M507.09 219.44L507.09 383.08C507.09 391.29 500.43 397.95 492.22 397.95L196.16 397.95C187.94 397.95 181.28 391.3 181.28 383.08L181.28 219.44C181.28 211.22 187.94 204.56 196.16 204.56L423.68 204.56L423.68 29.75L190.46 29.75L190.46 177.12C190.46 185.34 183.79 192 175.58 192L19.78 192C11.57 192 4.91 185.34 4.91 177.12L4.91 172.33C4.91 172.15 4.93 171.97 4.94 171.78C4.95 171.5 4.95 171.21 4.98 170.92C5 170.73 5.03 170.55 5.06 170.36C5.1 170.07 5.13 169.78 5.19 169.48C5.22 169.33 5.26 169.18 5.3 169.02C5.37 168.7 5.44 168.38 5.53 168.07C5.57 167.95 5.62 167.84 5.65 167.72C5.76 167.38 5.88 167.04 6.02 166.7C6.05 166.61 6.1 166.52 6.14 166.44C6.29 166.08 6.45 165.73 6.63 165.39C6.67 165.3 6.73 165.22 6.78 165.14C6.96 164.8 7.15 164.47 7.36 164.14C7.45 164.01 7.55 163.89 7.65 163.76C7.83 163.49 8.02 163.23 8.22 162.97C8.53 162.59 8.86 162.22 9.21 161.87L165.01 4.41C165.48 3.94 165.98 3.51 166.51 3.11C166.64 3.01 166.77 2.91 166.9 2.81C167.43 2.43 167.97 2.08 168.54 1.77C168.56 1.76 168.57 1.76 168.59 1.75C169.14 1.45 169.72 1.2 170.31 0.98C170.47 0.92 170.62 0.87 170.77 0.82C171.37 0.61 171.97 0.43 172.59 0.31C172.6 0.3 172.62 0.3 172.63 0.3C173.25 0.17 173.89 0.1 174.53 0.05C174.7 0.04 174.87 0.03 175.04 0.03C175.22 0.02 175.4 0 175.58 0L438.56 0C446.77 0 453.43 6.66 453.43 14.88L453.43 204.56L492.22 204.56C500.43 204.56 507.09 211.22 507.09 219.44ZM160.71 162.25L160.71 51.06L106.99 105.35L50.69 162.25L160.71 162.25ZM477.34 234.31L211.03 234.31L211.03 368.2L477.34 368.2L477.34 234.31Z" />
		<path id="Layer" fill-rule="evenodd" class="shp0" d="M305.72 283.4L305.72 315.76C305.72 337.26 292.23 345.25 274.98 345.25L252.87 345.25C247.75 345.25 244.37 342.51 244.37 339.38L244.37 259.78C244.37 256.66 247.74 253.91 252.87 253.91L274.98 253.91C292.23 253.91 305.72 261.91 305.72 283.4ZM263.86 328.26L274.98 328.26C281.98 328.26 286.23 324.26 286.23 315.77L286.23 283.4C286.23 274.91 281.98 270.91 274.98 270.91L263.86 270.91L263.86 328.26Z" />
		<path id="Layer" fill-rule="evenodd" class="shp0" d="M317.09 316.51L317.09 283.4C317.09 261.91 330.46 253.91 347.71 253.91C364.95 253.91 378.45 261.91 378.45 283.4L378.45 316.51C378.45 338.01 364.95 346 347.71 346C330.46 346 317.09 338.01 317.09 316.51ZM358.96 283.4C358.96 274.78 354.71 270.91 347.71 270.91C340.71 270.91 336.59 274.78 336.59 283.4L336.59 316.51C336.59 325.14 340.71 329.01 347.71 329.01C354.71 329.01 358.96 325.14 358.96 316.51L358.96 283.4Z" />
		<path id="Layer" class="shp0" d="M420.68 270.91C413.56 270.91 409.44 274.91 409.44 283.4L409.44 316.52C409.44 325.01 413.56 329.01 420.81 329.01C430.81 329.01 431.43 321.39 431.81 316.52C432.18 311.89 436.43 310.64 441.43 310.64C448.18 310.64 451.3 312.39 451.3 319.89C451.3 336.51 437.81 346.01 419.94 346.01C403.57 346.01 389.95 338.01 389.95 316.52L389.95 283.4C389.95 261.91 403.57 253.91 419.94 253.91C437.81 253.91 451.3 262.91 451.3 278.78C451.3 286.28 448.18 288.03 441.55 288.03C436.31 288.03 432.06 286.65 431.81 282.15C431.68 278.9 431.31 270.91 420.68 270.91Z" />
	</g>
</svg>