<svg version="1.2" baseProfile="tiny-ps" xmlns="http://www.w3.org/2000/svg" viewBox="0 0 510 510" width="510" height="510">
	<title>Btn_book-svg</title>
	<style>
		tspan { white-space:pre }
		.shp0 { fill: #145388 } 
		.shp1 { fill: #49b3f6 } 
	</style>
	<path id="Layer" fill-rule="evenodd" class="shp0" d="M495.52 121.68C503.6 121.96 510 128.59 510 136.67L510 409.84C510 417.73 503.88 424.27 496.01 424.8C436.33 428.82 336.42 429.27 260.92 461.47C261.75 461.12 255.77 464.32 249.12 461.48C173.61 429.27 73.66 428.82 13.99 424.8C6.12 424.28 0 417.73 0 409.84L0 136.67C0 128.17 7.06 121.41 15.45 121.68C32.08 122.16 47.62 122.6 64.05 123.22L64.05 62.34C64.05 53.57 71.53 46.67 80.3 47.39C137.95 52.2 211.3 77.68 255 124.14C298.7 77.68 372.05 52.2 429.71 47.39C438.49 46.67 445.95 53.6 445.95 62.34L445.95 121.62C474.87 120.98 494.56 121.64 495.52 121.68ZM260.92 461.47C260.91 461.47 260.9 461.48 260.89 461.48C260.9 461.48 260.91 461.47 260.92 461.47ZM415.95 79.21C364.98 86.93 302.82 111.61 270 152.56C270 159.71 270 397.2 270 410.4C317.88 366.62 372.7 345.97 415.95 336.3L415.95 79.21ZM94.05 336.29C137.3 345.97 192.12 366.62 240 410.4L240 152.56C207.18 111.61 145.02 86.93 94.05 79.21L94.05 336.29ZM196.58 413.69C155.07 383.65 110.53 369.69 76.28 363.26C69.19 361.93 64.05 355.74 64.05 348.52L64.05 153.24C52.23 152.79 40.74 152.43 30 152.12L30 395.72C75.37 398.27 137.36 400.41 196.58 413.69ZM480 151.39C471.52 151.32 459.76 151.32 445.95 151.63L445.95 348.52C445.95 355.74 440.81 361.93 433.72 363.26C399.47 369.69 354.93 383.65 313.42 413.69C372.67 400.4 434.71 398.27 480 395.72L480 151.39ZM260.89 461.48L260.89 461.48Z" />
	<path id="Layer" class="shp1" d="M201.11 187.12C189.49 179.02 169.46 169.09 148.09 165.48C139.92 164.09 132.18 169.6 130.8 177.77C129.42 185.93 134.92 193.68 143.09 195.06C159.59 197.84 175.42 205.78 183.96 211.73C190.75 216.47 200.1 214.8 204.84 208C209.58 201.2 207.9 191.85 201.11 187.12L201.11 187.12Z" />
	<path id="Layer" class="shp1" d="M199.6 271.59C188.92 265.06 168.01 253.61 148.08 250.24C139.92 248.85 132.18 254.36 130.79 262.53C129.41 270.7 134.92 278.44 143.09 279.82C158.61 282.44 176.85 292.84 183.97 297.19C191.05 301.51 200.27 299.27 204.59 292.21C208.91 285.14 206.67 275.9 199.6 271.59L199.6 271.59Z" />
	<path id="Layer" class="shp1" d="M326.04 211.73C334.58 205.78 350.41 197.84 366.91 195.06C375.08 193.68 380.58 185.93 379.2 177.77C377.82 169.6 370.08 164.09 361.91 165.48C340.54 169.09 320.51 179.02 308.89 187.12C302.1 191.85 300.42 201.2 305.16 208C309.9 214.8 319.25 216.46 326.04 211.73L326.04 211.73Z" />
	<path id="Layer" class="shp1" d="M361.92 250.24C341.99 253.61 321.08 265.06 310.4 271.59C303.33 275.9 301.09 285.14 305.41 292.21C309.73 299.28 318.96 301.51 326.03 297.19C333.15 292.84 351.39 282.44 366.91 279.82C375.08 278.44 380.58 270.7 379.2 262.53C377.82 254.36 370.08 248.85 361.91 250.24L361.92 250.24Z" />
</svg>