<svg version="1.2" baseProfile="tiny-ps" xmlns="http://www.w3.org/2000/svg" viewBox="0 0 513 513" width="513" height="513">
	<title>btn_copy-svg</title>
	<style>
		tspan { white-space:pre }
		.shp0 { fill: #49b3f6 } 
		.shp1 { fill: #145388 } 
	</style>
	<g id="Layer">
		<path id="Layer" class="shp0" d="M174.47 131.66L211.41 131.66L211.41 16.98L15.59 16.98L15.59 380.34L174.47 380.34L174.47 131.66Z" />
		<path id="Layer" class="shp0" d="M373.39 131.66L370.29 131.66L370.29 246.35L494.32 246.35L373.39 131.66Z" />
	</g>
	<path id="Layer" fill-rule="evenodd" class="shp1" d="M512 325.57L512 495.02C512 503.63 505.02 510.62 496.41 510.62L174.48 510.62C165.86 510.62 158.88 503.63 158.88 495.02L158.88 395.93L15.59 395.93C6.98 395.93 0 388.95 0 380.34L0 16.98C0 8.37 6.98 1.39 15.59 1.39L214.51 1.39C218.5 1.39 222.34 2.92 225.24 5.67L341.66 116.07L373.39 116.07C373.9 116.07 374.41 116.1 374.92 116.15C375.17 116.17 375.42 116.22 375.67 116.25C375.92 116.29 376.16 116.32 376.41 116.37C376.71 116.43 377 116.51 377.29 116.58C377.48 116.63 377.67 116.67 377.86 116.73C378.16 116.82 378.45 116.92 378.74 117.03C378.91 117.1 379.09 117.16 379.27 117.23C379.54 117.34 379.81 117.47 380.09 117.6C380.27 117.68 380.45 117.76 380.63 117.86C380.88 117.99 381.12 118.13 381.36 118.28C381.55 118.39 381.74 118.5 381.92 118.62C382.15 118.77 382.36 118.92 382.57 119.08C382.76 119.22 382.95 119.35 383.14 119.5C383.34 119.67 383.53 119.84 383.72 120.01C383.85 120.12 383.99 120.23 384.12 120.35L505.06 235.03C509.69 239.43 511.17 246.2 508.81 252.13C506.45 258.05 500.71 261.94 494.33 261.94L370.29 261.94C361.68 261.94 354.7 254.96 354.7 246.35L354.7 147.26L190.07 147.26L190.07 479.43L480.81 479.43L480.81 325.57C480.81 316.96 487.8 309.98 496.41 309.98C505.02 309.98 512 316.96 512 325.57ZM455.22 230.76L385.88 165L385.88 230.76L455.22 230.76ZM227 116.07L296.34 116.07L227 50.32L227 116.07ZM158.88 364.74L158.88 131.66C158.88 123.05 165.87 116.07 174.48 116.07L195.82 116.07L195.81 32.57L31.19 32.57L31.19 364.74L158.88 364.74Z" />
	<g id="Layer">
	</g>
</svg>