<svg version="1.2" baseProfile="tiny-ps" xmlns="http://www.w3.org/2000/svg" viewBox="0 0 512 512" width="512" height="512">
	<title>btn_download-svg</title>
	<style>
		tspan { white-space:pre }
		.shp0 { fill: #145388 } 
		.shp1 { fill: #49b3f6 } 
	</style>
	<path id="Layer" class="shp0" d="M484.66 512L27.34 512C18.92 512 12.1 505.17 12.1 496.76L12.1 298.62C12.1 290.2 18.92 283.37 27.34 283.37L158.23 283.37C166.45 283.37 173.19 289.89 173.46 298.1C174.97 342.84 211.22 377.89 256 377.89C276.89 377.89 296.82 370.07 312.13 355.88C318.3 350.15 327.94 350.51 333.67 356.69C339.39 362.86 339.03 372.51 332.86 378.23C311.9 397.67 284.6 408.37 256 408.37C226.47 408.37 198.52 397.05 177.32 376.5C159.75 359.47 148.36 337.62 144.45 313.86L42.59 313.86L42.59 481.51L469.42 481.51L469.42 313.86L353.77 313.86C345.35 313.86 338.53 307.03 338.53 298.61C338.53 290.2 345.35 283.37 353.77 283.37L484.66 283.37C493.08 283.37 499.9 290.2 499.9 298.61L499.9 496.75C499.9 505.18 493.08 512 484.66 512Z" />
	<path id="Layer" class="shp1" d="M153.86 141.36L256 301.42L358.14 141.36L302.58 141.36L302.58 15.24L209.42 15.24L209.42 141.36L153.86 141.36Z" />
	<g id="Layer">
		<path id="Layer" fill-rule="evenodd" class="shp0" d="M256 316.66C250.79 316.66 245.95 314 243.15 309.62L141.01 149.56C138.01 144.86 137.81 138.91 140.49 134.03C143.16 129.15 148.29 126.11 153.86 126.11L194.18 126.11L194.18 15.24C194.18 6.83 201 0 209.42 0L302.58 0C311 0 317.82 6.83 317.82 15.24L317.82 126.11L358.14 126.11C363.71 126.11 368.83 129.15 371.51 134.03C374.19 138.91 373.99 144.86 370.99 149.56L268.85 309.62C266.05 314 261.2 316.66 256 316.66ZM181.67 156.6L256 273.08L330.33 156.6L302.58 156.6C294.16 156.6 287.34 149.78 287.34 141.36L287.34 30.49L224.66 30.49L224.66 141.36C224.66 149.78 217.84 156.6 209.42 156.6L181.67 156.6Z" />
		<path id="Layer" class="shp0" d="M429.27 374.81L395.73 374.81C387.31 374.81 380.49 367.99 380.49 359.57C380.49 351.15 387.32 344.33 395.73 344.33L429.27 344.33C437.69 344.33 444.51 351.15 444.51 359.57C444.51 367.99 437.69 374.81 429.27 374.81Z" />
	</g>
</svg>