<?xml version="1.0" encoding="iso-8859-1"?>
<!-- Generator: Adobe Illustrator 19.0.0, SVG Export Plug-In . SVG Version: 6.00 Build 0)  -->
<svg version="1.1" id="Layer_1" xmlns="http://www.w3.org/2000/svg" xmlns:xlink="http://www.w3.org/1999/xlink" x="0px" y="0px"
	 viewBox="0 0 512 512" style="enable-background:new 0 0 512 512;" xml:space="preserve">
<path style="fill:#507C5C;" d="M237.354,271.793h-47.908c-8.721,0-15.794-7.072-15.794-15.794s7.072-15.793,15.794-15.793h47.908
	c8.721,0,15.794,7.072,15.794,15.793S246.077,271.793,237.354,271.793z"/>
<path style="fill:#CFF09E;" d="M105.218,15.793h-7.05c-44.659,0-59.425,36.203-59.425,80.863v318.688
	c0,44.659,14.767,80.863,59.426,80.863h7.05V15.793H105.218z"/>
<g>
	<path style="fill:#507C5C;" d="M105.218,512h-7.05c-26.258,0-46.938-10.727-59.799-31.023
		c-10.233-16.146-15.421-38.227-15.421-65.635V96.656c0-27.408,5.188-49.489,15.421-65.635C51.231,10.727,71.909,0,98.168,0h7.05
		c8.721,0,15.793,7.072,15.793,15.793v480.413C121.011,504.928,113.941,512,105.218,512z M89.424,32.054
		c-14.241,1.954-34.889,12.087-34.889,64.602v318.686c0,52.515,20.648,62.648,34.889,64.602V32.054z"/>
	<path style="fill:#507C5C;" d="M390.488,512H174.55c-8.721,0-15.794-7.072-15.794-15.793c0-8.721,7.072-15.793,15.794-15.793
		h215.94c17.276,0,31.334-14.056,31.334-31.336V382.31c0-8.721,7.072-15.794,15.794-15.794c8.721,0,15.793,7.072,15.793,15.794
		v66.767C453.409,483.774,425.183,512,390.488,512z"/>
	<path style="fill:#507C5C;" d="M437.616,149.312c-8.721,0-15.793-7.072-15.793-15.794V62.923c0-17.278-14.056-31.336-31.334-31.336
		h-285.27c-8.721,0-15.794-7.072-15.794-15.793S96.497,0,105.218,0h285.27c34.695,0,62.921,28.226,62.921,62.923v70.595
		C453.409,142.241,446.337,149.312,437.616,149.312z"/>
</g>
<path style="fill:#CFF09E;" d="M473.257,222.407c0-12.551-10.176-22.727-22.727-22.727H294.042c-3.475,0-5.716,3.68-4.121,6.766
	l24.504,47.423c0.69,1.336,0.69,2.922,0,4.258l-24.504,47.423c-1.595,3.088,0.646,6.766,4.121,6.766H450.53
	c12.551,0,22.727-10.176,22.727-22.727V222.407z"/>
<g>
	<path style="fill:#507C5C;" d="M450.53,328.112H294.042c-7.188,0-13.712-3.664-17.45-9.803c-3.738-6.139-4.001-13.617-0.701-20.004
		L297.749,256l-21.857-42.303c-3.301-6.388-3.039-13.867,0.7-20.006s10.263-9.803,17.45-9.803H450.53
		c21.241,0,38.522,17.28,38.522,38.52v67.184C489.05,310.832,471.771,328.112,450.53,328.112z M312.362,296.525h138.166
		c3.824,0,6.935-3.11,6.935-6.933v-67.184c0-3.824-3.111-6.933-6.935-6.933H312.362l16.092,31.148
		c3.032,5.874,3.032,12.881,0.003,18.75L312.362,296.525z"/>
	<path style="fill:#507C5C;" d="M352.909,137.552H189.446c-8.721,0-15.794-7.072-15.794-15.794s7.072-15.793,15.794-15.793h163.463
		c8.721,0,15.793,7.072,15.793,15.793S361.632,137.552,352.909,137.552z"/>
	<path style="fill:#507C5C;" d="M352.909,406.035H189.446c-8.721,0-15.794-7.072-15.794-15.794c0-8.721,7.072-15.793,15.794-15.793
		h163.463c8.721,0,15.793,7.072,15.793,15.793C368.702,398.963,361.632,406.035,352.909,406.035z"/>
</g>
<g>
</g>
<g>
</g>
<g>
</g>
<g>
</g>
<g>
</g>
<g>
</g>
<g>
</g>
<g>
</g>
<g>
</g>
<g>
</g>
<g>
</g>
<g>
</g>
<g>
</g>
<g>
</g>
<g>
</g>
</svg>
