<svg version="1.2" baseProfile="tiny-ps" xmlns="http://www.w3.org/2000/svg" viewBox="0 0 512 512" width="512" height="512">
	<title>Circles_Svg_logo_512</title>
	<style>
		tspan { white-space:pre }
		.shp0 { fill: #85edac } 
		.shp1 { fill: #67cf8e } 
		.shp2 { fill: #40a867 } 
		.shp3 { fill: #218948 } 
	</style>
	<g id="cir_1">
		<path id="Shape 7" class="shp0" d="M236 118L239 129C239 129 281.66 124.15 304 136C303.98 136.03 311 125 311 125C311 125 270.06 110.29 236 118Z" />
		<path id="Shape 8" class="shp0" d="M148 167L158 174C158 174 187.34 140.81 217 134C217.23 133.87 216 121 216 121C216 121 178.14 132.43 148 167Z" />
		<path id="Shape 9" class="shp0" d="M130 233C130 233 106.72 305.63 181 368C180.92 368.03 176 379 176 379C176 379 133.94 349.5 121 302C120.58 301.82 110.69 259.38 119 228C119.05 228.17 130 233 130 233Z" />
		<path id="Shape 10" class="shp0" d="M204 392L209 381C209 381 227.06 393.36 281 390C281.23 390.22 285 401 285 401C285 401 239.8 409.63 204 392Z" />
		<path id="Shape 2" class="shp1" d="M342 142C342 142 281.35 94.56 200 128C199.87 128.01 133.5 159.86 120 226C119.92 226.22 103.81 295.01 143 343C142.64 342.97 179.63 396.77 244 402C244.1 402.05 282.55 407.73 321 389C321.08 389.1 325 393 325 393C325 393 260.52 425.48 199 395C198.92 394.88 159.71 382.58 130 334C130.18 333.92 106.41 294.73 111 251C111.11 251.52 109.56 202.65 146 162C146.19 161.6 180.8 117.25 234 112C233.76 111.93 295.23 99.57 345 138C344.87 137.82 343 143 343 143" />
		<path id="Shape 4" class="shp2" d="M137 348C137 348 172.39 394.11 231 407C231.3 406.66 231 421 231 421C231 421 167.59 413.35 125 355C125.01 355.38 137 348 137 348Z" />
		<path id="Shape 5" class="shp2" d="M252 408C252 408 323.36 415.83 377 349C376.87 348.76 391 356 391 356C391 356 343.84 429.07 252 422C251.97 422.37 252 408 252 408Z" />
		<path id="Shape 1" class="shp2" d="M375 167C375 167 342.82 112.55 264 110C263.49 110.3 263 96 263 96C263 96 335.96 92.65 388 158C388.22 157.57 375 167 375 167Z" />
		<path id="Shape 3" class="shp2" d="M234 111C234 111 162.79 115.5 122 197C121.74 197.02 92.48 252.67 122 321C122.16 320.68 111 329 111 329C111 329 76.2 252.59 112 188C112.23 187.1 143.14 111.53 235 97C235.05 96.95 234 111 234 111Z" />
		<path id="Shape 6" class="shp3" d="M345 139C345 139 302.8 98.96 228 114C227.92 114.14 167.8 124.24 132 183C132.15 182.96 96.34 238.9 121 312C120.75 312.17 137.17 356.02 173 379C172.94 378.74 194.73 397.43 231 405C230.7 404.71 251.17 410.41 284 405C283.68 405.05 284 408 284 408C284 408 236.49 415.6 196 397C196.18 396.51 113.18 363.41 107 267C106.98 266.97 101.32 136.89 233 110C233.44 109.77 299.97 97.97 346 136C346.23 136.09 345 139 345 139Z" />
	</g>
</svg>