<svg version="1.2" baseProfile="tiny-ps" xmlns="http://www.w3.org/2000/svg" viewBox="0 0 512 512" width="512" height="512">
	<title>Circles_Svg_logo_512</title>
	<style>
		tspan { white-space:pre }
		.shp0 { fill: #89f1af } 
	</style>
	<g id="cir_3">
		<path id="Shape 18" class="shp0" d="M379 104L376 108C376 108 350.24 84.09 305 72C304.85 72.19 306 67 306 67C306 67 359.26 82.92 379 104Z" />
		<path id="Shape 19" class="shp0" d="M285 68C285 68 236.43 60.87 195 76C194.92 76.46 154.47 87.23 116 128C116.22 128.22 112 125 112 125C112 125 141.85 86.62 194 71C193.86 70.85 245.27 54.35 286 63C286.44 63.38 285 68 285 68Z" />
		<path id="Shape 20" class="shp0" d="M104 142C104 142 69.93 188.64 67 235C67.29 235.2 60.36 284.31 79 329C79.56 329.46 93 361.02 100 368C100.87 367.88 96 370 96 370C96 370 70.45 338.4 65 301C65.04 301.05 51.4 242.9 70 197C70.52 196.3 79.82 163.38 101 139C101.19 139.48 104 142 104 142Z" />
		<path id="Shape 21" class="shp0" d="M111 382C111 382 138.27 420.78 205 442C205.23 441.92 247.89 455.77 300 444C300.14 443.85 303 448 303 448C303 448 246.44 465.71 190 443C189.73 442.89 139.13 424.87 106 384C106.12 384.13 111 382 111 382Z" />
		<path id="Shape 22" class="shp0" d="M414 366L418 370C418 370 387.32 422.78 320 443C319.51 442.89 320 439 320 439C320 439 383.33 417.33 414 366Z" />
		<path id="Shape 23" class="shp0" d="M261 39L265 56C265 56 210.83 56.09 169 76C169.06 75.67 162 64 162 64C162 64 209.16 37.93 261 39Z" />
		<path id="Shape 24" class="shp0" d="M120 88L131 99C131 99 73.21 145.46 59 213C59 213.79 46.9 268.87 68 330C68.15 330.77 96.13 385.62 118 404C118.21 404.63 109 418 109 418C109 418 46.55 363.44 38 280C37.61 280 35.23 214.06 54 173C53.95 173.48 75.26 121.02 120 88Z" />
	</g>
</svg>