<svg version="1.2" baseProfile="tiny-ps" xmlns="http://www.w3.org/2000/svg" viewBox="0 0 512 512" width="512" height="512">
	<title>Circles_Svg_logo_512</title>
	<style>
		tspan { white-space:pre }
		.shp0 { fill: #87efae } 
		.shp1 { fill: #67cf8e } 
		.shp2 { fill: #56be7d } 
	</style>
	<g id="cir_2">
		<path id="Shape 15" class="shp0" d="M101 222C101 222 79.95 313.71 145 374C145.28 374.25 210.74 444.52 308 415C307.98 415.31 310 424 310 424C310 424 260.43 447.19 191 419C191.16 419.21 153.4 403.15 135 381C127.11 372.83 120.02 364 113.79 354.54C101.64 336.11 92.99 315.68 88 294L88 294C88 294 78.93 251.45 88 221C88.19 221.44 101 222 101 222Z" />
		<path id="Shape 12" class="shp1" d="M322 97L315 107C315 107 219.35 64.82 137 153C136.8 153.16 126 145 126 145C126 145 200.09 48.88 322 97Z" />
		<path id="Shape 13" class="shp0" d="M345 121C345 121 275.24 74.27 201 107C201.01 107.13 140.62 134.53 119 177C119.01 177.18 106 171 106 171C106 171 143.27 96.77 243 85C242.97 84.53 309.94 79.04 352 111C352.09 111.97 345 121 345 121Z" />
		<path id="Shape 16" class="shp1" d="M99 285C99 285 113.06 366.93 168 393C168.26 393.15 164 405 164 405C164 405 96.41 365.44 86 286C85.53 286.45 99 285 99 285Z" />
		<path id="Shape 17" class="shp1" d="M200 410C200 410 239.44 430.47 288 419C287.92 418.89 291 429 291 429C291 429 251.92 441.44 195 422C194.54 421.38 200 410 200 410Z" />
		<path id="Shape 14" class="shp2" d="M84 258C84 258 82.92 339.6 147 392C147.41 392.18 239.3 472.58 346 407C345.61 407.14 351 417 351 417C351 417 329.41 433.6 291 439C291.32 440 291 436 291 436L273 438L272 442C272 442 206.62 449.29 152 409C151.66 408.9 155 406 155 406L141 394L134 396C134 396 95.08 357.29 82 314C81.83 314.42 72.5 284.97 74 256C74.33 255.79 84 258 84 258Z" />
		<path id="Shape 11" class="shp2" d="M396 153C396 153 351.33 83.77 256 85C255.6 84.94 178.1 82.65 126 145C125.45 145.5 88.79 187.9 85 238C84.21 237.85 75 236 75 236C75 236 81.46 137.45 187 88C186.87 87.94 314.73 31.24 405 147C405.93 147.22 396 153 396 153Z" />
	</g>
</svg>