<svg version="1.2" baseProfile="tiny-ps" xmlns="http://www.w3.org/2000/svg" viewBox="0 0 512 512" width="512" height="512">
	<title>Circles_Svg_logo_512</title>
	<style>
		tspan { white-space:pre }
		.shp0 { fill: #8af2b1 } 
		.shp1 { fill: #6fd796 } 
		.shp2 { fill: #56be7d } 
		.shp3 { fill: #57bf7e } 
		.shp4 { fill: #5ec685 } 
		.shp5 { fill: #5dc584 } 
	</style>
	<g id="cir_4">
		<path id="Shape 25" class="shp0" d="M425 101C425 101 319.05 -19.18 163 48C162.61 48.42 84.38 78.23 47 165C46.63 164.78 5.22 250.67 41 339C40.92 339.2 74.85 449.7 203 484C203.34 483.96 206 498 206 498C206 498 92.41 476.35 42 376C41.57 375.61 2.83 308.16 14 228C14.1 227.58 24.78 147.26 74 97C74.38 97.1 97.27 68.82 140 45C140 44.45 145 51 145 51L159 44L156 36C156 36 258.19 -12.33 358 38C357.85 37.97 404.1 57.84 433 91C433.29 90.96 425 101 425 101Z" />
		<path id="Shape 26" class="shp1" d="M74 97L83 107C83 107 40.35 158.71 30 215C30.25 215.29 17 212 17 212C17 212 27.08 148.84 74 97Z" />
		<path id="Shape 27" class="shp1" d="M14.25 228.57L27.17 234.75C27.17 234.75 17.8 334.99 76.87 402.45C76.69 402.48 65.75 411.29 65.75 411.29C65.75 411.29 29.66 366.04 20 319.66C20.31 319.58 8.9 260.29 14.25 228.57Z" />
		<path id="Shape 28" class="shp1" d="M81 427L90 419C90 419 123.24 451.43 152 465C152 465.33 152 479 152 479C152 479 103.33 454.62 81 427Z" />
		<path id="Shape 29" class="shp2" d="M397 75L399 72C399 72 419.39 88.47 426 97C426.04 97.72 424 100 424 100C424 100 408.26 84.38 397 75Z" />
		<path id="Shape 30" class="shp3" d="M364 49L362 53C362 53 268.65 -0.28 163 47C163.07 47.67 161 45 161 45C161 45 247.18 -4.17 364 49Z" />
		<path id="Shape 31" class="shp4" d="M144 52L146 56C146 56 113.71 71.68 84 106C84 106.54 81 104 81 104C81 104 117.1 66.7 144 52Z" />
		<path id="Shape 32" class="shp5" d="M154 469L154 466C154 466 172.67 475.73 201 483C201.18 482.76 202 487 202 487C202 487 159.32 474 154 469Z" />
	</g>
</svg>