<svg version="1.2" baseProfile="tiny-ps" xmlns="http://www.w3.org/2000/svg" viewBox="0 0 512 512" width="512" height="512">
	<title>btn_cancel-svg</title>
	<style>
		tspan { white-space:pre }
		.shp0 { fill: #c0702f } 
		.shp1 { fill: #ffc994 } 
	</style>
	<path id="Layer" class="shp0" d="M83.75 511.96C62.3 511.96 40.85 503.79 24.52 487.46C-8.15 454.8 -8.15 401.65 24.52 368.99L226.17 167.34C232.55 160.96 242.89 160.96 249.27 167.34C255.65 173.72 255.65 184.06 249.27 190.44L47.62 392.09C27.69 412.02 27.69 444.44 47.62 464.37C67.54 484.29 99.96 484.29 119.89 464.37L464.34 119.91C484.27 99.98 484.27 67.56 464.34 47.64C444.42 27.71 412 27.71 392.07 47.64L340.19 99.52C333.81 105.9 323.47 105.9 317.09 99.52C310.71 93.14 310.71 82.8 317.09 76.42L368.97 24.54C401.64 -8.12 454.78 -8.12 487.44 24.54C520.11 57.2 520.11 110.35 487.44 143.01L142.99 487.46C126.66 503.79 105.2 511.96 83.75 511.96Z" />
	<path id="Layer" class="shp1" d="M475.89 475.91L475.89 475.91C449.56 502.25 406.86 502.25 380.52 475.91L36.07 131.46C9.73 105.12 9.73 62.42 36.07 36.09L36.07 36.09C62.4 9.75 105.1 9.75 131.44 36.09L475.89 380.54C502.23 406.88 502.23 449.58 475.89 475.91Z" />
	<path id="Layer" fill-rule="evenodd" class="shp0" d="M428.21 512C405.83 512 384.8 503.29 368.97 487.46L24.52 143.01C-8.15 110.35 -8.15 57.2 24.52 24.54C40.34 8.71 61.38 0 83.75 0C106.13 0 127.17 8.71 142.99 24.54L487.44 368.99C503.27 384.81 511.98 405.85 511.98 428.23C511.98 450.61 503.27 471.64 487.44 487.47C471.62 503.29 450.58 512 428.21 512ZM83.75 32.67C70.11 32.67 57.27 37.98 47.62 47.64C27.69 67.56 27.69 99.98 47.62 119.91L392.07 464.36C401.72 474.02 414.56 479.33 428.21 479.33C441.86 479.33 454.69 474.02 464.34 464.36C474 454.71 479.31 441.88 479.31 428.23C479.31 414.58 474 401.74 464.34 392.09L119.89 47.64C110.24 37.98 97.4 32.67 83.75 32.67Z" />
</svg>