<svg version="1.2" baseProfile="tiny-ps" xmlns="http://www.w3.org/2000/svg" viewBox="0 0 512 512" width="512" height="512">
	<title>btn_edit-svg</title>
	<style>
		tspan { white-space:pre }
		.shp0 { fill: #c0702f } 
		.shp1 { fill: #ffc994 } 
	</style>
	<path id="Layer" class="shp0" d="M342.12 495.5L44.57 495.5C20 495.5 0 475.5 0 450.93L0 61.07C0 36.5 20 16.5 44.57 16.5L342.12 16.5C366.7 16.5 386.69 36.5 386.69 61.07L386.69 189.68C386.69 198.07 379.89 204.87 371.5 204.87C363.12 204.87 356.32 198.07 356.32 189.68L356.32 61.07C356.32 53.24 349.95 46.88 342.12 46.88L44.57 46.88C36.74 46.88 30.38 53.24 30.38 61.07L30.38 450.93C30.38 458.75 36.74 465.12 44.57 465.12L342.12 465.12C349.95 465.12 356.32 458.75 356.32 450.93L356.32 400.29C356.32 391.9 363.12 385.1 371.5 385.1C379.89 385.1 386.69 391.9 386.69 400.29L386.69 450.93C386.69 475.5 366.7 495.5 342.12 495.5Z" />
	<path id="Layer" class="shp1" d="M107.54 98.55L279.16 98.55L279.16 160.32L107.54 160.32L107.54 98.55Z" />
	<g id="Layer">
		<path id="Layer" fill-rule="evenodd" class="shp0" d="M279.15 175.5L107.54 175.5C99.15 175.5 92.35 168.71 92.35 160.32L92.35 98.56C92.35 90.17 99.15 83.37 107.54 83.37L279.15 83.37C287.54 83.37 294.34 90.17 294.34 98.56L294.34 160.32C294.34 168.71 287.54 175.5 279.15 175.5ZM122.72 145.13L263.97 145.13L263.97 113.74L122.72 113.74L122.72 145.13Z" />
		<path id="Layer" class="shp0" d="M496.81 175.7C492.93 175.7 489.04 174.22 486.07 171.26L446.78 131.96L415.95 162.79C410.02 168.72 400.41 168.72 394.47 162.79C388.54 156.86 388.54 147.24 394.47 141.31L436.04 99.74C441.97 93.81 451.59 93.81 457.52 99.74L507.55 149.78C513.48 155.71 513.48 165.32 507.55 171.26C504.59 174.22 500.7 175.7 496.81 175.7Z" />
	</g>
	<path id="Layer" class="shp1" d="M405.21 152.05L213.76 343.5L205.78 401.52L263.8 393.53L455.25 202.08L405.21 152.05Z" />
	<g id="Layer">
		<path id="Layer" fill-rule="evenodd" class="shp0" d="M205.78 416.7C201.78 416.7 197.9 415.12 195.04 412.26C191.68 408.9 190.08 404.16 190.73 399.45L198.72 341.43C199.17 338.14 200.68 335.1 203.02 332.76L394.47 141.31C397.32 138.46 401.18 136.86 405.21 136.86C409.24 136.86 413.1 138.46 415.95 141.31L465.98 191.34C471.92 197.27 471.92 206.89 465.98 212.82L274.54 404.27C272.19 406.61 269.15 408.13 265.87 408.58L207.85 416.56C207.16 416.66 206.47 416.7 205.78 416.7ZM228.11 350.63L223.55 383.74L256.67 379.18L433.77 202.08L405.21 173.53L228.11 350.63Z" />
		<path id="Layer" class="shp0" d="M205.78 416.7L107.54 416.7C99.15 416.7 92.35 409.91 92.35 401.52C92.35 393.13 99.15 386.33 107.54 386.33L205.78 386.33C214.16 386.33 220.96 393.13 220.96 401.52C220.96 409.91 214.17 416.7 205.78 416.7Z" />
	</g>
</svg>