<svg version="1.2" baseProfile="tiny-ps" xmlns="http://www.w3.org/2000/svg" viewBox="0 0 512 512" width="512" height="512">
	<title>btn_CollapsedButton-svg</title>
	<style>
		tspan { white-space:pre }
		.shp0 { fill: #ffc994 } 
		.shp1 { fill: #c0702f } 
	</style>
	<path id="Shape 1" class="shp0" d="M25 193L189 189L316 318L318 483L199 494L197 335L162 317L30 320L25 193Z" />
	<path id="pluse icon 1" fill-rule="evenodd" class="shp1" d="M479.27 304.73C479.27 272.25 479.27 239.75 479.27 207.27C424.23 207.55 356.75 212.16 309.27 202.73C300.02 155.03 304.76 87.95 304.73 32.73C272.25 32.73 239.75 32.73 207.27 32.73C207.27 84.11 207.27 135.49 207.27 186.87C250.33 229.17 293.4 271.49 336.47 313.8C336.47 376.5 336.47 439.23 336.47 501.93C333.44 504.2 330.42 506.47 327.4 508.73C327.4 509.49 327.4 510.24 327.4 511C279.8 511 232.2 511 184.6 511C182.33 507.98 180.07 504.96 177.8 501.93C177.04 501.93 176.29 501.93 175.53 501.93C175.53 447.54 175.53 393.13 175.53 338.73C162.32 333.9 138.21 336.47 121.13 336.47C84.11 336.47 47.09 336.47 10.07 336.47C7.8 333.44 5.53 330.42 3.27 327.4C2.51 327.4 1.76 327.4 1 327.4C1 279.8 1 232.2 1 184.6C4.02 182.33 7.04 180.07 10.07 177.8C10.07 177.04 10.07 176.29 10.07 175.53C64.46 175.53 118.87 175.53 173.27 175.53C178.1 162.32 175.53 138.21 175.53 121.13C175.53 84.11 175.53 47.09 175.53 10.07C178.56 7.8 181.58 5.53 184.6 3.27C184.6 2.51 184.6 1.76 184.6 1C232.2 1 279.8 1 327.4 1C329.67 4.02 331.93 7.04 334.2 10.07C334.96 10.07 335.71 10.07 336.47 10.07C336.47 64.46 336.47 118.87 336.47 173.27C349.68 178.1 373.79 175.53 390.87 175.53C427.89 175.53 464.91 175.53 501.93 175.53C504.2 178.56 506.47 181.58 508.73 184.6C509.49 184.6 510.24 184.6 511 184.6C511 232.2 511 279.8 511 327.4C507.98 329.67 504.96 331.93 501.93 334.2C501.93 334.96 501.93 335.71 501.93 336.47C470.2 336.47 438.46 336.47 406.73 336.47C404.15 333.89 406.73 335.56 402.2 334.2C401.44 331.93 400.69 329.67 399.93 327.4C393.63 321.1 400.34 312.49 404.47 309.27C404.47 308.51 404.47 307.76 404.47 307C407.49 307 410.51 307 413.53 307C419.19 301.94 466.89 304.54 479.27 304.73ZM32.73 207.27C32.73 239.75 32.73 272.25 32.73 304.73C74.28 304.73 115.85 304.73 157.4 304.73C176.09 304.73 195.57 302.08 202.73 313.8C210.23 321.4 207.27 344.56 207.27 359.13C207.27 399.17 207.27 439.23 207.27 479.27C239.75 479.27 272.25 479.27 304.73 479.27C304.73 427.89 304.73 376.51 304.73 325.13C274.51 295.67 244.29 266.2 214.07 236.73C205 226.91 195.93 217.09 186.87 207.27C135.49 207.27 84.11 207.27 32.73 207.27Z" />
</svg>