<svg version="1.2" baseProfile="tiny-ps" xmlns="http://www.w3.org/2000/svg" viewBox="0 0 512 512" width="512" height="512">
	<title>btn_bookmark-svg</title>
	<style>
		tspan { white-space:pre }
		.shp0 { fill: #c0702f } 
		.shp1 { fill: #ffc994 } 
	</style>
	<path id="Layer" class="shp0" d="M237.35 271.79L189.45 271.79C180.73 271.79 173.65 264.72 173.65 256C173.65 247.28 180.72 240.21 189.45 240.21L237.35 240.21C246.08 240.21 253.15 247.28 253.15 256C253.15 264.72 246.08 271.79 237.35 271.79Z" />
	<path id="Layer" class="shp1" d="M105.22 15.79L98.17 15.79C53.51 15.79 38.74 52 38.74 96.66L38.74 415.34C38.74 460 53.51 496.21 98.17 496.21L105.22 496.21L105.22 15.79L105.22 15.79Z" />
	<path id="Layer" fill-rule="evenodd" class="shp0" d="M105.22 512L98.17 512C71.91 512 51.23 501.27 38.37 480.98C28.14 464.83 22.95 442.75 22.95 415.34L22.95 96.66C22.95 69.25 28.14 47.17 38.37 31.02C51.23 10.73 71.91 0 98.17 0L105.22 0C113.94 0 121.01 7.07 121.01 15.79L121.01 496.21C121.01 504.93 113.94 512 105.22 512ZM89.42 32.05C75.18 34.01 54.54 44.14 54.54 96.66L54.54 415.34C54.54 467.86 75.18 477.99 89.42 479.94L89.42 32.05Z" />
	<path id="Layer" class="shp0" d="M390.49 512L174.55 512C165.83 512 158.76 504.93 158.76 496.21C158.76 487.49 165.83 480.41 174.55 480.41L390.49 480.41C407.77 480.41 421.82 466.36 421.82 449.08L421.82 382.31C421.82 373.59 428.9 366.52 437.62 366.52C446.34 366.52 453.41 373.59 453.41 382.31L453.41 449.08C453.41 483.77 425.18 512 390.49 512Z" />
	<path id="Layer" class="shp0" d="M437.62 149.31C428.89 149.31 421.82 142.24 421.82 133.52L421.82 62.92C421.82 45.65 407.77 31.59 390.49 31.59L105.22 31.59C96.5 31.59 89.42 24.52 89.42 15.79C89.42 7.07 96.5 0 105.22 0L390.49 0C425.18 0 453.41 28.23 453.41 62.92L453.41 133.52C453.41 142.24 446.34 149.31 437.62 149.31Z" />
	<path id="Layer" class="shp1" d="M473.26 222.41C473.26 209.86 463.08 199.68 450.53 199.68L294.04 199.68C290.57 199.68 288.33 203.36 289.92 206.45L314.43 253.87C315.12 255.21 315.12 256.79 314.43 258.13L289.92 305.55C288.33 308.64 290.57 312.32 294.04 312.32L450.53 312.32C463.08 312.32 473.26 302.14 473.26 289.59L473.26 222.41L473.26 222.41Z" />
	<path id="Layer" fill-rule="evenodd" class="shp0" d="M450.53 328.11L294.04 328.11C286.85 328.11 280.33 324.45 276.59 318.31C272.85 312.17 272.59 304.69 275.89 298.31L297.75 256L275.89 213.7C272.59 207.31 272.85 199.83 276.59 193.69C280.33 187.55 286.86 183.89 294.04 183.89L450.53 183.89C471.77 183.89 489.05 201.17 489.05 222.41L489.05 289.59C489.05 310.83 471.77 328.11 450.53 328.11ZM312.36 296.52L450.53 296.52C454.35 296.52 457.46 293.41 457.46 289.59L457.46 222.41C457.46 218.58 454.35 215.47 450.53 215.47L312.36 215.47L328.45 246.62C331.49 252.5 331.49 259.5 328.46 265.37L312.36 296.52Z" />
	<path id="Layer" class="shp0" d="M352.91 137.55L189.45 137.55C180.72 137.55 173.65 130.48 173.65 121.76C173.65 113.04 180.72 105.97 189.45 105.97L352.91 105.97C361.63 105.97 368.7 113.04 368.7 121.76C368.7 130.48 361.63 137.55 352.91 137.55Z" />
	<path id="Layer" class="shp0" d="M352.91 406.04L189.45 406.04C180.72 406.04 173.65 398.96 173.65 390.24C173.65 381.52 180.72 374.45 189.45 374.45L352.91 374.45C361.63 374.45 368.7 381.52 368.7 390.24C368.7 398.96 361.63 406.04 352.91 406.04Z" />
</svg>