<svg version="1.2" baseProfile="tiny-ps" xmlns="http://www.w3.org/2000/svg" viewBox="0 0 513 513" width="513" height="513">
	<title>btn_unlock-svg</title>
	<style>
		tspan { white-space:pre }
		.shp0 { fill: #ffc994 } 
		.shp1 { fill: #c0702f } 
	</style>
	<path id="Layer" fill-rule="evenodd" class="shp0" d="M348.31 422.82L348.31 422.82L391.93 422.82L391.93 450.16C391.93 476.37 370.68 497.62 344.47 497.62L123.92 497.62C97.71 497.62 76.46 476.37 76.46 450.16L76.46 254.58L391.92 254.58L391.92 290.03L348.31 290.03L348.31 422.82L348.31 422.82ZM271.11 358.61C271.11 338.22 254.58 321.69 234.19 321.69C213.8 321.69 197.28 338.22 197.28 358.61C197.28 379 213.8 395.52 234.19 395.52C254.58 395.52 271.11 378.99 271.11 358.61Z" />
	<g id="Layer">
		<path id="Layer" fill-rule="evenodd" class="shp1" d="M449.92 290.03L449.92 395.77C449.92 403.72 443.48 410.15 435.54 410.15C427.6 410.15 421.16 403.72 421.16 395.77L421.16 370.81L362.69 370.81L362.69 408.44L391.93 408.44C399.87 408.44 406.31 414.88 406.31 422.82L406.31 450.16C406.31 484.26 378.57 512 344.47 512L123.92 512C89.82 512 62.08 484.26 62.08 450.16L62.08 254.58C62.08 246.64 68.52 240.2 76.46 240.2L391.93 240.2C399.87 240.2 406.31 246.64 406.31 254.58L406.31 275.65L435.54 275.65C443.49 275.65 449.93 282.09 449.92 290.03ZM348.31 437.2C340.37 437.2 333.93 430.76 333.93 422.82L333.93 290.03C333.93 282.09 340.37 275.65 348.31 275.65L377.54 275.65L377.54 268.96L90.84 268.96L90.84 450.16C90.84 468.4 105.68 483.24 123.92 483.24L344.47 483.24C362.7 483.24 377.54 468.4 377.54 450.16L377.54 437.2L348.31 437.2ZM421.16 342.04L421.16 304.41L362.69 304.41L362.69 342.04L421.16 342.04Z" />
		<path id="Layer" fill-rule="evenodd" class="shp1" d="M285.49 358.61C285.49 381.9 269.88 401.6 248.57 407.84L248.57 431.96C248.57 439.91 242.13 446.35 234.19 446.35C226.25 446.35 219.81 439.91 219.81 431.96L219.81 407.84C198.5 401.6 182.89 381.9 182.89 358.61C182.89 330.32 205.91 307.31 234.19 307.31C262.48 307.31 285.49 330.32 285.49 358.61ZM256.72 358.6C256.72 346.18 246.62 336.07 234.19 336.07C221.77 336.07 211.66 346.18 211.66 358.6C211.66 371.03 221.77 381.14 234.19 381.14C246.62 381.14 256.72 371.03 256.72 358.6Z" />
		<path id="Layer" class="shp1" d="M334.87 212.88C326.93 212.88 320.49 206.44 320.49 198.5L320.49 115.06C320.49 67.48 281.77 28.77 234.19 28.77C186.61 28.77 147.9 67.48 147.9 115.06L147.9 198.5C147.9 206.44 141.46 212.88 133.51 212.88C125.57 212.88 119.13 206.44 119.13 198.5L119.13 115.06C119.13 51.62 170.75 0 234.19 0C297.63 0 349.25 51.62 349.25 115.06L349.25 198.5C349.25 206.44 342.81 212.88 334.87 212.88Z" />
	</g>
</svg>