<svg version="1.2" baseProfile="tiny-ps" xmlns="http://www.w3.org/2000/svg" viewBox="0 0 512 512" width="512" height="512">
	<title>btn_save-svg</title>
	<style>
		tspan { white-space:pre }
		.shp0 { fill: #c0702f } 
		.shp1 { fill: #ffc994 } 
	</style>
	<path id="Layer" class="shp0" d="M391.91 512L65.13 512C35.61 512 11.59 487.99 11.59 458.47L11.59 53.53C11.6 24.01 35.61 0 65.13 0L446.88 0C476.39 0 500.4 24.01 500.4 53.53L500.4 427.62C500.4 436.45 493.24 443.61 484.41 443.61C475.58 443.61 468.42 436.45 468.42 427.62L468.42 53.53C468.42 41.65 458.76 31.98 446.87 31.98L65.13 31.98C53.24 31.98 43.57 41.65 43.57 53.53L43.57 458.47C43.57 470.35 53.24 480.02 65.13 480.02L391.91 480.02C400.74 480.02 407.9 487.18 407.9 496.01C407.9 504.84 400.75 512 391.91 512Z" />
	<path id="Layer" class="shp1" d="M148.87 15.99L363.13 15.99L363.13 144.39L148.87 144.39L148.87 15.99Z" />
	<g id="Layer">
		<path id="Layer" fill-rule="evenodd" class="shp0" d="M363.13 160.38L148.87 160.38C140.04 160.38 132.88 153.22 132.88 144.38L132.88 15.99C132.88 7.16 140.04 0 148.87 0L363.13 0C371.96 0 379.12 7.16 379.12 15.99L379.12 144.39C379.12 153.22 371.96 160.38 363.13 160.38ZM164.86 128.4L347.14 128.4L347.14 31.98L164.86 31.98L164.86 128.4Z" />
		<path id="Layer" class="shp0" d="M305.04 100.9C296.21 100.9 289.05 93.74 289.05 84.91L289.05 15.99C289.05 7.16 296.21 0 305.04 0C313.87 0 321.03 7.16 321.03 15.99L321.03 84.91C321.02 93.74 313.87 100.9 305.04 100.9Z" />
	</g>
	<path id="Layer" class="shp1" d="M120.08 300.64L391.91 300.64L391.91 495.84L120.08 495.84L120.08 300.64Z" />
	<g id="Layer">
		<path id="Layer" fill-rule="evenodd" class="shp0" d="M391.91 511.83L120.09 511.83C111.26 511.83 104.1 504.67 104.1 495.84L104.1 300.63C104.1 291.8 111.26 284.64 120.09 284.64L391.91 284.64C400.74 284.64 407.9 291.8 407.9 300.63L407.9 495.84C407.9 504.67 400.75 511.83 391.91 511.83ZM136.08 479.85L375.92 479.85L375.92 316.62L136.08 316.62L136.08 479.85Z" />
		<path id="Layer" class="shp0" d="M202.17 376.46L120.09 376.46C111.26 376.46 104.1 369.3 104.1 360.47C104.1 351.63 111.26 344.48 120.09 344.48L202.17 344.48C211 344.48 218.16 351.63 218.16 360.47C218.16 369.3 211 376.46 202.17 376.46Z" />
		<path id="Layer" class="shp0" d="M287.98 443.61L120.09 443.61C111.26 443.61 104.1 436.45 104.1 427.62C104.1 418.79 111.26 411.63 120.09 411.63L287.98 411.63C296.81 411.63 303.97 418.79 303.97 427.62C303.97 436.45 296.81 443.61 287.98 443.61Z" />
	</g>
</svg>