<svg version="1.2" baseProfile="tiny-ps" xmlns="http://www.w3.org/2000/svg" viewBox="0 0 512 512" width="512" height="512">
	<title>btn_pdf-svg</title>
	<style>
		tspan { white-space:pre }
		.shp0 { fill: #c0702f } 
		.shp1 { fill: #ffc994 } 
	</style>
	<path id="Layer" class="shp0" d="M437.46 512L21.21 512C13.05 512 6.43 505.38 6.43 497.21L6.43 256.92C6.43 248.75 13.05 242.13 21.21 242.13C29.38 242.13 36 248.75 36 256.92L36 482.43L422.67 482.43L422.67 449.49C422.67 441.32 429.29 434.7 437.45 434.7C445.62 434.7 452.24 441.32 452.24 449.49L452.24 497.21C452.24 505.38 445.62 512 437.46 512Z" />
	<g id="Layer">
		<path id="Layer" class="shp1" d="M21.21 177.09L21.21 172.3L176.07 14.79L176.07 177.09L21.21 177.09Z" />
		<path id="Layer" class="shp1" d="M196.52 219.43L490.8 219.43L490.8 383.14L196.52 383.14L196.52 219.43Z" />
	</g>
	<g id="Layer">
		<path id="Layer" fill-rule="evenodd" class="shp0" d="M505.58 219.42L505.58 383.13C505.58 391.29 498.96 397.91 490.79 397.91L196.52 397.91C188.35 397.91 181.73 391.29 181.73 383.13L181.73 219.42C181.73 211.26 188.35 204.63 196.52 204.63L422.67 204.63L422.67 29.57L190.85 29.57L190.85 177.09C190.85 185.26 184.23 191.88 176.07 191.88L21.21 191.88C13.04 191.88 6.42 185.26 6.42 177.09L6.42 172.3C6.42 172.11 6.45 171.92 6.45 171.73C6.46 171.46 6.47 171.2 6.49 170.93C6.51 170.73 6.55 170.53 6.57 170.33C6.61 170.05 6.64 169.78 6.69 169.5C6.73 169.33 6.78 169.16 6.82 168.99C6.88 168.69 6.95 168.39 7.04 168.1C7.08 167.96 7.13 167.82 7.18 167.69C7.28 167.37 7.39 167.05 7.51 166.74C7.56 166.62 7.62 166.51 7.67 166.4C7.81 166.08 7.95 165.75 8.12 165.44C8.17 165.32 8.25 165.22 8.31 165.1C8.48 164.8 8.65 164.5 8.84 164.2C8.95 164.04 9.07 163.89 9.18 163.73C9.35 163.5 9.51 163.26 9.69 163.03C10 162.65 10.32 162.29 10.67 161.94L165.52 4.42C165.84 4.1 166.17 3.8 166.51 3.51C166.6 3.43 166.7 3.35 166.8 3.27C167.06 3.06 167.33 2.86 167.6 2.67C167.7 2.6 167.8 2.53 167.9 2.46C168.64 1.97 169.42 1.55 170.23 1.21C170.34 1.16 170.45 1.12 170.55 1.08C170.87 0.95 171.19 0.83 171.51 0.73C171.62 0.69 171.73 0.66 171.84 0.62C172.26 0.5 172.69 0.39 173.12 0.3C173.15 0.29 173.18 0.29 173.21 0.28C173.62 0.2 174.02 0.14 174.43 0.1C174.55 0.08 174.68 0.07 174.8 0.06C175.15 0.03 175.51 0.01 175.87 0.01C175.94 0.01 176 0 176.07 0L437.46 0C445.62 0 452.24 6.62 452.24 14.79L452.24 204.63L490.79 204.63C498.96 204.63 505.58 211.26 505.58 219.42ZM51.77 162.31L161.28 162.31L161.28 50.92L99.71 113.55L51.77 162.31ZM476 234.21L211.31 234.21L211.31 368.34L476 368.34L476 234.21Z" />
		<path id="Layer" fill-rule="evenodd" class="shp0" d="M253.46 254.72L279.78 254.72C296.56 254.72 309.78 262.66 309.78 284.15L309.78 284.79C309.78 306.29 296.05 314.48 278.5 314.48L265.92 314.48L265.92 342.12C265.92 346.22 260.96 348.27 256 348.27C251.04 348.27 246.08 346.22 246.08 342.12L246.08 260.74C246.08 257.54 249.01 254.72 253.46 254.72ZM265.92 299.13L278.5 299.13C285.63 299.13 289.95 295.03 289.95 286.33L289.95 284.92C289.95 276.22 285.63 272.13 278.5 272.13L265.92 272.13L265.92 299.13Z" />
		<path id="Layer" fill-rule="evenodd" class="shp0" d="M349.59 254.72C367.13 254.72 380.87 262.91 380.87 284.92L380.87 318.07C380.87 340.08 367.13 348.27 349.59 348.27L327.08 348.27C321.87 348.27 318.43 345.45 318.43 342.25L318.43 260.74C318.43 257.54 321.87 254.72 327.08 254.72L349.59 254.72L349.59 254.72ZM338.27 330.86L349.59 330.86C356.71 330.86 361.03 326.77 361.03 318.07L361.03 284.92C361.03 276.22 356.71 272.13 349.59 272.13L338.27 272.13L338.27 330.86Z" />
		<path id="Layer" class="shp0" d="M393.46 260.86C393.46 256.77 397.78 254.72 402.11 254.72L446.23 254.72C450.43 254.72 452.21 259.2 452.21 263.3C452.21 268.03 450.05 272.13 446.23 272.13L413.3 272.13L413.3 293.75L432.5 293.75C436.31 293.75 438.47 297.46 438.47 301.56C438.47 305.01 436.69 309.11 432.5 309.11L413.3 309.11L413.3 342.13C413.3 346.22 408.34 348.27 403.38 348.27C398.42 348.27 393.46 346.22 393.46 342.13L393.46 260.86L393.46 260.86Z" />
	</g>
</svg>