<svg version="1.2" baseProfile="tiny-ps" xmlns="http://www.w3.org/2000/svg" viewBox="0 0 513 513" width="513" height="513">
	<title>btn_print-svg</title>
	<style>
		tspan { white-space:pre }
		.shp0 { fill: #c0702f } 
		.shp1 { fill: #ffc994 } 
	</style>
	<g id="Layer">
		<path id="Layer" class="shp0" d="M172.02 78.05L123.31 78.05C117.41 78.05 112.09 74.49 109.84 69.04C107.58 63.59 108.83 57.32 113 53.15L161.71 4.43C165.88 0.26 172.16 -0.98 177.6 1.27C183.06 3.53 186.61 8.85 186.61 14.75L186.61 63.46C186.61 71.52 180.08 78.05 172.02 78.05Z" />
		<path id="Layer" class="shp0" d="M388.69 165.93C380.63 165.93 374.1 159.4 374.1 151.34L374.1 29.34L236.73 29.34C228.67 29.34 222.14 22.8 222.14 14.75C222.14 6.7 228.67 0.16 236.73 0.16L376.13 0.16C391.1 0.16 403.27 12.34 403.27 27.3L403.27 151.34C403.27 159.4 396.74 165.93 388.69 165.93Z" />
		<path id="Layer" class="shp0" d="M123.31 165.93C115.26 165.93 108.73 159.4 108.73 151.34L108.73 63.46C108.73 59.59 110.26 55.88 113 53.15L161.71 4.43C167.4 -1.26 176.64 -1.26 182.34 4.43C188.03 10.13 188.03 19.37 182.34 25.06L137.9 69.5L137.9 151.34C137.9 159.4 131.37 165.93 123.31 165.93Z" />
		<path id="Layer" class="shp0" d="M388.69 511.84L123.31 511.84C115.26 511.84 108.73 505.31 108.73 497.25L108.73 349.92C108.73 341.87 115.26 335.34 123.31 335.34L388.69 335.34C396.74 335.34 403.27 341.87 403.27 349.92C403.27 357.98 396.74 364.51 388.69 364.51L137.9 364.51L137.9 482.66L388.69 482.66C396.74 482.66 403.27 489.2 403.27 497.25C403.27 505.31 396.74 511.84 388.69 511.84Z" />
		<path id="Layer" fill-rule="evenodd" class="shp0" d="M465.9 422.26L388.69 422.26C380.63 422.26 374.1 415.73 374.1 407.67L374.1 364.51L137.9 364.51L137.9 407.67C137.9 415.72 131.37 422.26 123.31 422.26L46.1 422.26C20.68 422.26 0 401.57 0 376.16L0 191.04C0 165.62 20.68 144.94 46.1 144.94L465.9 144.94C491.32 144.94 512 165.62 512 191.04L512 376.16C512 401.57 491.32 422.26 465.9 422.26ZM465.9 393.08C475.23 393.08 482.83 385.49 482.83 376.16L482.83 191.04C482.83 181.71 475.23 174.11 465.9 174.11L46.1 174.11C36.77 174.11 29.17 181.71 29.17 191.04L29.17 376.16C29.17 385.49 36.77 393.08 46.1 393.08L108.72 393.08L108.72 349.92C108.72 341.87 115.26 335.34 123.31 335.34L388.69 335.34C396.74 335.34 403.27 341.87 403.27 349.92L403.27 393.08L465.9 393.08Z" />
	</g>
	<path id="Layer" class="shp1" d="M14.59 283.6L14.59 376.16C14.59 393.56 28.7 407.67 46.1 407.67L123.31 407.67L123.31 349.92L388.69 349.92L388.69 407.67L465.9 407.67C483.3 407.67 497.41 393.56 497.41 376.16L497.41 283.6L14.59 283.6L14.59 283.6Z" />
	<path id="Layer" fill-rule="evenodd" class="shp0" d="M465.9 422.26L388.69 422.26C380.63 422.26 374.1 415.73 374.1 407.67L374.1 364.51L137.9 364.51L137.9 407.67C137.9 415.72 131.37 422.26 123.31 422.26L46.1 422.26C20.68 422.26 0 401.57 0 376.16L0 283.6C0 275.54 6.53 269.01 14.59 269.01L497.41 269.01C505.47 269.01 512 275.54 512 283.6L512 376.16C512 401.57 491.32 422.26 465.9 422.26ZM403.27 393.08L465.9 393.08C475.23 393.08 482.83 385.49 482.83 376.16L482.83 298.19L29.17 298.19L29.17 376.16C29.17 385.49 36.77 393.08 46.1 393.08L108.73 393.08L108.73 349.92C108.73 341.87 115.26 335.34 123.31 335.34L388.69 335.34C396.74 335.34 403.27 341.87 403.27 349.92L403.27 393.08Z" />
	<g id="Layer">
	</g>
</svg>