<svg version="1.2" baseProfile="tiny-ps" xmlns="http://www.w3.org/2000/svg" viewBox="0 0 830 645" width="830" height="645">
	<title>btn_postacc-svg</title>
	<style>
		tspan { white-space:pre }
		.shp0 { fill: #c0702f } 
		.shp1 { fill: #ffc994 } 
	</style>
	<path id="Shape 4" class="shp0" d="M498.73 100.85C498.73 100.85 348.87 8.51 164.03 83.67C162.96 83.34 55.03 119.62 57.82 203.89C57.62 203.69 47.85 283.23 180.12 330.54C180.9 330.76 243.88 357.56 344.25 352.01C343.76 351.69 363.56 374.55 363.56 374.55C363.56 374.55 267.67 394.47 144.72 348.79C144.29 347.96 -39.41 279.89 27.78 150.22C27.74 150.62 61.99 60.85 247.7 33.23C246.64 33.26 383.33 10.41 506.24 70.79C506.63 72.13 498.73 100.85 498.73 100.85Z" />
	<path id="Shape 5" class="shp0" d="M498.8 114.87L497.73 287.68L366.85 289.83C366.85 289.83 347.4 285.26 335.74 312.37C336.04 312.57 330.12 326.77 336.82 341.35C337.53 342.47 143.72 353.53 81.5 242.6C82.02 243.05 19.11 124.98 222.03 73.01C220.99 73.37 371.8 32.65 498.8 114.87Z" />
	<path id="Shape 6" class="shp0" d="M662.87 331.62L827 331.62L606.01 586L386.09 331.62L550.22 331.62L550.22 96.55L661.79 97.63L662.87 331.62Z" />
	<path id="Shape 1" class="shp0" d="M14.91 311.22C14.91 311.22 130.29 451.24 395.75 417.48C395.09 417.47 433.29 460.42 433.29 460.42C433.29 460.42 306.18 501.96 156.52 449.68C158.14 450.3 18.56 399.67 14.91 311.22Z" />
	<path id="Shape 2" class="shp0" d="M14.91 409.97C14.91 409.97 84.77 498.97 244.48 516.23C245.63 517.08 352.31 536.07 461.18 500.13C462.52 501.58 495.51 539.85 495.51 539.85C495.51 539.85 385.17 595.31 225.17 566.68C225.58 567.23 30.4 534.89 14.91 409.97Z" />
	<path id="Layer" fill-rule="evenodd" class="shp1" d="M337.8 269.35C322.85 292.56 303.96 304.32 281.7 304.25C271.3 304.19 259.12 300.99 245.37 294.72L235.45 309.93C233.16 313.43 228.46 314.42 224.95 312.14L213.68 304.78C210.17 302.5 209.18 297.79 211.47 294.28L221.25 279.3C200.97 262.34 191.45 243.12 192.92 222.12C193.71 209.99 198.83 196.81 208.58 181.87C210.86 178.36 215.57 177.37 219.07 179.66L239.89 193.23C243.24 195.42 244.32 199.83 242.35 203.31C235.24 215.9 233.39 223.25 233.08 227.2C232.52 234.61 235.32 241.5 241.6 248.09L275.56 196.01C262.13 182.1 253.73 168.61 250.57 155.85C246.77 140.96 249.9 125.63 259.87 110.34C268.77 96.69 281.82 87.59 298.67 83.29C313.74 79.46 329.22 81.68 344.77 89.9L351.12 80.16C353.41 76.65 358.11 75.67 361.62 77.95L372.89 85.31C376.4 87.59 377.39 92.3 375.1 95.8L368.71 105.6C381.9 116.93 390.11 129.47 393.14 142.94C396.66 158.59 393.69 174.25 384.3 189.49C383.23 191.24 381.49 192.47 379.5 192.92C377.5 193.37 375.41 192.99 373.69 191.87L353.08 178.43C349.81 176.29 348.69 172.02 350.5 168.56C353.23 163.34 354.68 158.14 354.82 153.1C354.91 146.87 352.82 141.44 348.44 136.69L318.61 182.43C332 197.97 340.33 209.94 344.01 218.95C350.81 235.65 348.73 252.6 337.8 269.35ZM291.58 148.35C292.86 152.52 295.15 156.77 298.39 161.01L324.66 120.74C319.02 118.57 314.06 118.25 309.82 119.79C303.01 122.33 298.06 126.05 294.73 131.15C290.85 137.1 289.85 142.57 291.58 148.35ZM295.47 217.91L295.47 217.91L265.02 264.59C273.57 268.08 281.15 267.98 288.01 264.32C292.78 261.79 296.72 258.07 300.08 252.93C305.19 245.09 306.16 237.87 303.13 230.22C302.17 227.78 300.05 223.85 295.47 217.9L295.47 217.91Z" />
</svg>