<svg version="1.2" baseProfile="tiny-ps" xmlns="http://www.w3.org/2000/svg" viewBox="0 0 512 512" width="512" height="512">
	<title>btn_success-svg</title>
	<style>
		tspan { white-space:pre }
		.shp0 { fill: #c0702f } 
		.shp1 { fill: #ffc994 } 
	</style>
	<path id="Layer" class="shp0" d="M210.32 441.39C191.86 441.39 174.51 434.2 161.46 421.15C156.2 415.89 156.2 407.36 161.46 402.1C166.72 396.84 175.25 396.84 180.51 402.1C188.47 410.06 199.06 414.44 210.32 414.44C221.58 414.44 232.16 410.06 240.12 402.1L472.74 169.48C480.7 161.52 485.09 150.93 485.09 139.67C485.09 128.42 480.7 117.83 472.74 109.87C456.31 93.43 429.57 93.43 413.13 109.87L283.53 239.47C278.27 244.73 269.74 244.73 264.48 239.47C259.22 234.21 259.22 225.68 264.48 220.42L394.08 90.81C421.02 63.88 464.85 63.88 491.79 90.81C518.74 117.76 518.74 161.59 491.79 188.53L259.17 421.15C246.13 434.2 228.77 441.39 210.32 441.39Z" />
	<path id="Layer" class="shp1" d="M287.98 371.29L248.65 410.62C226.92 432.34 191.71 432.34 169.98 410.62L29.73 270.37C8.01 248.65 8.01 213.43 29.73 191.71L29.73 191.71C51.45 169.99 86.67 169.99 108.39 191.71L287.98 371.29Z" />
	<path id="Layer" fill-rule="evenodd" class="shp0" d="M209.31 440.39C190.86 440.39 173.51 433.2 160.46 420.15L20.2 279.9C-6.74 252.96 -6.74 209.12 20.2 182.18C33.26 169.13 50.61 161.94 69.06 161.94C87.52 161.94 104.87 169.13 117.92 182.18L297.5 361.76C302.77 367.03 302.77 375.56 297.5 380.82L258.17 420.15C245.12 433.2 227.77 440.39 209.31 440.39ZM69.06 188.89C57.8 188.89 47.22 193.27 39.26 201.23C22.82 217.67 22.82 244.41 39.26 260.85L179.51 401.1C187.47 409.06 198.06 413.44 209.31 413.44C220.57 413.44 231.16 409.06 239.12 401.1L268.93 371.29L98.87 201.23C90.91 193.27 80.32 188.89 69.06 188.89Z" />
	<g id="Layer">
	</g>
</svg>