<svg version="1.2" baseProfile="tiny-ps" xmlns="http://www.w3.org/2000/svg" viewBox="0 0 512 512" width="512" height="512">
	<title>btn_search-svg</title>
	<style>
		tspan { white-space:pre }
		.shp0 { fill: #c0702f } 
		.shp1 { fill: #ffc994 } 
	</style>
	<path id="Layer" class="shp0" d="M317.26 389.35C267.38 389.35 217.52 370.37 179.55 332.4C173.82 326.67 173.82 317.37 179.55 311.64C185.28 305.9 194.58 305.9 200.32 311.64C264.8 376.12 369.71 376.12 434.19 311.64C465.9 279.93 483.1 237.77 482.62 192.92C482.47 178.09 480.33 163.36 476.27 149.14C474.04 141.35 478.56 133.22 486.36 131C494.16 128.77 502.28 133.29 504.51 141.09C509.29 157.82 511.8 175.16 511.99 192.61C512.55 245.42 492.3 295.07 454.96 332.4C417 370.36 367.12 389.35 317.26 389.35ZM144.12 258.97C137.72 258.97 131.84 254.77 130 248.31C110.59 180.28 129.57 106.97 179.55 56.99C255.48 -18.94 379.03 -18.94 454.96 56.99C460.69 62.73 460.69 72.02 454.96 77.76C449.23 83.49 439.93 83.49 434.19 77.76C369.71 13.28 264.8 13.28 200.32 77.76C157.87 120.2 141.75 182.47 158.24 240.25C160.47 248.05 155.95 256.18 148.15 258.4C146.81 258.79 145.45 258.97 144.12 258.97Z" />
	<path id="Layer" class="shp1" d="M232.97 278.99C186.49 232.51 186.49 156.89 232.97 110.41C279.44 63.93 355.07 63.93 401.54 110.41C448.02 156.89 448.02 232.51 401.54 278.99C355.07 325.46 279.44 325.46 232.97 278.99Z" />
	<g id="Layer">
		<path id="Layer" fill-rule="evenodd" class="shp0" d="M317.26 328.53C281.46 328.53 247.84 314.62 222.58 289.37C197.33 264.12 183.43 230.5 183.43 194.7C183.43 158.9 197.33 125.28 222.58 100.03C247.84 74.78 281.46 60.87 317.26 60.87C353.05 60.87 386.68 74.78 411.93 100.03C437.18 125.28 451.08 158.9 451.08 194.7C451.08 230.5 437.18 264.12 411.93 289.37C386.68 314.62 353.05 328.53 317.26 328.53ZM317.26 90.23C289.3 90.23 263.06 101.09 243.35 120.79C223.64 140.5 212.79 166.75 212.79 194.7C212.79 222.65 223.64 248.9 243.35 268.6C263.05 288.31 289.3 299.16 317.25 299.16C345.21 299.16 371.45 288.31 391.16 268.6C410.87 248.9 421.72 222.65 421.72 194.7C421.72 166.74 410.87 140.5 391.16 120.79C371.46 101.09 345.21 90.23 317.26 90.23Z" />
		<path id="Layer" class="shp0" d="M153.22 373.42C149.46 373.42 145.7 371.98 142.84 369.12C137.1 363.38 137.1 354.09 142.84 348.35L178.41 312.77C184.15 307.04 193.44 307.04 199.18 312.77C204.91 318.51 204.91 327.81 199.18 333.54L163.6 369.12C160.74 371.98 156.98 373.42 153.22 373.42Z" />
		<path id="Layer" fill-rule="evenodd" class="shp0" d="M58.01 511.95C54.25 511.95 50.5 510.52 47.63 507.65L4.3 464.33C1.55 461.57 0 457.84 0 453.94C0 450.05 1.55 446.31 4.3 443.56L119.46 328.4C122.22 325.65 125.95 324.1 129.84 324.1C133.74 324.1 137.47 325.65 140.23 328.4L183.56 371.73C189.29 377.46 189.29 386.76 183.56 392.49L68.39 507.65C65.53 510.52 61.77 511.95 58.01 511.95ZM35.45 453.94L58.01 476.5L152.41 382.11L129.84 359.55L35.45 453.94Z" />
	</g>
</svg>