<svg version="1.2" baseProfile="tiny-ps" xmlns="http://www.w3.org/2000/svg" viewBox="0 0 512 512" width="512" height="512">
	<title>btn_adduser-svg</title>
	<style>
		tspan { white-space:pre }
		.shp0 { fill: #c0702f } 
		.shp1 { fill: #ffc994 } 
	</style>
	<g id="Layer">
		<path id="Layer" class="shp0" d="M344.58 512C284.27 512 235.21 462.93 235.21 402.63C235.21 347.37 276.52 300.69 331.3 294.05C339.58 293.04 347.12 298.95 348.13 307.24C349.13 315.53 343.23 323.06 334.94 324.07C295.32 328.87 265.44 362.64 265.44 402.63C265.44 446.26 300.94 481.76 344.58 481.76C388.22 481.76 423.72 446.26 423.72 402.63C423.72 385.68 418.45 369.53 408.47 355.91C403.54 349.18 405 339.72 411.74 334.78C418.47 329.85 427.93 331.31 432.87 338.05C446.66 356.88 453.96 379.21 453.96 402.62C453.96 462.94 404.89 512 344.58 512Z" />
		<path id="Layer" class="shp0" d="M382.47 387.85L359.7 387.85L359.7 365.08C359.7 356.73 352.93 349.96 344.58 349.96C336.23 349.96 329.46 356.73 329.46 365.08L329.46 387.85L306.69 387.85C298.35 387.85 291.58 394.62 291.58 402.97C291.58 411.32 298.35 418.09 306.69 418.09L329.46 418.09L329.46 440.86C329.46 449.21 336.23 455.97 344.58 455.97C352.93 455.97 359.7 449.21 359.7 440.86L359.7 418.09L382.47 418.09C390.82 418.09 397.59 411.32 397.59 402.97C397.59 394.62 390.82 387.85 382.47 387.85Z" />
	</g>
	<path id="Layer" class="shp1" d="M108.33 169.68C108.33 169.68 156.51 148.33 218.54 141.56C228.47 140.48 269.58 111.17 269.84 110.98C296.84 91.16 317.82 169.68 317.82 169.68C318.06 168.29 318.3 166.87 318.53 165.41C318.63 164.76 318.74 164.1 318.84 163.44C321.18 148.19 330.53 129.72 330.46 114.27C330.41 104.2 329.59 95.4 327.62 89.62C309.68 36.94 266.57 54.3 266.57 54.3C266.57 54.3 236.51 13.91 213.66 15.15C213.41 15.14 213.15 15.12 212.9 15.12L212.9 15.21C210.7 15.42 208.57 16.02 206.55 17.11C147.52 48.85 139.7 44.88 126.45 49.48C94.34 60.63 93.5 57.65 97.55 82.4C104.31 123.75 107.07 153.87 108.33 169.68Z" />
	<path id="Layer" fill-rule="evenodd" class="shp0" d="M345.58 114.2C345.63 125.63 342.06 136.92 338.6 147.84C336.53 154.39 334.57 160.57 333.78 165.74C333.67 166.43 333.56 167.13 333.45 167.81C333.33 168.6 333.19 169.37 333.06 170.15L333.06 189.32C333.06 255.44 279.27 309.23 213.15 309.23C190.26 309.23 168.85 302.78 150.63 291.6C113.09 302.18 88.28 337.48 88.28 381.39L88.28 477.22L213.15 477.22C221.5 477.22 228.27 483.99 228.27 492.34C228.27 500.69 221.5 507.46 213.15 507.46L73.16 507.46C64.81 507.46 58.04 500.69 58.04 492.34L58.04 381.39C58.04 331.68 84.18 289.04 124.1 269.53C104.93 248.27 93.24 220.14 93.24 189.32L93.24 170.57C91.06 143.44 87.49 114.59 82.63 84.84C80.52 71.91 78.99 62.58 84.74 53.84C90.06 45.76 98.35 42.99 112.07 38.39C114.86 37.46 117.99 36.41 121.49 35.2C125.41 33.84 128.89 33.07 132.26 32.34C141.67 30.29 155.89 27.18 199.39 3.8C202.46 2.14 205.77 1.02 209.25 0.45C210.38 0.17 211.56 0.01 212.77 0C213.09 0 213.43 0.01 213.75 0.02C214.06 0.01 214.38 0.01 214.7 0.01C237.56 0.01 260.86 23.7 272.34 37.29C275.37 36.8 278.88 36.44 282.7 36.44C298.68 36.44 327.62 42.72 341.93 84.75C344.33 91.79 345.52 101.43 345.58 114.2ZM111.1 70.77C111.38 73.35 111.98 77.02 112.46 79.96C116.18 102.72 119.15 124.96 121.36 146.39C121.7 146.95 122 147.53 122.26 148.14C142.57 141.04 176.53 131 216.29 126.6C222.35 124.64 244.66 110.42 261.01 98.7C266.44 94.72 272.42 92.65 278.67 92.65C292.22 92.65 304.07 101.91 314.68 120.86C315.1 118.53 315.35 116.33 315.34 114.34C315.28 101.66 313.9 96.23 313.3 94.49C306.93 75.78 296.92 66.68 282.7 66.68C277.08 66.68 272.75 68.14 272.14 68.36C265.74 71.06 258.61 68.92 254.45 63.33C242.76 47.69 223.55 30.24 214.7 30.24L214.48 30.25C214.47 30.25 214.47 30.25 214.46 30.25C214.42 30.25 214.38 30.26 214.34 30.26C213.94 30.3 213.79 30.39 213.71 30.43C166.47 55.82 150.42 59.32 138.7 61.88C135.75 62.52 133.63 62.99 131.41 63.76C127.78 65.02 124.55 66.1 121.67 67.06C117.73 68.38 113.7 69.73 111.1 70.77ZM302.83 189.32L302.83 172.22C301.78 168.58 298.65 158.18 294.05 147.46C286.41 129.67 280.63 124.51 278.73 123.21C274 126.67 234.87 154.98 220.18 156.59C176.61 161.34 139.79 173.73 123.47 179.9L123.47 189.32C123.47 238.77 163.7 279 213.15 279C262.6 279 302.83 238.77 302.83 189.32Z" />
</svg>