<svg version="1.2" baseProfile="tiny-ps" xmlns="http://www.w3.org/2000/svg" viewBox="0 0 512 512" width="512" height="512">
	<title>btn_Receiving-svg</title>
	<style>
		tspan { white-space:pre }
		.shp0 { fill: #880a1f } 
		.shp1 { fill: #ff7e94 } 
		.shp2 { fill: none;stroke: #880a1f;stroke-width: 15 } 
	</style>
	<path id="Shape 1" class="shp0" d="M271 39L360 120L185 313L52 194L51 193L90 149L77 136L24 195L50 218L186 341L387 119L269 12L183 17L206 35L248 33L229 55L206 36L182 18L170 31L230 84L271 39Z" />
	<path id="Shape 2" class="shp1" d="M175 115L188 101L277 181L265 196L175 115Z" />
	<path id="Shape 3" class="shp1" d="M191 158L179 171L236 225L249 211L191 158Z" />
	<path id="Shape 4" class="shp1" d="M180 201L166 215L210 254L223 241L180 201Z" />
	<path id="Shape 5" class="shp1" d="M167 243L154 258L182 285L196 270L167 243Z" />
	<path id="Shape 7" class="shp0" d="M139 31L118 31L118 47L139 46L159 46L166 183L139 245L137 201L144 189L130 189L136 201C137 215.67 138 230.33 139 245C127.67 226.33 116.33 207.67 105 189C104.67 182.33 104.33 175.67 104 169C110.67 169 117.33 169 124 169C131.67 168.67 139.33 168.33 147 168L141 66L118 67L123 169L104 169L98 39L99 21L107 14L149 13L158 21C158.33 29.33 158.67 37.67 159 46C152.67 46 146.33 46 140 46C139.67 41 139.33 36 139 31Z" />
	<path id="Shape 8" class="shp0" d="M490 328L490 435L440 437L439 329L422 329L422 447L427 452L501 453L506 449L506 319L502 313L427 313C425.67 314.67 424.33 316.33 423 318C422.67 321.67 422.33 325.33 422 329C444.67 328.67 467.33 328.33 490 328Z" />
	<path id="Shape 9" class="shp0" d="M280 315L400 323L400 441L223 466C223 466 182.01 471.86 107 431C107.2 431.23 48.85 400.21 20 343C20.04 342.82 4 346 4 346C4 346 32.67 411.19 100 446C99.85 446.2 144.38 474.73 215 483C214.9 483.05 407 457 407 457C407 457 415.39 456.8 416 451C416.11 450.93 417 313 417 313L410 308L274 299L190 361C190 361 169.67 373.65 169 390C169.08 389.92 87.54 373.83 47 318C46.8 317.7 22.25 304.84 9 317C8.95 316.95 -1.45 336.18 4 344C4.22 343.85 19 341 19 341C19 341 15.61 334.57 20 329C24.39 323.43 31.92 326.38 36 332C40.08 337.62 73.2 382.76 172 409C172.44 409.09 178 410 178 410L189 416C189 416 228.75 424.83 289 375C289.23 374.48 289.19 357.29 275 367C275 367 227.58 398.52 208 399C208.16 398.97 201.32 401.24 193 399C184.68 396.76 184 390.72 188 386C192 381.28 241 344 241 344L280 315Z" />
	<path id="Ellipse 1" class="shp2" d="M464.5 390C476.37 390 486 399.63 486 411.5C486 423.37 476.37 433 464.5 433C452.63 433 443 423.37 443 411.5C443 399.63 452.63 390 464.5 390Z" />
</svg>