<svg version="1.2" baseProfile="tiny-ps" xmlns="http://www.w3.org/2000/svg" viewBox="0 0 512 512" width="512" height="512">
	<title>btn_savings-money-svg</title>
	<style>
		tspan { white-space:pre }
		.shp0 { fill: #880a1f } 
		.shp1 { fill: #ff7e94 } 
	</style>
	<path id="Layer" class="shp0" d="M156.75 488.73C146.9 488.73 132.52 483.91 100.59 448.17C84.36 430 71.05 412.13 70.5 411.38C70.12 410.88 69.78 410.35 69.47 409.8C63.4 398.86 60.19 386.47 60.19 373.97L60.19 283.08C60.19 275.15 66.61 268.73 74.54 268.73L190.62 268.73C207.24 268.73 222.92 275.15 234.77 286.81L294.2 345.29C302.59 353.68 307.16 364.71 307.16 376.45C307.16 388.19 302.59 399.23 294.29 407.53C277.05 424.76 249.17 424.76 232.03 407.63L172.66 348.25C166.76 348.21 157.18 348.16 149.53 348.13L138.71 348.08C130.78 348.04 124.39 341.58 124.43 333.65C124.48 325.76 130.89 319.38 138.78 319.38C138.81 319.38 138.83 319.38 138.86 319.38L149.66 319.43C156.45 319.46 163.71 319.5 169.29 319.53C172.11 319.55 174.49 319.57 176.18 319.59C180.36 319.63 184.68 319.68 188.84 323.85L252.33 387.33C258.27 393.28 267.95 393.28 273.9 387.33C276.87 384.36 278.46 380.53 278.46 376.45C278.46 372.38 276.87 368.55 273.99 365.67L214.64 307.26C208.19 300.92 199.66 297.43 190.61 297.43L88.89 297.43L88.89 373.97C88.89 381.31 90.7 388.58 94.13 395.06C96.74 398.52 107.71 412.91 120.59 427.48C146.07 456.28 155.81 459.69 157.1 460.03L312.25 460C322.82 460 335.15 454.47 346.87 448.79C356.76 444.01 430.2 394.19 474.17 363.92C474.41 363.75 474.66 363.59 474.91 363.44C483.1 358.5 485.76 347.81 480.82 339.61C478.43 335.64 474.63 332.84 470.13 331.72C465.71 330.62 461.14 331.28 457.22 333.56L350.03 404.64C343.43 409.02 334.52 407.22 330.14 400.61C325.77 394.01 327.57 385.1 334.17 380.72L441.66 309.44C441.83 309.33 442 309.22 442.18 309.11C463.94 296.01 492.3 303.05 505.41 324.8C518.43 346.43 511.55 374.57 490.12 387.78C476.83 396.93 374.35 467.38 359.37 474.63C344.66 481.75 328.9 488.7 312.25 488.7L156.76 488.73C156.75 488.73 156.75 488.73 156.75 488.73Z" />
	<path id="Layer" class="shp1" d="M14.35 265.45L98.5 265.45L98.5 455.04L14.35 455.04L14.35 265.45Z" />
	<path id="Layer" fill-rule="evenodd" class="shp0" d="M98.49 469.38L14.35 469.38C6.42 469.38 0 462.96 0 455.03L0 265.45C0 257.52 6.42 251.1 14.35 251.1L98.49 251.1C106.41 251.1 112.84 257.52 112.84 265.45L112.84 455.03C112.84 462.96 106.42 469.38 98.49 469.38ZM28.7 440.68L84.14 440.68L84.14 279.8L28.7 279.8L28.7 440.68Z" />
	<path id="Layer" fill-rule="evenodd" class="shp0" d="M273.04 237.47C213.98 237.47 165.93 189.43 165.93 130.37C165.93 71.31 213.98 23.27 273.04 23.27C332.09 23.27 380.14 71.31 380.14 130.37C380.14 189.42 332.09 237.47 273.04 237.47ZM273.04 51.97C229.81 51.97 194.63 87.14 194.63 130.37C194.63 173.6 229.8 208.77 273.04 208.77C316.27 208.77 351.44 173.6 351.44 130.37C351.44 87.14 316.27 51.97 273.04 51.97Z" />
	<path id="Layer" class="shp1" d="M348.92 294.63C297.63 294.63 256.17 253.16 256.17 201.87C256.17 150.57 297.63 109.11 348.92 109.11C400.22 109.11 441.68 150.57 441.68 201.87C441.68 253.16 400.22 294.63 348.92 294.63Z" />
	<path id="Layer" fill-rule="evenodd" class="shp0" d="M348.93 308.97C289.88 308.97 241.83 260.92 241.83 201.87C241.83 142.81 289.88 94.76 348.93 94.76C407.99 94.76 456.04 142.81 456.04 201.87C456.04 260.92 407.99 308.97 348.93 308.97ZM348.93 123.46C305.7 123.46 270.53 158.63 270.53 201.87C270.53 245.1 305.7 280.27 348.93 280.27C392.16 280.27 427.34 245.1 427.34 201.87C427.34 158.63 392.16 123.46 348.93 123.46Z" />
	<path id="Layer" fill-rule="evenodd" class="shp0" d="M317.2 231.34C317.2 226.95 321.08 220.48 325.99 220.48C331.42 220.48 335.81 228.11 345.38 229.79L345.38 208.85C333.49 204.32 319.52 198.77 319.52 182.22C319.52 165.8 331.67 157.91 345.38 155.98L345.38 152.36C345.38 150.55 347.45 148.87 350.29 148.87C352.75 148.87 355.2 150.55 355.2 152.36L355.2 155.59C363.22 155.85 378.34 157.92 378.34 166.83C378.34 170.33 376.01 177.44 370.33 177.44C366.06 177.44 363.6 173.3 355.2 172.65L355.2 191.53C366.96 195.92 380.67 202 380.67 219.45C380.67 235.48 370.32 245.18 355.2 247.63L355.2 251.38C355.2 253.19 352.74 254.87 350.29 254.87C347.44 254.87 345.38 253.19 345.38 251.38L345.38 248.15C329.86 247.63 317.2 239.61 317.2 231.34ZM346.67 188.42L346.67 173.04C340.85 174.2 338.39 177.18 338.39 180.28C338.4 184.03 341.76 186.35 346.67 188.42ZM353.91 212.34L353.91 229.66C358.3 228.63 361.8 226.17 361.8 221.51C361.8 217.25 358.56 214.54 353.91 212.34Z" />
</svg>