<svg version="1.2" baseProfile="tiny-ps" xmlns="http://www.w3.org/2000/svg" viewBox="0 0 512 512" width="512" height="512">
	<title>btn_exchange-svg</title>
	<style>
		tspan { white-space:pre }
		.shp0 { fill: #880a1f } 
		.shp1 { fill: #ff7e94 } 
	</style>
	<path id="Layer" class="shp0" d="M97.87 304.24C93.95 304.24 90.02 302.74 87.02 299.75L53.82 266.54C47.09 259.81 43.38 250.86 43.38 241.34C43.38 231.82 47.09 222.87 53.82 216.14L139.69 130.27C139.7 130.26 139.71 130.25 139.71 130.25L152.13 117.83C158.12 111.84 167.83 111.84 173.83 117.83C176.82 120.83 178.32 124.75 178.32 128.68C178.32 132.61 176.82 136.53 173.83 139.53L75.52 237.84C73.59 239.77 73.59 242.91 75.52 244.84L108.72 278.05C114.71 284.04 114.71 293.75 108.72 299.75C105.73 302.74 101.8 304.24 97.87 304.24Z" />
	<path id="Layer" class="shp1" d="M295.73 77.44L209.6 78.62L162.56 31.59C156.85 25.87 160.88 16.1 168.96 16.07L357.83 15.34L357.1 204.21C357.07 212.29 347.3 216.32 341.58 210.6L294.55 163.57L295.73 77.44Z" />
	<g id="Layer">
		<path id="Layer" fill-rule="evenodd" class="shp0" d="M373.17 15.4L372.45 204.27C372.39 217.7 361.4 228.63 347.95 228.63C341.48 228.63 335.36 226.08 330.74 221.46L292.83 183.55L223.07 253.31C220.08 256.31 216.15 257.8 212.22 257.8C208.3 257.8 204.37 256.31 201.37 253.31C195.38 247.32 195.38 237.6 201.37 231.61L279.34 153.64L280.17 93L209.81 93.96C205.67 94 201.68 92.39 198.75 89.47L151.72 42.44C144.72 35.44 142.63 25 146.4 15.85C150.17 6.7 159 0.76 168.9 0.72L357.77 0C361.84 0 365.78 1.6 368.68 4.49C371.57 7.38 373.18 11.31 373.17 15.4ZM342.42 30.74L184.03 31.35L215.86 63.19L295.52 62.1C299.74 62.06 303.65 63.66 306.58 66.59C309.5 69.52 311.13 73.51 311.07 77.65L309.98 157.3L341.82 189.14L342.42 30.74Z" />
		<path id="Layer" class="shp0" d="M349.04 398.66C345.11 398.66 341.19 397.16 338.19 394.17C332.2 388.18 332.2 378.46 338.19 372.47L436.5 274.16C438.43 272.23 438.43 269.09 436.5 267.16L403.29 233.95C397.3 227.96 397.3 218.25 403.29 212.25C409.29 206.26 419 206.26 424.99 212.25L458.2 245.46C472.1 259.35 472.1 281.96 458.2 295.86L372.35 381.72C372.33 381.73 372.32 381.74 372.31 381.76L359.89 394.17C356.89 397.16 352.97 398.66 349.04 398.66Z" />
	</g>
	<path id="Layer" class="shp1" d="M216.29 434.56L302.42 433.38L349.45 480.41C355.17 486.13 351.14 495.9 343.06 495.93L154.19 496.66L154.92 307.79C154.95 299.71 164.72 295.68 170.44 301.4L217.47 348.43L216.29 434.56Z" />
	<path id="Layer" fill-rule="evenodd" class="shp0" d="M365.62 496.15C361.85 505.3 353.02 511.24 343.12 511.28L154.25 512C154.23 512 154.21 512 154.19 512C150.12 512 146.22 510.38 143.34 507.51C140.45 504.61 138.83 500.69 138.85 496.6L139.57 307.73C139.62 294.3 150.61 283.37 164.07 283.37C170.54 283.37 176.66 285.92 181.28 290.55L219.19 328.45L288.94 258.69C294.94 252.7 304.65 252.7 310.64 258.69C316.63 264.68 316.63 274.4 310.64 280.39L232.67 358.36L231.84 419L302.21 418.04C302.28 418.04 302.35 418.04 302.42 418.04C306.48 418.04 310.39 419.65 313.27 422.53L360.3 469.56C367.3 476.56 369.38 487 365.62 496.15ZM327.99 480.65L296.15 448.81L216.5 449.9C212.34 449.94 208.37 448.34 205.44 445.41C202.51 442.48 200.89 438.49 200.95 434.35L202.04 354.7L170.2 322.86L169.59 481.26L327.99 480.65Z" />
	<g id="Layer">
	</g>
</svg>