<svg version="1.2" baseProfile="tiny-ps" xmlns="http://www.w3.org/2000/svg" viewBox="0 0 512 512" width="512" height="512">
	<title>btn_delete-svg</title>
	<style>
		tspan { white-space:pre }
		.shp0 { fill: #880a1f } 
		.shp1 { fill: #ff7e94 } 
	</style>
	<g id="Layer">
		<path id="Layer" class="shp0" d="M280.92 512L108.46 512C100.66 512 94.33 505.67 94.33 497.87L94.33 112.05C94.33 104.25 100.66 97.92 108.46 97.92C116.26 97.92 122.59 104.25 122.59 112.05L122.59 483.74L280.91 483.74C288.72 483.74 295.04 490.07 295.04 497.87C295.04 505.67 288.72 512 280.92 512Z" />
	</g>
	<path id="Layer" class="shp1" d="M158.3 496.41L108.47 496.41L108.47 252.87C108.47 239.11 119.63 227.95 133.39 227.95L133.39 227.95C147.15 227.95 158.3 239.11 158.3 252.87L158.3 496.41L158.3 496.41Z" />
	<path id="Layer" fill-rule="evenodd" class="shp0" d="M158.3 510.54L108.47 510.54C100.67 510.54 94.34 504.21 94.34 496.41L94.34 252.87C94.34 231.34 111.86 213.82 133.39 213.82C154.91 213.82 172.43 231.34 172.43 252.87L172.43 496.41C172.43 504.21 166.1 510.54 158.3 510.54ZM144.17 482.28L144.17 252.87C144.17 246.92 139.33 242.08 133.39 242.08C127.44 242.08 122.6 246.92 122.6 252.87L122.6 482.28L144.17 482.28Z" />
	<path id="Layer" class="shp1" d="M280.93 496.41L231.1 496.41L231.1 252.87C231.1 239.11 242.25 227.95 256.01 227.95L256.01 227.95C269.77 227.95 280.93 239.11 280.93 252.87L280.93 496.41Z" />
	<path id="Layer" fill-rule="evenodd" class="shp0" d="M280.93 510.54L231.1 510.54C223.29 510.54 216.97 504.21 216.97 496.41L216.97 252.87C216.97 231.34 234.48 213.82 256.01 213.82C277.54 213.82 295.06 231.34 295.06 252.87L295.06 496.41C295.06 504.21 288.73 510.54 280.93 510.54ZM245.23 482.28L266.8 482.28L266.8 252.87C266.8 246.92 261.96 242.08 256.01 242.08C250.07 242.08 245.23 246.92 245.23 252.87L245.23 482.28L245.23 482.28L245.23 482.28Z" />
	<path id="Layer" class="shp1" d="M403.53 496.41L353.7 496.41L353.7 252.87C353.7 239.11 364.85 227.95 378.61 227.95L378.61 227.95C392.37 227.95 403.53 239.11 403.53 252.87L403.53 496.41L403.53 496.41Z" />
	<path id="Layer" fill-rule="evenodd" class="shp0" d="M403.53 510.54L353.7 510.54C345.9 510.54 339.57 504.21 339.57 496.41L339.57 252.87C339.57 231.34 357.09 213.82 378.61 213.82C400.14 213.82 417.66 231.34 417.66 252.87L417.66 496.41C417.66 504.21 411.33 510.54 403.53 510.54ZM389.4 482.28L389.4 252.87C389.4 246.92 384.56 242.08 378.61 242.08C372.67 242.08 367.83 246.92 367.83 252.87L367.83 482.28L389.4 482.28Z" />
	<path id="Layer" class="shp1" d="M74.68 70.65L437.33 70.65L437.33 144.12L74.68 144.12L74.68 70.65Z" />
	<g id="Layer">
		<path id="Layer" fill-rule="evenodd" class="shp0" d="M437.32 158.25L74.68 158.25C66.87 158.25 60.55 151.92 60.55 144.12L60.55 70.65C60.55 62.84 66.87 56.52 74.68 56.52L437.32 56.52C445.13 56.52 451.45 62.84 451.45 70.65L451.45 144.12C451.45 151.92 445.13 158.25 437.32 158.25ZM88.81 129.99L423.19 129.99L423.19 84.78L88.81 84.78L88.81 129.99Z" />
		<path id="Layer" class="shp0" d="M315.11 84.78C307.3 84.78 300.98 78.45 300.98 70.65L300.98 28.26L211.02 28.26L211.02 70.64C211.02 78.45 204.7 84.77 196.89 84.77C189.09 84.77 182.76 78.45 182.76 70.64L182.76 14.13C182.76 6.33 189.09 0 196.89 0L315.11 0C322.91 0 329.24 6.33 329.24 14.13L329.24 70.65C329.24 78.45 322.91 84.78 315.11 84.78Z" />
	</g>
</svg>