<svg version="1.2" baseProfile="tiny-ps" xmlns="http://www.w3.org/2000/svg" viewBox="0 0 512 512" width="512" height="512">
	<title>btn_lock-svg</title>
	<style>
		tspan { white-space:pre }
		.shp0 { fill: #ff7e94 } 
		.shp1 { fill: #880a1f } 
	</style>
	<path id="Layer" fill-rule="evenodd" class="shp0" d="M414.1 416.71L456.12 416.71L456.12 443.06C456.12 468.31 435.65 488.78 410.4 488.78L197.92 488.78C172.67 488.78 152.2 468.31 152.2 443.06L152.2 254.63L456.12 254.63L456.12 288.78L414.1 288.78L414.1 416.71ZM339.72 354.85C339.72 335.21 323.8 319.29 304.16 319.29C284.52 319.29 268.59 335.21 268.59 354.85C268.59 374.49 284.52 390.42 304.16 390.42C323.8 390.42 339.72 374.49 339.72 354.85Z" />
	<g id="Layer">
		<path id="Layer" fill-rule="evenodd" class="shp1" d="M512 288.78L512 390.66C512 398.31 505.8 404.51 498.14 404.51C490.49 404.51 484.29 398.31 484.29 390.66L484.29 366.61L427.96 366.61L427.96 402.86L456.12 402.86C463.77 402.86 469.98 409.06 469.98 416.72L469.98 443.06C469.98 475.91 443.25 502.63 410.4 502.63L197.92 502.63C165.07 502.63 138.34 475.91 138.34 443.06L138.34 254.63C138.34 246.98 144.54 240.78 152.2 240.78L456.12 240.78C463.78 240.78 469.98 246.98 469.98 254.63L469.98 274.93L498.14 274.93C505.8 274.93 512 281.13 512 288.78ZM414.1 430.57C406.44 430.57 400.24 424.37 400.24 416.72L400.24 288.78C400.24 281.13 406.44 274.93 414.1 274.93L442.26 274.93L442.26 268.49L166.05 268.49L166.05 443.06C166.05 460.63 180.35 474.92 197.92 474.92L410.4 474.92C427.97 474.92 442.27 460.63 442.27 443.06L442.27 430.57L414.1 430.57ZM484.29 338.89L484.29 302.64L427.96 302.64L427.96 338.89L484.29 338.89Z" />
		<path id="Layer" fill-rule="evenodd" class="shp1" d="M353.58 354.85C353.58 377.29 338.54 396.27 318.01 402.28L318.01 425.53C318.01 433.18 311.81 439.38 304.16 439.38C296.51 439.38 290.3 433.18 290.3 425.53L290.3 402.28C269.78 396.27 254.74 377.29 254.74 354.85C254.74 327.6 276.91 305.43 304.16 305.43C331.41 305.43 353.58 327.6 353.58 354.85ZM325.87 354.85C325.87 342.88 316.13 333.14 304.16 333.14C292.19 333.14 282.45 342.88 282.45 354.85C282.45 366.82 292.19 376.56 304.16 376.56C316.13 376.56 325.87 366.82 325.87 354.85Z" />
		<path id="Layer" class="shp1" d="M207.84 214.46C200.19 214.46 193.99 208.25 193.99 200.6L193.99 120.22C193.99 74.37 156.69 37.08 110.85 37.08C65.01 37.08 27.71 74.37 27.71 120.22C27.71 127.87 21.51 134.07 13.86 134.07C6.2 134.07 0 127.87 0 120.22C0 59.09 49.73 9.37 110.85 9.37C171.97 9.37 221.7 59.09 221.7 120.22L221.7 200.6C221.7 208.25 215.5 214.46 207.84 214.46Z" />
	</g>
</svg>