<svg version="1.2" baseProfile="tiny-ps" xmlns="http://www.w3.org/2000/svg" viewBox="0 0 512 512" width="512" height="512">
	<title>btn_import-svg</title>
	<style>
		tspan { white-space:pre }
		.shp0 { fill: #ff7e94 } 
		.shp1 { fill: #880a1f } 
	</style>
	<path id="Layer" class="shp0" d="M256 142.08L383.12 255.24L383.12 119.64L256 14.96L128.88 119.64L128.88 255.24L256 142.08Z" />
	<g id="Layer">
		<path id="Layer" fill-rule="evenodd" class="shp1" d="M398.08 119.64L398.08 255.24C398.08 261.13 394.62 266.47 389.24 268.88C387.28 269.77 385.19 270.19 383.12 270.19C379.53 270.19 375.97 268.9 373.18 266.41L332.52 230.22L332.52 354.83C332.52 363.09 325.83 369.79 317.57 369.79L194.43 369.79C186.17 369.79 179.47 363.09 179.47 354.83L179.47 230.22L138.82 266.41C134.42 270.33 128.13 271.3 122.75 268.89C117.38 266.48 113.92 261.13 113.92 255.24L113.92 119.64C113.92 115.17 115.92 110.94 119.37 108.1L246.49 3.41C252.02 -1.14 259.99 -1.14 265.51 3.41L392.63 108.1C396.08 110.94 398.08 115.17 398.08 119.64ZM302.61 339.88L302.61 203.6L256 162.1L209.39 203.6L209.39 339.88L302.61 339.88ZM368.17 221.9L368.17 126.7L256 34.33L143.83 126.7L143.83 221.9L246.06 130.91C251.72 125.86 260.28 125.86 265.94 130.91L368.17 221.9Z" />
		<path id="Layer" class="shp1" d="M454.17 512L57.83 512C49.57 512 42.88 505.3 42.88 497.04L42.88 347.48C42.88 339.22 49.57 332.53 57.83 332.53L128.88 332.53C137.14 332.53 143.83 339.22 143.83 347.48C143.83 355.74 137.14 362.44 128.88 362.44L72.79 362.44L72.79 482.09L439.21 482.09L439.21 362.44L383.12 362.44C374.86 362.44 368.17 355.74 368.17 347.48C368.17 339.22 374.86 332.53 383.12 332.53L454.17 332.53C462.43 332.53 469.13 339.22 469.13 347.48L469.13 497.04C469.13 505.3 462.43 512 454.17 512Z" />
		<path id="Layer" class="shp1" d="M383.12 429.74L128.88 429.74C120.62 429.74 113.92 423.04 113.92 414.78C113.92 406.53 120.62 399.83 128.88 399.83L383.13 399.83C391.38 399.83 398.08 406.53 398.08 414.78C398.08 423.04 391.38 429.74 383.12 429.74Z" />
	</g>
</svg>