<svg version="1.2" baseProfile="tiny-ps" xmlns="http://www.w3.org/2000/svg" viewBox="0 0 512 512" width="512" height="512">
	<title>btn_paid-svg</title>
	<style>
		tspan { white-space:pre }
		.shp0 { fill: #ff7e94 } 
		.shp1 { fill: #880a1f } 
	</style>
	<path id="Layer" class="shp0" d="M76.99 15.27L434.99 15.27L434.99 135.72L76.99 135.72L76.99 15.27Z" />
	<g id="Layer">
		<path id="Layer" fill-rule="evenodd" class="shp1" d="M450.28 15.27L450.28 467.96C450.28 481.8 442.02 494.15 429.24 499.45C416.46 504.74 401.88 501.84 392.1 492.06C387.8 487.76 382.09 485.4 376.02 485.4C369.94 485.4 364.23 487.76 359.93 492.06L347.83 504.16C341.87 510.12 332.2 510.12 326.23 504.16C320.27 498.19 320.27 488.52 326.23 482.56L338.33 470.46C359.11 449.68 392.92 449.68 413.7 470.46C414.81 471.57 416.1 471.83 417.55 471.23C419 470.63 419.73 469.53 419.73 467.96L419.73 150.99L92.27 150.99L92.27 467.96C92.27 469.53 93 470.63 94.45 471.23C95.89 471.82 97.19 471.57 98.3 470.46C119.08 449.68 152.89 449.68 173.67 470.46C188.35 485.14 212.23 485.14 226.91 470.46C232.88 464.5 242.55 464.5 248.51 470.46C254.48 476.43 254.48 486.1 248.51 492.06C235.22 505.35 217.75 512 200.29 512C182.83 512 165.37 505.35 152.07 492.06C147.77 487.76 142.06 485.39 135.98 485.39C129.91 485.39 124.19 487.76 119.9 492.06C110.12 501.84 95.54 504.74 82.76 499.45C69.98 494.15 61.72 481.8 61.72 467.96L61.72 15.27C61.72 6.84 68.56 0 77 0L435 0C443.44 0 450.28 6.84 450.28 15.27ZM92.27 120.45L419.73 120.45L419.73 30.55L92.27 30.55L92.27 120.45Z" />
		<path id="Layer" class="shp1" d="M373.44 272.15L288.92 272.15C280.49 272.15 273.65 265.31 273.65 256.88C273.65 248.45 280.49 241.61 288.92 241.61L373.44 241.61C381.88 241.61 388.71 248.45 388.71 256.88C388.71 265.31 381.88 272.15 373.44 272.15Z" />
		<path id="Layer" class="shp1" d="M373.44 356.15L288.92 356.15C280.49 356.15 273.65 349.31 273.65 340.88C273.65 332.45 280.49 325.61 288.92 325.61L373.44 325.61C381.88 325.61 388.71 332.45 388.71 340.88C388.71 349.31 381.88 356.15 373.44 356.15Z" />
		<path id="Layer" fill-rule="evenodd" class="shp1" d="M243.14 325.59C243.25 345.05 236.63 359.25 223.46 367.78C217.3 371.74 208.88 374.54 198.36 376.13L198.36 388.93C198.36 391.88 195.96 394.27 193.01 394.27L183.53 394.27C180.58 394.27 178.19 391.88 178.19 388.93L178.19 376.32C159.69 374.12 146.68 366.44 139.46 353.48C135.26 346.02 133.21 336.28 133.21 323.7C133.21 320.75 135.61 318.36 138.56 318.36L156.06 318.36C158.88 318.36 161.22 320.55 161.4 323.36C162.05 333.52 163.78 338.57 165.12 341.02C167.64 345.61 171.94 348.6 178.19 350.07L178.19 306.27C164.9 303.23 154.75 298.51 147.98 292.19C140.01 284.86 135.95 274.62 135.95 261.76C135.95 250.28 140.15 239.89 148.44 230.86C155.86 222.8 165.85 218.16 178.19 217.02L178.19 208.83C178.19 205.88 180.58 203.49 183.53 203.49L193.01 203.49C195.97 203.49 198.36 205.88 198.36 208.83L198.36 217.07C210.5 218.68 220.17 222.92 227.14 229.7C235.24 237.58 239.51 247.97 239.84 260.58C239.88 262.02 239.33 263.41 238.33 264.45C237.32 265.48 235.94 266.06 234.5 266.06L217.16 266.06C214.41 266.06 212.11 263.97 211.84 261.23C211.44 257.1 210.3 253.47 208.44 250.45C206.1 246.74 202.77 244.34 198.36 243.22L198.36 281.69C212.24 285.7 221.77 289.56 227.4 293.46C237.84 300.7 243.14 311.51 243.14 325.59ZM169.29 271.99C171.66 273.95 174.64 275.58 178.19 276.83L178.19 242.96C174.03 243.85 170.97 245.57 169.07 248.11C166.03 252.23 164.54 256.33 164.54 260.62C164.54 265.63 166.05 269.24 169.29 271.99ZM198.36 311.53L198.36 311.53L198.36 350.79C204.75 349.56 209.18 346.59 211.82 341.79C213.66 338.46 214.56 334.75 214.56 330.42C214.56 323.83 212.35 319.2 207.62 315.85C206.11 314.78 203.35 313.27 198.36 311.53L198.36 311.53Z" />
	</g>
</svg>