<svg version="1.2" baseProfile="tiny-ps" xmlns="http://www.w3.org/2000/svg" viewBox="0 0 32 32" width="32" height="32">
	<title>add-new-svg</title>
	<style>
		tspan { white-space:pre }
		.shp0 { fill: #cff09e } 
		.shp1 { fill: #507c5c } 
	</style>
	<path id="Layer" class="shp0" d="M1.91 10.29L1.91 10.04L10.96 0.9L10.96 10.29L1.91 10.29Z" />
	<path id="Layer" class="shp1" d="M28.96 16.54C28.61 16.16 28.03 16.14 27.65 16.5C27.27 16.85 27.26 17.44 27.61 17.81C28.89 19.18 29.59 20.97 29.59 22.85C29.59 26.92 26.28 30.23 22.21 30.23C18.14 30.23 14.83 26.92 14.83 22.85C14.83 18.78 18.14 15.47 22.21 15.47C22.73 15.47 23.14 15.05 23.14 14.54C23.14 14.03 22.73 13.61 22.21 13.61C17.12 13.61 12.97 17.75 12.97 22.85C12.97 23.79 13.11 24.69 13.38 25.55L2.84 25.55L2.84 15.04C2.84 14.52 2.42 14.1 1.91 14.1C1.39 14.1 0.98 14.52 0.98 15.04L0.98 26.48C0.98 26.99 1.39 27.41 1.91 27.41L14.18 27.41C15.77 30.2 18.78 32.09 22.21 32.09C27.31 32.09 31.45 27.95 31.45 22.85C31.45 20.5 30.57 18.26 28.96 16.54Z" />
	<path id="Layer" fill-rule="evenodd" class="shp1" d="M25.84 0.9L25.84 10.82C25.84 11.33 25.43 11.75 24.91 11.75C24.4 11.75 23.98 11.33 23.98 10.82L23.98 1.83L11.89 1.83L11.89 10.29C11.89 10.81 11.48 11.22 10.96 11.22L1.91 11.22C1.39 11.22 0.98 10.81 0.98 10.29L0.98 10.04C0.98 10.03 0.98 10.02 0.98 10.01C0.98 9.99 0.98 9.97 0.98 9.95C0.98 9.94 0.99 9.93 0.99 9.92C0.99 9.9 0.99 9.88 1 9.86C1 9.85 1 9.84 1 9.83C1.01 9.81 1.01 9.79 1.02 9.77C1.02 9.76 1.02 9.76 1.02 9.75C1.03 9.73 1.04 9.71 1.05 9.69C1.05 9.68 1.05 9.68 1.05 9.67C1.06 9.65 1.07 9.63 1.09 9.6C1.09 9.6 1.09 9.59 1.09 9.59C1.11 9.57 1.12 9.55 1.13 9.53C1.14 9.52 1.14 9.51 1.15 9.5C1.16 9.49 1.17 9.47 1.19 9.45C1.2 9.43 1.23 9.41 1.25 9.38L10.3 0.24C10.33 0.21 10.36 0.18 10.39 0.16C10.4 0.15 10.41 0.15 10.42 0.14C10.45 0.12 10.49 0.1 10.52 0.08C10.52 0.08 10.53 0.07 10.53 0.07C10.56 0.06 10.6 0.04 10.63 0.03C10.64 0.02 10.65 0.02 10.66 0.02C10.7 0 10.74 -0.01 10.77 -0.02C10.78 -0.02 10.78 -0.02 10.78 -0.02C10.82 -0.02 10.86 -0.03 10.9 -0.03C10.91 -0.03 10.92 -0.03 10.93 -0.03C10.94 -0.03 10.95 -0.03 10.96 -0.03L24.91 -0.03C25.43 -0.03 25.84 0.38 25.84 0.9ZM10.03 9.36L10.03 3.16L9.6 3.59L3.89 9.36L10.03 9.36Z" />
	<path id="Layer" class="shp0" d="M23.66 27.83L23.66 24.21L27.28 24.21L27.28 21.31L23.66 21.31L23.66 17.69L20.77 17.69L20.77 21.31L17.14 21.31L17.14 24.21L20.77 24.21L20.77 27.83L23.66 27.83Z" />
	<path id="Layer" fill-rule="evenodd" class="shp1" d="M23.66 28.76L20.77 28.76C20.25 28.76 19.84 28.34 19.84 27.83L19.84 25.14L17.14 25.14C16.63 25.14 16.21 24.72 16.21 24.21L16.21 21.31C16.21 20.79 16.63 20.38 17.14 20.38L19.84 20.38L19.84 17.69C19.84 17.17 20.25 16.76 20.77 16.76L23.66 16.76C24.18 16.76 24.59 17.17 24.59 17.69L24.59 20.38L27.28 20.38C27.8 20.38 28.21 20.79 28.21 21.31L28.21 24.21C28.21 24.72 27.8 25.14 27.28 25.14L24.59 25.14L24.59 27.83C24.59 28.34 24.18 28.76 23.66 28.76ZM21.7 26.9L22.73 26.9L22.73 24.21C22.73 23.69 23.15 23.27 23.66 23.27L26.35 23.27L26.35 22.24L23.66 22.24C23.15 22.24 22.73 21.82 22.73 21.31L22.73 18.62L21.7 18.62L21.7 21.31C21.7 21.82 21.28 22.24 20.77 22.24L18.08 22.24L18.08 23.27L20.77 23.27C21.28 23.27 21.7 23.69 21.7 24.21L21.7 26.9Z" />
</svg>