<svg version="1.2" baseProfile="tiny-ps" xmlns="http://www.w3.org/2000/svg" viewBox="0 0 32 32" width="32" height="32">
	<title>btn_print-svg</title>
	<style>
		tspan { white-space:pre }
		.shp0 { fill: #507c5c } 
		.shp1 { fill: #cff09e } 
	</style>
	<g id="Layer">
		<path id="Layer" class="shp0" d="M10.73 4.97L7.71 4.97C7.35 4.97 7.02 4.75 6.88 4.41C6.74 4.07 6.81 3.68 7.07 3.42L10.09 0.4C10.35 0.14 10.74 0.07 11.08 0.21C11.42 0.35 11.64 0.68 11.64 1.04L11.64 4.06C11.64 4.56 11.23 4.97 10.73 4.97Z" />
		<path id="Layer" class="shp0" d="M24.16 10.42C23.67 10.42 23.26 10.01 23.26 9.51L23.26 1.95L14.74 1.95C14.24 1.95 13.84 1.54 13.84 1.04C13.84 0.54 14.24 0.14 14.74 0.14L23.39 0.14C24.31 0.14 25.07 0.89 25.07 1.82L25.07 9.51C25.07 10.01 24.66 10.42 24.16 10.42Z" />
		<path id="Layer" class="shp0" d="M7.71 10.42C7.21 10.42 6.81 10.01 6.81 9.51L6.81 4.06C6.81 3.82 6.9 3.59 7.07 3.42L10.09 0.4C10.44 0.05 11.02 0.05 11.37 0.4C11.72 0.76 11.72 1.33 11.37 1.68L8.62 4.44L8.62 9.51C8.62 10.01 8.21 10.42 7.71 10.42Z" />
		<path id="Layer" class="shp0" d="M24.16 31.86L7.71 31.86C7.21 31.86 6.81 31.46 6.81 30.96L6.81 21.82C6.81 21.32 7.21 20.92 7.71 20.92L24.16 20.92C24.66 20.92 25.07 21.32 25.07 21.82C25.07 22.32 24.66 22.73 24.16 22.73L8.62 22.73L8.62 30.05L24.16 30.05C24.66 30.05 25.07 30.46 25.07 30.96C25.07 31.46 24.66 31.86 24.16 31.86Z" />
		<path id="Layer" fill-rule="evenodd" class="shp0" d="M28.95 26.31L24.17 26.31C23.67 26.31 23.26 25.9 23.26 25.4L23.26 22.73L8.62 22.73L8.62 25.4C8.62 25.9 8.21 26.31 7.71 26.31L2.92 26.31C1.35 26.31 0.07 25.03 0.07 23.45L0.07 11.97C0.07 10.4 1.35 9.11 2.92 9.11L28.95 9.11C30.53 9.11 31.81 10.4 31.81 11.97L31.81 23.45C31.81 25.03 30.53 26.31 28.95 26.31ZM28.95 24.5C29.53 24.5 30 24.03 30 23.45L30 11.97C30 11.39 29.53 10.92 28.95 10.92L2.92 10.92C2.35 10.92 1.87 11.39 1.87 11.97L1.87 23.45C1.87 24.03 2.34 24.5 2.92 24.5L6.81 24.5L6.81 21.82C6.81 21.32 7.21 20.92 7.71 20.92L24.16 20.92C24.66 20.92 25.07 21.32 25.07 21.82L25.07 24.5L28.95 24.5Z" />
	</g>
	<path id="Layer" class="shp1" d="M0.97 17.71L0.97 23.45C0.97 24.53 1.84 25.4 2.92 25.4L7.71 25.4L7.71 21.82L24.16 21.82L24.16 25.4L28.95 25.4C30.03 25.4 30.91 24.53 30.91 23.45L30.91 17.71L0.97 17.71L0.97 17.71Z" />
	<path id="Layer" fill-rule="evenodd" class="shp0" d="M28.95 26.31L24.17 26.31C23.67 26.31 23.26 25.9 23.26 25.4L23.26 22.73L8.62 22.73L8.62 25.4C8.62 25.9 8.21 26.31 7.71 26.31L2.92 26.31C1.35 26.31 0.07 25.03 0.07 23.45L0.07 17.71C0.07 17.21 0.47 16.81 0.97 16.81L30.91 16.81C31.41 16.81 31.81 17.21 31.81 17.71L31.81 23.45C31.81 25.03 30.53 26.31 28.95 26.31ZM25.07 24.5L28.95 24.5C29.53 24.5 30 24.03 30 23.45L30 18.62L1.87 18.62L1.87 23.45C1.87 24.03 2.35 24.5 2.92 24.5L6.81 24.5L6.81 21.82C6.81 21.32 7.21 20.92 7.71 20.92L24.16 20.92C24.66 20.92 25.07 21.32 25.07 21.82L25.07 24.5Z" />
	<g id="Layer">
	</g>
	<g id="Layer">
	</g>
	<g id="Layer">
	</g>
	<g id="Layer">
	</g>
	<g id="Layer">
	</g>
	<g id="Layer">
	</g>
	<g id="Layer">
	</g>
	<g id="Layer">
	</g>
	<g id="Layer">
	</g>
	<g id="Layer">
	</g>
	<g id="Layer">
	</g>
	<g id="Layer">
	</g>
	<g id="Layer">
	</g>
	<g id="Layer">
	</g>
	<g id="Layer">
	</g>
</svg>