<svg version="1.2" baseProfile="tiny-ps" xmlns="http://www.w3.org/2000/svg" viewBox="0 0 32 32" width="32" height="32">
	<title>btn_delete-svg</title>
	<style>
		tspan { white-space:pre }
		.shp0 { fill: #507c5c } 
		.shp1 { fill: #cff09e } 
	</style>
	<g id="Layer">
		<path id="Layer" class="shp0" d="M17.56 32.03L6.76 32.03C6.27 32.03 5.88 31.63 5.88 31.14L5.88 6.99C5.88 6.5 6.27 6.1 6.76 6.1C7.25 6.1 7.65 6.5 7.65 6.99L7.65 30.26L17.56 30.26C18.05 30.26 18.44 30.65 18.44 31.14C18.44 31.63 18.05 32.03 17.56 32.03Z" />
		<path id="Layer" class="shp0" d="M25.24 32.03L22.12 32.03C21.63 32.03 21.23 31.63 21.23 31.14C21.23 30.65 21.63 30.26 22.12 30.26L24.35 30.26L24.35 16.62C24.35 16.13 24.75 15.74 25.24 15.74C25.73 15.74 26.12 16.13 26.12 16.62L26.12 31.14C26.12 31.63 25.73 32.03 25.24 32.03Z" />
	</g>
	<path id="Layer" class="shp1" d="M9.88 31.05L6.76 31.05L6.76 15.8C6.76 14.94 7.46 14.24 8.32 14.24L8.32 14.24C9.18 14.24 9.88 14.94 9.88 15.8L9.88 31.05L9.88 31.05Z" />
	<path id="Layer" fill-rule="evenodd" class="shp0" d="M9.88 31.94L6.76 31.94C6.27 31.94 5.88 31.54 5.88 31.05L5.88 15.8C5.88 14.46 6.98 13.36 8.32 13.36C9.67 13.36 10.77 14.46 10.77 15.8L10.77 31.05C10.77 31.54 10.37 31.94 9.88 31.94ZM9 30.17L9 15.8C9 15.43 8.7 15.13 8.32 15.13C7.95 15.13 7.65 15.43 7.65 15.8L7.65 30.17L9 30.17Z" />
	<path id="Layer" class="shp1" d="M17.56 31.05L14.44 31.05L14.44 15.8C14.44 14.94 15.14 14.24 16 14.24L16 14.24C16.86 14.24 17.56 14.94 17.56 15.8L17.56 31.05Z" />
	<path id="Layer" fill-rule="evenodd" class="shp0" d="M17.56 31.94L14.44 31.94C13.95 31.94 13.56 31.54 13.56 31.05L13.56 15.8C13.56 14.46 14.65 13.36 16 13.36C17.35 13.36 18.45 14.46 18.45 15.8L18.45 31.05C18.45 31.54 18.05 31.94 17.56 31.94ZM15.33 30.17L16.68 30.17L16.68 15.8C16.68 15.43 16.37 15.13 16 15.13C15.63 15.13 15.33 15.43 15.33 15.8L15.33 30.17L15.33 30.17L15.33 30.17Z" />
	<path id="Layer" class="shp1" d="M25.24 31.05L22.12 31.05L22.12 15.8C22.12 14.94 22.82 14.24 23.68 14.24L23.68 14.24C24.54 14.24 25.24 14.94 25.24 15.8L25.24 31.05L25.24 31.05Z" />
	<path id="Layer" fill-rule="evenodd" class="shp0" d="M25.24 31.94L22.12 31.94C21.63 31.94 21.23 31.54 21.23 31.05L21.23 15.8C21.23 14.46 22.33 13.36 23.68 13.36C25.02 13.36 26.12 14.46 26.12 15.8L26.12 31.05C26.12 31.54 25.73 31.94 25.24 31.94ZM24.35 30.17L24.35 15.8C24.35 15.43 24.05 15.13 23.68 15.13C23.3 15.13 23 15.43 23 15.8L23 30.17L24.35 30.17Z" />
	<path id="Layer" class="shp1" d="M4.65 4.4L27.35 4.4L27.35 9L4.65 9L4.65 4.4Z" />
	<g id="Layer">
		<path id="Layer" fill-rule="evenodd" class="shp0" d="M27.35 9.88L4.65 9.88C4.16 9.88 3.76 9.48 3.76 9L3.76 4.4C3.76 3.91 4.16 3.51 4.65 3.51L27.35 3.51C27.84 3.51 28.24 3.91 28.24 4.4L28.24 9C28.24 9.48 27.84 9.88 27.35 9.88ZM5.53 8.11L26.47 8.11L26.47 5.28L5.53 5.28L5.53 8.11Z" />
		<path id="Layer" class="shp0" d="M19.7 5.28C19.21 5.28 18.82 4.88 18.82 4.4L18.82 1.74L13.18 1.74L13.18 4.4C13.18 4.88 12.79 5.28 12.3 5.28C11.81 5.28 11.41 4.88 11.41 4.4L11.41 0.86C11.41 0.37 11.81 -0.03 12.3 -0.03L19.7 -0.03C20.19 -0.03 20.59 0.37 20.59 0.86L20.59 4.4C20.59 4.88 20.19 5.28 19.7 5.28Z" />
	</g>
	<g id="Layer">
	</g>
	<g id="Layer">
	</g>
	<g id="Layer">
	</g>
	<g id="Layer">
	</g>
	<g id="Layer">
	</g>
	<g id="Layer">
	</g>
	<g id="Layer">
	</g>
	<g id="Layer">
	</g>
	<g id="Layer">
	</g>
	<g id="Layer">
	</g>
	<g id="Layer">
	</g>
	<g id="Layer">
	</g>
	<g id="Layer">
	</g>
	<g id="Layer">
	</g>
	<g id="Layer">
	</g>
</svg>