<svg version="1.2" baseProfile="tiny-ps" xmlns="http://www.w3.org/2000/svg" viewBox="0 0 32 32" width="32" height="32">
	<title>btn_search-svg</title>
	<style>
		tspan { white-space:pre }
		.shp0 { fill: #507c5c } 
		.shp1 { fill: #cff09e } 
	</style>
	<path id="Layer" class="shp0" d="M19.83 24.35C16.71 24.35 13.59 23.16 11.21 20.78C10.86 20.42 10.86 19.84 11.21 19.48C11.57 19.12 12.16 19.12 12.51 19.48C16.55 23.52 23.12 23.52 27.16 19.48C29.14 17.5 30.22 14.86 30.19 12.05C30.18 11.12 30.04 10.2 29.79 9.31C29.65 8.82 29.93 8.31 30.42 8.17C30.91 8.03 31.42 8.32 31.56 8.81C31.86 9.85 32.01 10.94 32.03 12.03C32.06 15.34 30.79 18.45 28.46 20.78C26.08 23.16 22.96 24.35 19.83 24.35ZM9 16.19C8.6 16.19 8.23 15.92 8.11 15.52C6.9 11.26 8.09 6.67 11.21 3.54C15.97 -1.21 23.7 -1.21 28.46 3.54C28.81 3.9 28.81 4.48 28.46 4.84C28.1 5.2 27.51 5.2 27.16 4.84C23.12 0.81 16.55 0.81 12.51 4.84C9.86 7.5 8.85 11.4 9.88 15.01C10.02 15.5 9.74 16.01 9.25 16.15C9.16 16.17 9.08 16.19 9 16.19Z" />
	<path id="Layer" class="shp1" d="M14.56 17.44C11.65 14.53 11.65 9.8 14.56 6.89C17.47 3.98 22.2 3.98 25.11 6.89C28.02 9.8 28.02 14.53 25.11 17.44C22.2 20.35 17.47 20.35 14.56 17.44Z" />
	<g id="Layer">
		<path id="Layer" fill-rule="evenodd" class="shp0" d="M19.83 20.54C17.59 20.54 15.49 19.67 13.91 18.09C12.33 16.51 11.46 14.4 11.46 12.16C11.46 9.92 12.33 7.82 13.91 6.24C15.49 4.65 17.59 3.78 19.83 3.78C22.08 3.78 24.18 4.65 25.76 6.24C27.34 7.82 28.21 9.92 28.21 12.16C28.21 14.4 27.34 16.51 25.76 18.09C24.18 19.67 22.08 20.54 19.83 20.54ZM19.83 5.62C18.08 5.62 16.44 6.3 15.21 7.54C13.97 8.77 13.3 10.41 13.3 12.16C13.3 13.91 13.97 15.56 15.21 16.79C16.44 18.02 18.08 18.7 19.83 18.7C21.58 18.7 23.23 18.02 24.46 16.79C25.69 15.56 26.37 13.91 26.37 12.16C26.37 10.41 25.7 8.77 24.46 7.54C23.23 6.3 21.58 5.62 19.83 5.62Z" />
		<path id="Layer" class="shp0" d="M9.57 23.35C9.33 23.35 9.1 23.26 8.92 23.08C8.56 22.72 8.56 22.14 8.92 21.78L11.14 19.55C11.5 19.2 12.08 19.2 12.44 19.55C12.8 19.91 12.8 20.5 12.44 20.85L10.22 23.08C10.04 23.26 9.8 23.35 9.57 23.35Z" />
		<path id="Layer" fill-rule="evenodd" class="shp0" d="M3.61 32.02C3.37 32.02 3.13 31.93 2.96 31.75L0.24 29.04C0.07 28.87 -0.03 28.64 -0.03 28.39C-0.03 28.15 0.07 27.91 0.24 27.74L7.45 20.53C7.62 20.36 7.86 20.26 8.1 20.26C8.35 20.26 8.58 20.36 8.75 20.53L11.46 23.24C11.82 23.6 11.82 24.19 11.46 24.54L4.26 31.75C4.08 31.93 3.84 32.02 3.61 32.02ZM2.19 28.39L3.61 29.8L9.51 23.89L8.1 22.48L2.19 28.39Z" />
	</g>
	<g id="Layer">
	</g>
	<g id="Layer">
	</g>
	<g id="Layer">
	</g>
	<g id="Layer">
	</g>
	<g id="Layer">
	</g>
	<g id="Layer">
	</g>
	<g id="Layer">
	</g>
	<g id="Layer">
	</g>
	<g id="Layer">
	</g>
	<g id="Layer">
	</g>
	<g id="Layer">
	</g>
	<g id="Layer">
	</g>
	<g id="Layer">
	</g>
	<g id="Layer">
	</g>
	<g id="Layer">
	</g>
</svg>