<svg version="1.2" baseProfile="tiny-ps" xmlns="http://www.w3.org/2000/svg" viewBox="0 0 32 32" width="32" height="32">
	<title>btn_save-svg</title>
	<style>
		tspan { white-space:pre }
		.shp0 { fill: #507c5c } 
		.shp1 { fill: #cff09e } 
	</style>
	<path id="Layer" class="shp0" d="M24.51 32.03L4.05 32.03C2.2 32.03 0.7 30.52 0.7 28.68L0.7 3.32C0.7 1.48 2.2 -0.03 4.05 -0.03L27.95 -0.03C29.8 -0.03 31.3 1.48 31.3 3.32L31.3 26.75C31.3 27.3 30.85 27.75 30.3 27.75C29.75 27.75 29.3 27.3 29.3 26.75L29.3 3.32C29.3 2.58 28.69 1.97 27.95 1.97L4.05 1.97C3.31 1.97 2.7 2.58 2.7 3.32L2.7 28.68C2.7 29.42 3.31 30.03 4.05 30.03L24.51 30.03C25.06 30.03 25.51 30.47 25.51 31.03C25.51 31.58 25.06 32.03 24.51 32.03Z" />
	<path id="Layer" class="shp1" d="M9.29 0.97L22.71 0.97L22.71 9.01L9.29 9.01L9.29 0.97Z" />
	<g id="Layer">
		<path id="Layer" fill-rule="evenodd" class="shp0" d="M22.71 10.01L9.29 10.01C8.74 10.01 8.29 9.56 8.29 9.01L8.29 0.97C8.29 0.42 8.74 -0.03 9.29 -0.03L22.71 -0.03C23.26 -0.03 23.71 0.42 23.71 0.97L23.71 9.01C23.71 9.56 23.26 10.01 22.71 10.01ZM10.29 8.01L21.71 8.01L21.71 1.97L10.29 1.97L10.29 8.01Z" />
		<path id="Layer" class="shp0" d="M19.07 6.29C18.52 6.29 18.07 5.84 18.07 5.29L18.07 0.97C18.07 0.42 18.52 -0.03 19.07 -0.03C19.62 -0.03 20.07 0.42 20.07 0.97L20.07 5.29C20.07 5.84 19.62 6.29 19.07 6.29Z" />
	</g>
	<path id="Layer" class="shp1" d="M7.49 18.79L24.51 18.79L24.51 31.02L7.49 31.02L7.49 18.79Z" />
	<g id="Layer">
		<path id="Layer" fill-rule="evenodd" class="shp0" d="M24.51 32.02L7.49 32.02C6.94 32.02 6.49 31.57 6.49 31.02L6.49 18.79C6.49 18.24 6.94 17.79 7.49 17.79L24.51 17.79C25.06 17.79 25.51 18.24 25.51 18.79L25.51 31.02C25.51 31.57 25.06 32.02 24.51 32.02ZM8.49 30.01L23.51 30.01L23.51 19.8L8.49 19.8L8.49 30.01Z" />
		<path id="Layer" class="shp0" d="M12.63 23.54L7.49 23.54C6.94 23.54 6.49 23.09 6.49 22.54C6.49 21.99 6.94 21.54 7.49 21.54L12.63 21.54C13.18 21.54 13.63 21.99 13.63 22.54C13.63 23.09 13.18 23.54 12.63 23.54Z" />
		<path id="Layer" class="shp0" d="M18 27.75L7.49 27.75C6.94 27.75 6.49 27.3 6.49 26.75C6.49 26.19 6.94 25.74 7.49 25.74L18 25.74C18.55 25.74 19 26.19 19 26.75C19 27.3 18.56 27.75 18 27.75Z" />
	</g>
	<g id="Layer">
	</g>
	<g id="Layer">
	</g>
	<g id="Layer">
	</g>
	<g id="Layer">
	</g>
	<g id="Layer">
	</g>
	<g id="Layer">
	</g>
	<g id="Layer">
	</g>
	<g id="Layer">
	</g>
	<g id="Layer">
	</g>
	<g id="Layer">
	</g>
	<g id="Layer">
	</g>
	<g id="Layer">
	</g>
	<g id="Layer">
	</g>
	<g id="Layer">
	</g>
	<g id="Layer">
	</g>
</svg>