<svg version="1.2" baseProfile="tiny-ps" xmlns="http://www.w3.org/2000/svg" viewBox="0 0 32 32" width="32" height="32">
	<title>btn_unlock-svg</title>
	<style>
		tspan { white-space:pre }
		.shp0 { fill: #cff09e } 
		.shp1 { fill: #507c5c } 
		.shp2 { fill: none;stroke: #507c5c;stroke-width: 1.245 } 
		.shp3 { fill: #cff09e;stroke: #507c5c;stroke-width: 0.934 } 
	</style>
	<path id="Layer" fill-rule="evenodd" class="shp0" d="M19.82 26.32L19.82 26.32L22.53 26.32L22.53 28.02C22.53 29.65 21.21 30.98 19.58 30.98L5.85 30.98C4.22 30.98 2.9 29.65 2.9 28.02L2.9 15.85L22.53 15.85L22.53 18.06L19.82 18.06L19.82 26.32L19.82 26.32ZM15.01 22.32C15.01 21.06 13.98 20.03 12.71 20.03C11.44 20.03 10.42 21.06 10.42 22.32C10.42 23.59 11.44 24.62 12.71 24.62C13.98 24.62 15.01 23.59 15.01 22.32Z" />
	<path id="Layer" fill-rule="evenodd" class="shp1" d="M15.91 22.32C15.91 23.77 14.93 25 13.61 25.39L13.61 26.89C13.61 27.38 13.21 27.79 12.71 27.79C12.22 27.79 11.82 27.38 11.82 26.89L11.82 25.39C10.49 25 9.52 23.77 9.52 22.32C9.52 20.56 10.95 19.13 12.71 19.13C14.47 19.13 15.91 20.56 15.91 22.32ZM14.12 22.32C14.12 21.55 13.49 20.92 12.71 20.92C11.94 20.92 11.31 21.55 11.31 22.32C11.31 23.1 11.94 23.73 12.71 23.73C13.49 23.73 14.12 23.1 14.12 22.32Z" />
	<path id="Layer" class="shp1" d="M18.98 13.25C18.49 13.25 18.08 12.85 18.08 12.36L18.08 7.17C18.08 4.2 15.67 1.79 12.71 1.79C9.75 1.79 7.34 4.2 7.34 7.17L7.34 12.36C7.34 12.85 6.94 13.25 6.45 13.25C5.95 13.25 5.55 12.85 5.55 12.36L5.55 7.17C5.55 3.22 8.76 0 12.71 0C16.66 0 19.87 3.22 19.87 7.17L19.87 12.36C19.87 12.85 19.47 13.25 18.98 13.25Z" />
	<path id="Shape 1" class="shp2" d="M19.98 18.05L22.54 18.05L22.47 15.94L2.93 15.94L2.93 28.45C2.93 28.45 3.36 31.18 6.04 31C6.04 31 19.92 30.88 19.92 30.88C19.92 30.88 22.97 30.97 22.54 26.33C22.54 26.27 19.8 26.33 19.8 26.33L19.8 18.05L19.98 18.05Z" />
	<path id="Shape 2" class="shp3" d="M28.51 19.11C28.47 19.13 28.43 19.16 28.41 19.2L27.94 20.15C27.9 20.23 27.92 20.3 27.98 20.36C28.25 20.67 28.4 20.85 28.44 20.91C28.71 21.34 28.86 21.79 28.89 22.28C28.92 22.78 28.83 23.24 28.61 23.69C28.45 24.01 28.23 24.29 27.97 24.53C27.7 24.76 27.39 24.95 27.06 25.07L26.7 24.05C26.67 23.95 26.61 23.89 26.52 23.84C26.43 23.8 26.34 23.79 26.25 23.82C26.15 23.86 26.08 23.91 26.04 24L24.94 26.22C24.9 26.31 24.9 26.4 24.93 26.5C24.96 26.59 25.02 26.66 25.11 26.7L27.37 27.82C27.46 27.86 27.55 27.87 27.64 27.84C27.74 27.81 27.81 27.75 27.85 27.66C27.89 27.57 27.9 27.48 27.86 27.39L27.53 26.43C28.05 26.24 28.51 25.97 28.92 25.61C29.33 25.25 29.65 24.83 29.89 24.34C30.34 23.44 30.45 22.51 30.22 21.56C29.99 20.61 29.48 19.8 28.68 19.14C28.68 19.14 28.67 19.13 28.65 19.12C28.61 19.1 28.56 19.1 28.51 19.11ZM24.4 16.99C24.3 17.02 24.23 17.08 24.19 17.16C24.15 17.25 24.15 17.34 24.18 17.43L24.51 18.4C24 18.59 23.53 18.86 23.12 19.23C22.71 19.59 22.38 20.01 22.14 20.5C21.69 21.41 21.58 22.34 21.81 23.29C22.03 24.25 22.54 25.06 23.34 25.72L23.38 25.74C23.42 25.76 23.46 25.76 23.51 25.74C23.56 25.73 23.59 25.7 23.62 25.66L24.1 24.67C24.14 24.6 24.13 24.53 24.06 24.46C23.79 24.16 23.64 23.97 23.6 23.91C23.33 23.49 23.18 23.03 23.15 22.54C23.12 22.05 23.22 21.58 23.44 21.14C23.76 20.47 24.28 20.01 24.98 19.74L25.34 20.77C25.37 20.87 25.44 20.94 25.52 20.98C25.61 21.02 25.7 21.03 25.8 21C25.89 20.97 25.96 20.91 26 20.82L27.1 18.6C27.14 18.51 27.15 18.42 27.11 18.33C27.08 18.23 27.02 18.16 26.93 18.12L24.67 17C24.58 16.96 24.49 16.95 24.4 16.99Z" />
</svg>