<svg version="1.2" baseProfile="tiny-ps" xmlns="http://www.w3.org/2000/svg" viewBox="0 0 32 32" width="32" height="32">
	<title>clear-svg</title>
	<style>
		tspan { white-space:pre }
		.shp0 { fill: #cff09e } 
		.shp1 { fill: #507c5c } 
	</style>
	<path id="Layer" class="shp0" d="M27.43 15.36C28.53 14.26 28.53 12.49 27.43 11.39L19.98 3.94C18.89 2.85 17.11 2.85 16.02 3.94L8.84 11.12L20.25 22.54L27.43 15.36Z" />
	<path id="Layer" class="shp1" d="M31.22 29.97L28.86 29.97C28.36 29.97 27.96 29.56 27.96 29.06C27.96 28.56 28.36 28.15 28.86 28.15L31.22 28.15C31.72 28.15 32.12 28.56 32.12 29.06C32.12 29.56 31.72 29.97 31.22 29.97Z" />
	<path id="Layer" fill-rule="evenodd" class="shp1" d="M20.89 23.18L15.91 28.15L24.51 28.15C25.01 28.15 25.42 28.56 25.42 29.06C25.42 29.56 25.01 29.97 24.51 29.97L8.46 29.97C8.43 29.97 8.39 29.96 8.36 29.96C8.34 29.96 8.32 29.96 8.3 29.95C8.29 29.95 8.28 29.95 8.28 29.95C8.25 29.94 8.23 29.94 8.2 29.93C8.2 29.93 8.19 29.93 8.19 29.93C8.17 29.92 8.14 29.91 8.12 29.9C8.11 29.9 8.11 29.9 8.11 29.9C8.08 29.89 8.06 29.88 8.04 29.86C8.04 29.86 8.03 29.86 8.03 29.86C8.01 29.85 7.99 29.84 7.97 29.82C7.96 29.82 7.96 29.82 7.95 29.81C7.93 29.8 7.92 29.79 7.9 29.78C7.89 29.77 7.89 29.77 7.88 29.76C7.86 29.75 7.85 29.73 7.83 29.72C7.83 29.71 7.82 29.71 7.81 29.7L1.02 22.9C-0.43 21.46 -0.43 19.11 1.02 17.66L4.3 14.38C4.66 14.02 5.23 14.02 5.58 14.38C5.94 14.73 5.94 15.3 5.58 15.66L2.3 18.94C1.94 19.3 1.74 19.78 1.74 20.28C1.74 20.79 1.94 21.26 2.3 21.62L8.83 28.15L13.35 28.15L18.97 22.54L8.2 11.76C8.03 11.59 7.93 11.36 7.93 11.12C7.93 10.88 8.03 10.65 8.2 10.48L15.38 3.3C16.08 2.6 17.01 2.22 18 2.22C18.99 2.22 19.92 2.6 20.62 3.3L28.07 10.75C28.77 11.45 29.16 12.38 29.16 13.37C29.16 14.37 28.77 15.3 28.07 16L20.89 23.18ZM10.12 11.12L20.25 21.25L26.79 14.72C27.15 14.36 27.35 13.88 27.35 13.37C27.35 12.87 27.15 12.39 26.79 12.03L19.34 4.58C18.98 4.22 18.51 4.03 18 4.03C17.49 4.03 17.02 4.22 16.66 4.58L10.12 11.12Z" />
	<path id="Layer" class="shp1" d="M20.79 27.44C20.49 27.44 20.2 27.29 20.03 27.03C19.75 26.61 19.88 26.05 20.3 25.77L22.84 24.13C23.26 23.86 23.82 23.98 24.1 24.4C24.37 24.82 24.25 25.38 23.82 25.65L21.28 27.3C21.13 27.39 20.96 27.44 20.79 27.44Z" />
</svg>