<svg version="1.2" baseProfile="tiny-ps" xmlns="http://www.w3.org/2000/svg" viewBox="0 0 32 32" width="32" height="32">
	<title>money-pay-svgrepo-com-svg</title>
	<style>
		tspan { white-space:pre }
		.shp0 { fill: #cff09e } 
		.shp1 { fill: #507c5c } 
	</style>
	<path id="Layer" class="shp0" d="M27.57 18.55C26.16 18.55 25.02 17.41 25.02 16C25.02 14.59 26.16 13.45 27.57 13.45C27.58 13.45 27.58 13.45 27.59 13.45L27.59 10.94C27.59 10.94 25.27 9.51 25.25 9.51L6.91 9.51C6.89 9.51 4.41 11.1 4.41 11.1L4.41 13.45C4.42 13.45 4.42 13.45 4.43 13.45C5.84 13.45 6.98 14.59 6.98 16C6.98 17.41 5.84 18.55 4.43 18.55C4.42 18.55 4.42 18.55 4.41 18.55L4.41 21.06C4.41 21.06 6.73 22.49 6.75 22.49L25.09 22.49C25.11 22.49 27.59 20.9 27.59 20.9L27.59 18.55C27.58 18.55 27.58 18.55 27.57 18.55Z" />
	<g id="Layer">
		<path id="Layer" fill-rule="evenodd" class="shp1" d="M25.09 23.38L6.75 23.38C6.49 23.38 6.49 23.38 5.11 22.54C4.53 22.18 3.95 21.82 3.95 21.82C3.68 21.66 3.52 21.37 3.52 21.06L3.52 18.55C3.52 18.06 3.92 17.66 4.41 17.66C4.42 17.66 4.43 17.66 4.44 17.66C5.35 17.65 6.09 16.91 6.09 16C6.09 15.09 5.35 14.35 4.44 14.34C3.94 14.36 3.52 13.95 3.52 13.45L3.52 11.1C3.52 10.79 3.68 10.51 3.93 10.35C3.93 10.35 4.55 9.95 5.17 9.55C6.64 8.62 6.64 8.62 6.91 8.62L25.25 8.62C25.51 8.62 25.51 8.62 26.89 9.46C27.47 9.82 28.05 10.18 28.05 10.18C28.32 10.34 28.48 10.63 28.48 10.94L28.48 13.45C28.48 13.94 28.08 14.34 27.59 14.34C27.58 14.34 27.57 14.34 27.56 14.34C26.65 14.35 25.91 15.09 25.91 16C25.91 16.91 26.65 17.65 27.56 17.66C28.07 17.64 28.48 18.05 28.48 18.55L28.48 20.9C28.48 21.21 28.32 21.49 28.07 21.65C28.07 21.65 27.45 22.05 26.83 22.45C25.36 23.38 25.36 23.38 25.09 23.38ZM6.99 21.6L24.84 21.6C25.18 21.39 25.94 20.9 26.7 20.42L26.7 19.32C25.23 18.94 24.14 17.59 24.14 16C24.14 14.41 25.23 13.06 26.7 12.68L26.7 11.43C26.01 11.01 25.33 10.59 25.01 10.4L7.16 10.4C6.82 10.61 6.06 11.1 5.3 11.58L5.3 12.68C6.77 13.06 7.86 14.41 7.86 16C7.86 17.59 6.77 18.94 5.3 19.32L5.3 20.57C5.99 20.99 6.67 21.41 6.99 21.6Z" />
		<path id="Layer" class="shp1" d="M31.11 26.84L0.89 26.84C0.4 26.84 0 26.44 0 25.95L0 6.05C0 5.56 0.4 5.16 0.89 5.16L31.11 5.16C31.6 5.16 32 5.56 32 6.05C32 6.54 31.6 6.94 31.11 6.94L1.78 6.94L1.78 25.06L30.22 25.06L30.22 13.42C30.22 12.93 30.62 12.53 31.11 12.53C31.6 12.53 32 12.93 32 13.42L32 25.95C32 26.44 31.6 26.84 31.11 26.84Z" />
		<path id="Layer" fill-rule="evenodd" class="shp1" d="M18.57 17.29C18.57 18.2 18.27 18.86 17.66 19.25C17.36 19.45 16.94 19.58 16.41 19.65L16.41 20.34C16.41 20.44 16.33 20.52 16.23 20.52L15.78 20.52C15.68 20.52 15.6 20.44 15.6 20.34L15.6 19.66C14.7 19.57 14.07 19.21 13.72 18.59C13.53 18.24 13.43 17.79 13.43 17.2C13.43 17.1 13.51 17.02 13.61 17.02L14.45 17.02C14.55 17.02 14.62 17.09 14.63 17.18C14.66 17.69 14.75 17.94 14.82 18.07C14.97 18.33 15.22 18.5 15.6 18.56L15.6 16.29C14.94 16.15 14.44 15.92 14.12 15.62C13.75 15.28 13.56 14.81 13.56 14.21C13.56 13.68 13.76 13.2 14.14 12.78C14.5 12.39 14.99 12.17 15.6 12.13L15.6 11.66C15.6 11.56 15.68 11.48 15.78 11.48L16.23 11.48C16.33 11.48 16.41 11.56 16.41 11.66L16.41 12.13C17.01 12.2 17.48 12.4 17.82 12.72C18.2 13.09 18.39 13.57 18.41 14.16C18.41 14.2 18.39 14.25 18.36 14.29C18.33 14.32 18.28 14.34 18.23 14.34L17.4 14.34C17.3 14.34 17.23 14.27 17.22 14.18C17.2 13.97 17.14 13.78 17.04 13.63C16.9 13.4 16.69 13.27 16.41 13.22L16.41 15.23C17.09 15.43 17.58 15.62 17.84 15.8C18.32 16.14 18.57 16.64 18.57 17.29ZM16.41 16.5L16.41 18.59C16.79 18.54 17.06 18.38 17.21 18.11C17.3 17.93 17.35 17.74 17.35 17.52C17.35 17.18 17.23 16.93 16.98 16.75C16.9 16.69 16.73 16.6 16.41 16.5L16.41 16.5ZM15.04 14.77C15.19 14.89 15.37 14.98 15.6 15.05L15.6 13.21C15.33 13.25 15.13 13.35 15.02 13.51C14.86 13.72 14.78 13.93 14.78 14.16C14.78 14.42 14.87 14.62 15.04 14.77Z" />
	</g>
	<g id="Layer">
	</g>
	<g id="Layer">
	</g>
	<g id="Layer">
	</g>
	<g id="Layer">
	</g>
	<g id="Layer">
	</g>
	<g id="Layer">
	</g>
	<g id="Layer">
	</g>
	<g id="Layer">
	</g>
	<g id="Layer">
	</g>
	<g id="Layer">
	</g>
	<g id="Layer">
	</g>
	<g id="Layer">
	</g>
	<g id="Layer">
	</g>
	<g id="Layer">
	</g>
	<g id="Layer">
	</g>
</svg>