<svg version="1.2" baseProfile="tiny-ps" xmlns="http://www.w3.org/2000/svg" viewBox="0 0 32 32" width="32" height="32">
	<title>server-svgrepo-com-svg</title>
	<style>
		tspan { white-space:pre }
		.shp0 { fill: #507c5c } 
		.shp1 { fill: #cff09e } 
	</style>
	<path id="Layer" class="shp0" d="M25.07 18.13C23.06 18.13 21.16 18.98 19.87 20.45C19.67 20.67 19.69 21 19.91 21.2C20.13 21.39 20.47 21.37 20.67 21.15C21.76 19.91 23.36 19.2 25.07 19.2C28.3 19.2 30.93 21.83 30.93 25.07C30.93 28.3 28.3 30.93 25.07 30.93C22.4 30.93 20.05 29.14 19.34 26.66L21.87 26.66L21.87 25.6L17.6 25.6L17.6 29.86L18.67 29.86L18.67 27.91C19.78 30.33 22.28 32 25.07 32C28.89 32 32 28.89 32 25.07C32 21.24 28.89 18.13 25.07 18.13Z" />
	<path id="Shape 1" class="shp1" d="M2.14 2.14L29.86 2.14L29.86 9.07L2.14 9.07L2.14 2.14Z" />
	<path id="Shape 2" class="shp1" d="M14.4 18.13L3.2 18.67C3.2 18.67 1.6 17.48 1.6 17.07C1.6 16.65 2.14 12.8 2.14 12.8L8.53 12.8L19.2 12.8L28.26 13.33L29.86 14.4L28.26 15.47L25.6 15.47L20.8 15.47L16 16.53L14.93 17.6L14.93 18.13" />
	<path id="Layer" fill-rule="evenodd" class="shp0" d="M31.55 11.2C31.83 11.6 32 12.07 32 12.59L32 18.87C32 18.99 31.99 19.1 31.97 19.21C30.31 17.25 27.83 16 25.07 16C21.83 16 18.99 17.71 17.39 20.27L0.45 20.27C0.17 19.87 0 19.39 0 18.87L0 12.59C0 12.07 0.17 11.6 0.45 11.2L31.55 11.2ZM8 15.73C8 14.41 6.92 13.33 5.6 13.33C4.28 13.33 3.2 14.41 3.2 15.73C3.2 17.06 4.28 18.13 5.6 18.13C6.92 18.13 8 17.06 8 15.73ZM18.67 14.93C18.67 14.64 18.43 14.4 18.13 14.4C17.84 14.4 17.6 14.64 17.6 14.93C17.6 15.23 17.84 15.47 18.13 15.47C18.43 15.47 18.67 15.23 18.67 14.93ZM20.8 14.93C20.8 14.64 20.56 14.4 20.27 14.4C19.97 14.4 19.73 14.64 19.73 14.93C19.73 15.23 19.97 15.47 20.27 15.47C20.56 15.47 20.8 15.23 20.8 14.93ZM22.93 14.93C22.93 14.64 22.69 14.4 22.4 14.4C22.1 14.4 21.87 14.64 21.87 14.93C21.87 15.23 22.1 15.47 22.4 15.47C22.69 15.47 22.93 15.23 22.93 14.93ZM25.07 14.93C25.07 14.64 24.83 14.4 24.53 14.4C24.24 14.4 24 14.64 24 14.93C24 15.23 24.24 15.47 24.53 15.47C24.83 15.47 25.07 15.23 25.07 14.93ZM27.2 14.93C27.2 14.64 26.96 14.4 26.66 14.4C26.37 14.4 26.13 14.64 26.13 14.93C26.13 15.23 26.37 15.47 26.66 15.47C26.96 15.47 27.2 15.23 27.2 14.93Z" />
	<path id="Shape 3" class="shp1" d="M1.6 22.4L9.07 22.4L9.07 29.86L1.6 29.86L1.6 22.4Z" />
	<path id="Layer" fill-rule="evenodd" class="shp0" d="M32 2.46L32 8.74C32 9.26 31.83 9.74 31.55 10.13L0.45 10.13C0.17 9.74 0 9.26 0 8.74L0 2.46C0 1.1 1.1 0 2.46 0L29.54 0C30.9 0 32 1.1 32 2.46ZM8 5.6C8 4.28 6.92 3.2 5.6 3.2C4.28 3.2 3.2 4.28 3.2 5.6C3.2 6.92 4.28 8 5.6 8C6.92 8 8 6.92 8 5.6ZM18.67 4.8C18.67 4.51 18.43 4.27 18.13 4.27C17.84 4.27 17.6 4.51 17.6 4.8C17.6 5.1 17.84 5.34 18.13 5.34C18.43 5.34 18.67 5.1 18.67 4.8ZM19.73 6.4C19.73 6.11 19.49 5.87 19.2 5.87C18.91 5.87 18.67 6.11 18.67 6.4C18.67 6.7 18.91 6.93 19.2 6.93C19.49 6.93 19.73 6.7 19.73 6.4ZM20.8 4.8C20.8 4.51 20.56 4.27 20.27 4.27C19.97 4.27 19.73 4.51 19.73 4.8C19.73 5.1 19.97 5.34 20.27 5.34C20.56 5.34 20.8 5.1 20.8 4.8ZM21.87 6.4C21.87 6.11 21.63 5.87 21.33 5.87C21.04 5.87 20.8 6.11 20.8 6.4C20.8 6.7 21.04 6.93 21.33 6.93C21.63 6.93 21.87 6.7 21.87 6.4ZM22.93 4.8C22.93 4.51 22.69 4.27 22.4 4.27C22.1 4.27 21.87 4.51 21.87 4.8C21.87 5.1 22.1 5.34 22.4 5.34C22.69 5.34 22.93 5.1 22.93 4.8ZM24 6.4C24 6.11 23.76 5.87 23.47 5.87C23.17 5.87 22.93 6.11 22.93 6.4C22.93 6.7 23.17 6.93 23.47 6.93C23.76 6.93 24 6.7 24 6.4ZM25.07 4.8C25.07 4.51 24.83 4.27 24.53 4.27C24.24 4.27 24 4.51 24 4.8C24 5.1 24.24 5.34 24.53 5.34C24.83 5.34 25.07 5.1 25.07 4.8ZM26.13 6.4C26.13 6.11 25.89 5.87 25.6 5.87C25.3 5.87 25.07 6.11 25.07 6.4C25.07 6.7 25.3 6.93 25.6 6.93C25.89 6.93 26.13 6.7 26.13 6.4ZM27.2 4.8C27.2 4.51 26.96 4.27 26.66 4.27C26.37 4.27 26.13 4.51 26.13 4.8C26.13 5.1 26.37 5.34 26.66 5.34C26.96 5.34 27.2 5.1 27.2 4.8ZM28.26 6.4C28.26 6.11 28.03 5.87 27.73 5.87C27.44 5.87 27.2 6.11 27.2 6.4C27.2 6.7 27.44 6.93 27.73 6.93C28.03 6.93 28.26 6.7 28.26 6.4Z" />
	<path id="Layer" fill-rule="evenodd" class="shp0" d="M16 25.07C16 27.56 17.01 29.82 18.65 31.46L2.46 31.46C1.1 31.46 0 30.36 0 29.01L0 22.72C0 22.2 0.17 21.73 0.45 21.33L16.81 21.33C16.3 22.47 16 23.73 16 25.07ZM8 25.86C8 24.54 6.92 23.47 5.6 23.47C4.28 23.47 3.2 24.54 3.2 25.86C3.2 27.19 4.28 28.26 5.6 28.26C6.92 28.26 8 27.19 8 25.86Z" />
</svg>