<svg version="1.2" baseProfile="tiny-ps" xmlns="http://www.w3.org/2000/svg" viewBox="0 0 32 32" width="32" height="32">
	<title>visa-svgrepo-com-svg</title>
	<style>
		tspan { white-space:pre }
		.shp0 { fill: #cff09e } 
		.shp1 { fill: #507c5c } 
	</style>
	<path id="Layer" class="shp0" d="M0.86 9.01L25.98 9.01L25.98 12.86L0.86 12.86L0.86 9.01Z" />
	<g id="Layer">
		<path id="Layer" fill-rule="evenodd" class="shp1" d="M32.06 5.24L32.06 26.76C32.06 27.27 31.65 27.68 31.14 27.68L0.86 27.68C0.35 27.68 -0.06 27.27 -0.06 26.76L-0.06 9.01C-0.06 8.51 0.35 8.1 0.86 8.1L25.98 8.1C26.48 8.1 26.89 8.51 26.89 9.01L26.89 12.86C26.89 13.36 26.48 13.77 25.98 13.77L1.77 13.77L1.77 25.84L30.23 25.84L30.23 6.16L0.86 6.16C0.35 6.16 -0.06 5.75 -0.06 5.24C-0.06 4.73 0.35 4.32 0.86 4.32L31.14 4.32C31.65 4.32 32.06 4.73 32.06 5.24ZM1.77 11.94L25.06 11.94L25.06 9.93L1.77 9.93L1.77 11.94Z" />
		<path id="Layer" class="shp1" d="M16.75 15.47C16.73 15.44 16.7 15.43 16.67 15.43L14.19 15.43C14.15 15.43 14.11 15.45 14.1 15.48L11.91 21.3L11.75 20.53C11.75 20.53 11.75 20.52 11.75 20.52C11.75 20.51 11.75 20.5 11.74 20.48L10.9 16.41C10.75 15.79 10.11 15.45 9.55 15.43L5.66 15.43C5.62 15.43 5.58 15.46 5.57 15.5L5.53 15.68C5.52 15.73 5.55 15.77 5.6 15.79C6.58 16.02 7.49 16.39 8.32 16.89L10.4 24.52C10.41 24.56 10.45 24.59 10.49 24.59L12.98 24.59C13.01 24.59 13.05 24.56 13.06 24.53L16.76 15.55C16.77 15.52 16.77 15.49 16.75 15.47Z" />
		<path id="Layer" class="shp1" d="M16.06 19.25C16.06 18.99 16.37 18.88 16.67 18.88C16.98 18.88 17.28 18.99 17.28 19.25L17.28 24.24C17.28 24.49 16.98 24.61 16.67 24.61C16.37 24.61 16.06 24.49 16.06 24.24L16.06 19.25L16.06 19.25Z" />
		<path id="Layer" class="shp1" d="M20.48 23.08C20.48 22.13 18 22.29 18 20.46C18 19.28 19.02 18.84 20 18.84C20.42 18.84 21.56 18.92 21.56 19.53C21.56 19.74 21.42 20.17 21.08 20.17C20.79 20.17 20.64 19.87 20 19.87C19.45 19.87 19.22 20.1 19.22 20.34C19.22 21.13 21.7 20.98 21.7 22.95C21.7 24.08 20.88 24.69 19.74 24.69C18.72 24.69 17.85 24.19 17.85 23.67C17.85 23.41 18.09 23.01 18.39 23.01C18.76 23.01 18.99 23.59 19.72 23.59C20.08 23.59 20.48 23.45 20.48 23.08Z" />
		<path id="Layer" fill-rule="evenodd" class="shp1" d="M21.91 24.11C21.91 24.09 21.92 24.06 21.93 24.03L23.39 19.24C23.47 18.97 23.83 18.84 24.19 18.84C24.55 18.84 24.9 18.97 24.99 19.24L26.45 24.03C26.46 24.06 26.47 24.09 26.47 24.11C26.47 24.4 26.02 24.61 25.68 24.61C25.49 24.61 25.33 24.55 25.28 24.39L25.02 23.41L23.36 23.41L23.1 24.39C23.05 24.55 22.89 24.61 22.7 24.61C22.36 24.61 21.91 24.4 21.91 24.11ZM24.76 22.47L24.19 20.37L23.62 22.47L24.76 22.47Z" />
	</g>
	<g id="Layer">
	</g>
	<g id="Layer">
	</g>
	<g id="Layer">
	</g>
	<g id="Layer">
	</g>
	<g id="Layer">
	</g>
	<g id="Layer">
	</g>
	<g id="Layer">
	</g>
	<g id="Layer">
	</g>
	<g id="Layer">
	</g>
	<g id="Layer">
	</g>
	<g id="Layer">
	</g>
	<g id="Layer">
	</g>
	<g id="Layer">
	</g>
	<g id="Layer">
	</g>
	<g id="Layer">
	</g>
</svg>