<svg version="1.2" baseProfile="tiny-ps" xmlns="http://www.w3.org/2000/svg" viewBox="0 0 512 512" width="512" height="512">
	<title>haaaaa</title>
	<style>
		tspan { white-space:pre }
		.shp0 { fill: none;stroke: #000000;stroke-width: 8 } 
		.shp1 { fill: none;stroke: #000000;stroke-width: 10 } 
	</style>
	<path id="Shape 2" class="shp0" d="M426.17 154.94L420.54 108.53C420.54 108.53 463.07 109.29 471.17 124C470.84 123.97 471.17 211.19 471.17 211.19L462.73 223.85L462.73 315.26L459.92 330.73L458.51 395.42C458.51 395.42 450.22 412.56 436.01 395.42C435.7 395.98 426.17 302.6 426.17 302.6L421.95 278.7C421.95 278.7 411.09 264.08 405.07 280.1C404.95 280.96 398.04 337.76 398.04 337.76L391.01 395.42C391.01 395.42 378.97 411.71 367.1 395.42C367.03 395.14 365.69 320.89 365.69 320.89L361.47 233.69C361.47 233.69 389.78 234.99 416.32 223.85C416.74 223.66 452.11 217.11 459.92 208.38C459.72 208.49 470.67 202.83 468.35 173.22C468.14 173.1 456.5 147.78 426.17 154.94Z" />
	<path id="Shape 3" class="shp0" d="M405.07 107.12L399.44 160.56C399.44 160.56 375.7 173.17 353.04 161.97C352.7 161.73 353.04 128.22 353.04 128.22C353.04 128.22 349.46 109.65 405.07 107.12Z" />
	<path id="Shape 2 copy" class="shp0" d="M85.77 154.85L91.38 108.53C91.38 108.53 48.92 109.28 40.83 123.97C41.16 123.93 40.83 210.99 40.83 210.99L49.26 223.62L49.26 314.86L52.07 330.3L53.47 394.86C53.47 394.86 61.75 411.97 75.94 394.86C76.24 395.42 85.77 302.23 85.77 302.23L89.98 278.36C89.98 278.36 100.82 263.77 106.83 279.77C106.96 280.63 113.85 337.32 113.85 337.32L120.87 394.86C120.87 394.86 132.89 411.12 144.75 394.86C144.82 394.58 146.15 320.47 146.15 320.47L150.36 233.45C150.36 233.45 122.1 234.74 95.6 223.62C95.18 223.44 59.86 216.9 52.07 208.18C52.26 208.3 41.33 202.65 43.64 173.09C43.85 172.98 55.48 147.7 85.77 154.85Z" />
	<path id="Shape 3 copy" class="shp0" d="M106.83 107.12L112.45 160.46C112.45 160.46 136.16 173.04 158.79 161.87C159.12 161.62 158.79 128.18 158.79 128.18C158.79 128.18 162.36 109.65 106.83 107.12Z" />
	<path id="Shape 4" class="shp1" d="M264.44 167.6L308.03 167.6L371.32 183.07L379.76 183.07L436.01 169C436.01 169 454.08 167.3 454.29 183.07C454.13 182.87 455.61 195.11 447.26 199.94C447.08 200.69 379.76 218.22 379.76 218.22L323.5 216.82L320.69 221.04L317.88 347.61L313.66 403.86L310.85 493.86C310.85 493.86 306.95 505.58 295.38 506.52C294.94 507.09 283.65 503.49 281.31 495.27C280.83 495.22 271.47 401.05 271.47 401.05L267.25 370.11C267.25 370.11 265.16 357.75 257.41 357.45C257.82 357.89 249.92 358.83 247.56 364.48C247.43 364.57 230.69 498.08 230.69 498.08C230.69 498.08 225.16 505.95 216.62 506.52C216.62 506.35 205.41 503.33 203.97 496.68C203.63 496.7 198.34 394.01 198.34 394.01L192.72 230.88L192.72 222.44L188.5 216.82L135.06 218.22L66.15 199.94C66.15 199.94 55.42 194.72 57.71 181.66C57.77 180.85 60.07 167.55 75.99 169C75.96 168.6 132.24 183.07 132.24 183.07L142.09 183.07L202.56 169L246.16 169L239.12 249.16L254.59 275.88L257.41 275.88L271.47 254.79L264.44 167.6Z" />
	<path id="Ellipse 1 copy" class="shp0" d="M412.81 90.25C389.09 90.25 369.91 71.08 369.91 47.36C369.91 23.64 389.09 4.46 412.81 4.46C436.52 4.46 455.7 23.64 455.7 47.36C455.7 71.08 436.52 90.25 412.81 90.25Z" />
	<path id="Ellipse 1 copy 2" class="shp0" d="M99.19 90.25C75.48 90.25 56.3 71.08 56.3 47.36C56.3 23.64 75.48 4.46 99.19 4.46C122.91 4.46 142.09 23.64 142.09 47.36C142.09 71.08 122.91 90.25 99.19 90.25Z" />
	<path id="Ellipse 1 copy 3" class="shp1" d="M257.41 149.31C229.41 149.31 206.78 126.68 206.78 98.69C206.78 70.69 229.41 48.06 257.41 48.06C285.4 48.06 308.03 70.69 308.03 98.69C308.03 126.68 285.4 149.31 257.41 149.31Z" />
</svg>