<svg version="1.2" baseProfile="tiny-ps" xmlns="http://www.w3.org/2000/svg" viewBox="0 0 317 317" width="317" height="317">
	<title>select-all-svg</title>
	<style>
		tspan { white-space:pre }
		.shp0 { fill: #cff09e } 
		.shp1 { fill: #507c5c } 
	</style>
	<path id="Shape 1" class="shp0" d="M26 46L264 46L264 87L26 87L26 46Z" />
	<path id="Shape 1 copy" class="shp0" d="M25 137L119 137L119 178L25 178L25 137Z" />
	<path id="Shape 1 copy 2" class="shp0" d="M26 228L120 228L120 269L26 269L26 228Z" />
	<path id="Shape 1 copy 3" class="shp0" d="M224 187L295 187L295 247L224 247L224 187Z" />
	<path id="Layer" fill-rule="evenodd" class="shp1" d="M237.99 286.94L38.5 286.94C17.27 286.94 0 269.67 0 248.44C0 227.22 17.27 209.94 38.5 209.94L182.53 209.94C182.51 210.69 182.47 211.44 182.47 212.19C182.47 247.41 205.91 277.24 237.99 286.94ZM91.5 248.44C91.5 242.93 87.01 238.44 81.5 238.44L46.5 238.44C40.99 238.44 36.5 242.93 36.5 248.44C36.5 253.96 40.99 258.44 46.5 258.44L81.5 258.44C87.01 258.44 91.5 253.96 91.5 248.44Z" />
	<path id="Layer" fill-rule="evenodd" class="shp1" d="M0 158.45C0 137.22 17.27 119.95 38.5 119.95L254.5 119.95C268.63 119.95 281 127.6 287.7 138.98C279.24 135.84 270.1 134.11 260.56 134.11C222.72 134.11 191.09 161.16 183.98 196.94L38.5 196.94C17.27 196.94 0 179.67 0 158.45ZM36.5 158.44C36.5 163.96 40.99 168.44 46.5 168.44L81.5 168.44C87.01 168.44 91.5 163.96 91.5 158.44C91.5 152.93 87.01 148.44 81.5 148.44L46.5 148.44C40.99 148.44 36.5 152.93 36.5 158.44Z" />
	<path id="Layer" fill-rule="evenodd" class="shp1" d="M0 68.44C0 47.22 17.27 29.94 38.5 29.94L254.5 29.94C275.73 29.94 293 47.22 293 68.44C293 89.67 275.73 106.94 254.5 106.94L38.5 106.94C17.27 106.94 0 89.67 0 68.44ZM224.75 68.44C224.75 75.47 230.47 81.19 237.5 81.19C244.53 81.19 250.25 75.47 250.25 68.44C250.25 61.41 244.53 55.7 237.5 55.7C230.47 55.7 224.75 61.41 224.75 68.44ZM36.5 68.44C36.5 73.96 40.99 78.44 46.5 78.44L81.5 78.44C87.01 78.44 91.5 73.96 91.5 68.44C91.5 62.93 87.01 58.45 81.5 58.45L46.5 58.45C40.99 58.45 36.5 62.93 36.5 68.44Z" />
	<path id="Layer" fill-rule="evenodd" class="shp1" d="M316.89 212.2C316.89 243.31 291.67 268.53 260.56 268.53C229.45 268.53 204.22 243.31 204.22 212.19C204.22 181.08 229.45 155.86 260.56 155.86C291.67 155.86 316.89 181.08 316.89 212.2ZM291.83 197.43C291.83 196.36 291.41 195.36 290.65 194.6L287.12 191.07C286.36 190.31 285.36 189.9 284.29 189.9C283.22 189.9 282.22 190.31 281.46 191.07L252.17 220.36L240.65 208.84C239.9 208.09 238.89 207.67 237.83 207.67C236.76 207.67 235.75 208.09 235 208.84L231.46 212.38C230.71 213.13 230.29 214.14 230.29 215.21C230.29 216.27 230.71 217.28 231.46 218.03L249.34 235.91C250.1 236.67 251.1 237.09 252.17 237.09C253.24 237.09 254.25 236.67 255 235.91L290.65 200.26C291.41 199.51 291.82 198.5 291.83 197.43Z" />
</svg>