<svg version="1.2" baseProfile="tiny-ps" xmlns="http://www.w3.org/2000/svg" viewBox="0 0 512 512" width="512" height="512">
	<title>btn_previousback-svg</title>
	<style>
		tspan { white-space:pre }
		.shp0 { fill: #86367e } 
		.shp1 { fill: #ff9cf0 } 
	</style>
	<g id="Layer">
		<path id="Layer" class="shp0" d="M382.8 358.35L119.77 358.35C111.81 358.35 105.35 351.89 105.35 343.94C105.35 335.98 111.81 329.52 119.77 329.52L382.79 329.52C438.15 329.52 483.18 284.49 483.18 229.14L483.18 203.64C483.18 148.29 438.15 103.26 382.79 103.26L297.86 103.26L297.86 145.3L382.79 145.3C390.75 145.3 397.2 151.75 397.2 159.71C397.2 167.67 390.75 174.12 382.79 174.12L283.44 174.12C275.49 174.12 269.03 167.67 269.03 159.71L269.03 88.85C269.03 80.89 275.49 74.44 283.44 74.44L382.79 74.44C454.04 74.44 512 132.4 512 203.64L512 229.14C512 300.39 454.04 358.35 382.8 358.35Z" />
		<path id="Layer" class="shp0" d="M382.8 287.49L265.63 287.49C257.67 287.49 251.22 281.04 251.22 273.08C251.22 265.12 257.67 258.67 265.63 258.67L382.79 258.67C398.52 258.67 412.32 244.87 412.32 229.14L412.32 203.64C412.32 195.68 418.77 189.23 426.73 189.23C434.69 189.23 441.14 195.68 441.14 203.64L441.14 229.14C441.14 260.77 414.42 287.49 382.8 287.49Z" />
	</g>
	<path id="Layer" class="shp1" d="M200.17 423.15L14.41 307.41L200.17 191.66L200.17 423.15Z" />
	<path id="Layer" fill-rule="evenodd" class="shp0" d="M200.17 437.56C197.52 437.56 194.88 436.83 192.55 435.38L6.79 319.64C2.57 317.01 0 312.38 0 307.41C0 302.43 2.57 297.81 6.79 295.18L192.55 179.43C196.99 176.66 202.59 176.52 207.17 179.06C211.74 181.6 214.58 186.43 214.58 191.66L214.58 423.15C214.58 428.39 211.74 433.21 207.17 435.75C204.99 436.96 202.58 437.56 200.17 437.56ZM41.66 307.41L185.76 397.19L185.76 217.62L41.66 307.41Z" />
	<g id="Layer">
	</g>
</svg>