<svg version="1.2" baseProfile="tiny-ps" xmlns="http://www.w3.org/2000/svg" viewBox="0 0 512 512" width="512" height="512">
	<title>barcode-svg</title>
	<style>
		tspan { white-space:pre }
		.shp0 { fill: #86367e } 
		.shp1 { fill: #ff9cf0 } 
	</style>
	<path id="Layer" class="shp0" d="M309.81 237.28L282.11 237.28C278.76 237.28 275.73 235.26 274.45 232.16C273.17 229.06 273.88 225.5 276.25 223.12L303.94 195.43C306.31 193.06 309.88 192.35 312.98 193.63C316.08 194.91 318.1 197.94 318.1 201.29L318.1 228.99C318.1 233.57 314.39 237.28 309.81 237.28Z" />
	<path id="Layer" class="shp0" d="M433 287.25C428.42 287.25 424.7 283.54 424.7 278.96L424.7 209.59L346.6 209.59C342.02 209.59 338.3 205.87 338.3 201.29C338.3 196.71 342.02 193 346.6 193L425.86 193C434.37 193 441.29 199.92 441.29 208.43L441.29 278.95C441.29 283.54 437.58 287.25 433 287.25Z" />
	<path id="Layer" class="shp0" d="M282.11 287.25C277.53 287.25 273.82 283.54 273.82 278.96L273.82 228.99C273.82 226.79 274.69 224.68 276.25 223.12L303.94 195.43C307.18 192.19 312.43 192.19 315.67 195.43C318.91 198.67 318.91 203.92 315.67 207.16L290.41 232.42L290.41 278.96C290.41 283.54 286.69 287.25 282.11 287.25Z" />
	<path id="Layer" class="shp0" d="M433 483.92L282.11 483.92C277.53 483.92 273.82 480.21 273.82 475.63L273.82 391.86C273.82 387.28 277.53 383.57 282.11 383.57L433 383.57C437.58 383.57 441.29 387.28 441.29 391.86C441.29 396.44 437.58 400.16 433 400.16L290.41 400.16L290.41 467.34L433 467.34C437.58 467.34 441.29 471.05 441.29 475.63C441.29 480.21 437.58 483.92 433 483.92Z" />
	<path id="Layer" fill-rule="evenodd" class="shp0" d="M476.9 432.99L433 432.99C428.42 432.99 424.7 429.28 424.7 424.7L424.7 400.16L290.41 400.16L290.41 424.7C290.41 429.28 286.69 432.99 282.11 432.99L238.21 432.99C223.76 432.99 212 421.23 212 406.78L212 301.53C212 287.07 223.76 275.32 238.21 275.32L476.9 275.32C491.35 275.32 503.11 287.07 503.11 301.53L503.11 406.78C503.11 421.23 491.35 432.99 476.9 432.99ZM476.9 416.4C482.2 416.4 486.52 412.09 486.52 406.78L486.52 301.53C486.52 296.22 482.2 291.9 476.9 291.9L238.21 291.9C232.9 291.9 228.59 296.22 228.59 301.53L228.59 406.78C228.59 412.09 232.9 416.4 238.21 416.4L273.82 416.4L273.82 391.86C273.82 387.28 277.53 383.57 282.11 383.57L433 383.57C437.58 383.57 441.29 387.28 441.29 391.86L441.29 416.4L476.9 416.4Z" />
	<path id="Layer" class="shp1" d="M220.29 354.15L220.29 406.78C220.29 416.67 228.32 424.7 238.21 424.7L282.11 424.7L282.11 391.86L433 391.86L433 424.7L476.9 424.7C486.79 424.7 494.81 416.67 494.81 406.78L494.81 354.15L220.29 354.15L220.29 354.15Z" />
	<path id="Layer" fill-rule="evenodd" class="shp0" d="M476.9 432.99L433 432.99C428.42 432.99 424.7 429.28 424.7 424.7L424.7 400.16L290.41 400.16L290.41 424.7C290.41 429.28 286.69 432.99 282.11 432.99L238.21 432.99C223.76 432.99 212 421.23 212 406.78L212 354.15C212 349.57 215.71 345.86 220.29 345.86L494.81 345.86C499.39 345.86 503.11 349.57 503.11 354.15L503.11 406.78C503.11 421.23 491.35 432.99 476.9 432.99ZM441.29 416.4L476.9 416.4C482.2 416.4 486.52 412.09 486.52 406.78L486.52 362.45L228.59 362.45L228.59 406.78C228.59 412.09 232.9 416.4 238.21 416.4L273.82 416.4L273.82 391.86C273.82 387.28 277.53 383.57 282.11 383.57L433 383.57C437.58 383.57 441.29 387.28 441.29 391.86L441.29 416.4Z" />
	<path id="Layer" class="shp0" d="M15.44 433.94C6.91 433.94 0 427.02 0 418.5L0 31.04C0 22.52 6.91 15.61 15.44 15.61C23.96 15.61 30.87 22.52 30.87 31.04L30.87 418.5C30.87 427.02 23.96 433.94 15.44 433.94Z" />
	<path id="Layer" class="shp0" d="M73.27 355.21C64.74 355.21 57.83 348.3 57.83 339.77L57.83 31.04C57.83 22.52 64.74 15.61 73.27 15.61C81.8 15.61 88.71 22.52 88.71 31.04L88.71 339.77C88.71 348.3 81.8 355.21 73.27 355.21Z" />
	<path id="Layer" class="shp1" d="M131.1 355.21C122.58 355.21 115.67 348.3 115.67 339.77L115.67 154.51C115.67 145.98 122.58 139.07 131.1 139.07C139.63 139.07 146.54 145.98 146.54 154.51L146.54 339.77C146.54 348.3 139.63 355.21 131.1 355.21Z" />
	<path id="Layer" class="shp0" d="M131.1 107.28C122.58 107.28 115.67 100.36 115.67 91.84L115.67 31.04C115.67 22.52 122.58 15.61 131.1 15.61C139.63 15.61 146.54 22.52 146.54 31.04L146.54 91.84C146.54 100.36 139.63 107.28 131.1 107.28Z" />
	<path id="Layer" class="shp1" d="M246.77 162.88C238.24 162.88 231.33 155.96 231.33 147.44L231.33 31.04C231.33 22.52 238.24 15.61 246.77 15.61C255.3 15.61 262.21 22.52 262.21 31.04L262.21 147.44C262.21 155.96 255.29 162.88 246.77 162.88Z" />
	<path id="Layer" class="shp0" d="M188.94 355.21C180.41 355.21 173.5 348.3 173.5 339.77L173.5 31.04C173.5 22.52 180.41 15.61 188.94 15.61C197.46 15.61 204.37 22.52 204.37 31.04L204.37 339.77C204.37 348.3 197.46 355.21 188.94 355.21Z" />
	<path id="Layer copy 6" class="shp0" d="M308.94 185C300.41 185 293.5 181.57 293.5 177.34L293.5 24.26C293.5 20.04 300.41 16.61 308.94 16.61C317.46 16.61 324.37 20.04 324.37 24.26L324.37 177.34C324.37 181.57 317.46 185 308.94 185Z" />
	<path id="Layer copy 7" class="shp1" d="M368.94 185C360.41 185 353.5 181.57 353.5 177.34L353.5 24.26C353.5 20.04 360.41 16.61 368.94 16.61C377.46 16.61 384.37 20.04 384.37 24.26L384.37 177.34C384.37 181.57 377.46 185 368.94 185Z" />
	<path id="Layer copy 8" class="shp0" d="M424.94 185C416.41 185 409.5 181.57 409.5 177.34L409.5 24.26C409.5 20.04 416.41 16.61 424.94 16.61C433.46 16.61 440.37 20.04 440.37 24.26L440.37 177.34C440.37 181.57 433.46 185 424.94 185Z" />
	<path id="Layer copy 4" class="shp0" d="M481.94 272C473.41 272 466.5 266.8 466.5 260.39L466.5 28.21C466.5 21.81 473.41 16.61 481.94 16.61C490.46 16.61 497.37 21.81 497.37 28.21L497.37 260.39C497.37 266.8 490.46 272 481.94 272Z" />
</svg>