<svg version="1.2" baseProfile="tiny-ps" xmlns="http://www.w3.org/2000/svg" viewBox="0 0 512 512" width="512" height="512">
	<title>btn_expand-svg</title>
	<style>
		tspan { white-space:pre }
		.shp0 { fill: #86367e } 
		.shp1 { fill: #ff9cf0 } 
	</style>
	<path id="Layer" class="shp0" d="M467.16 512L44.84 512C37.25 512 31.1 505.85 31.1 498.27L31.1 13.73C31.1 6.15 37.25 0 44.84 0L467.16 0C474.75 0 480.9 6.15 480.9 13.73L480.9 266.07C480.9 273.66 474.75 279.81 467.16 279.81C459.58 279.81 453.43 273.66 453.43 266.07L453.43 27.47L58.57 27.47L58.57 484.53L453.43 484.53L453.43 349.39C453.43 341.81 459.58 335.66 467.16 335.66C474.75 335.66 480.9 341.81 480.9 349.39L480.9 498.26C480.9 505.85 474.75 512 467.16 512Z" />
	<path id="Layer" class="shp1" d="M118.65 67.27L393.34 67.27L393.34 121.75L118.65 121.75L118.65 67.27Z" />
	<path id="Layer" fill-rule="evenodd" class="shp0" d="M393.35 135.48L118.66 135.48C111.07 135.48 104.92 129.33 104.92 121.75L104.92 67.27C104.92 59.68 111.07 53.53 118.66 53.53L393.35 53.53C400.93 53.53 407.08 59.68 407.08 67.27L407.08 121.75C407.08 129.33 400.93 135.48 393.35 135.48ZM132.39 108.01L379.61 108.01L379.61 81L132.39 81L132.39 108.01Z" />
	<path id="Layer" class="shp1" d="M256 174.92L393.34 174.92L393.34 229.4L256 229.4L256 174.92Z" />
	<path id="Layer" fill-rule="evenodd" class="shp0" d="M393.35 243.14L256 243.14C248.42 243.14 242.27 236.99 242.27 229.41L242.27 174.93C242.27 167.34 248.42 161.19 256 161.19L393.35 161.19C400.93 161.19 407.08 167.34 407.08 174.93L407.08 229.41C407.08 236.99 400.93 243.14 393.35 243.14ZM269.73 215.67L379.61 215.67L379.61 188.66L269.73 188.66L269.73 215.67Z" />
	<path id="Layer" class="shp1" d="M256 282.59L393.34 282.59L393.34 337.07L256 337.07L256 282.59Z" />
	<g id="Layer">
		<path id="Layer" fill-rule="evenodd" class="shp0" d="M393.35 350.81L256 350.81C248.42 350.81 242.27 344.66 242.27 337.07L242.27 282.59C242.27 275 248.42 268.86 256 268.86L393.35 268.86C400.93 268.86 407.08 275.01 407.08 282.59L407.08 337.07C407.08 344.66 400.93 350.81 393.35 350.81ZM269.73 323.34L379.61 323.34L379.61 296.32L269.73 296.32L269.73 323.34Z" />
		<path id="Layer" class="shp0" d="M393.35 458.47L118.66 458.47C111.07 458.47 104.92 452.32 104.92 444.74C104.92 437.15 111.07 431 118.66 431L379.61 431L379.61 403.99L118.66 403.99C111.07 403.99 104.92 397.84 104.92 390.26C104.92 382.67 111.07 376.52 118.66 376.52L393.35 376.52C400.93 376.52 407.08 382.67 407.08 390.26L407.08 444.74C407.08 452.32 400.93 458.47 393.35 458.47Z" />
		<path id="Layer" fill-rule="evenodd" class="shp0" d="M120.03 332.57C117.98 332.57 115.93 332.12 114.02 331.19C109.3 328.89 106.29 324.1 106.29 318.84L106.29 193.16C106.29 187.9 109.3 183.11 114.02 180.81C118.75 178.51 124.37 179.11 128.51 182.36L208.56 245.2C211.88 247.8 213.81 251.78 213.81 256C213.81 260.22 211.88 264.2 208.56 266.8L128.51 329.64C126.04 331.58 123.05 332.57 120.03 332.57ZM133.76 221.4L133.76 290.6L177.84 256L133.76 221.4Z" />
	</g>
</svg>