<svg version="1.2" baseProfile="tiny-ps" xmlns="http://www.w3.org/2000/svg" viewBox="0 0 512 512" width="512" height="512">
	<title>btn_new-svg</title>
	<style>
		tspan { white-space:pre }
		.shp0 { fill: #ff9cf0 } 
		.shp1 { fill: #86367e } 
	</style>
	<path id="Layer" class="shp0" d="M27.96 164.58L27.96 160.53L172.26 14.83L172.26 164.58L27.96 164.58Z" />
	<g id="Layer">
		<path id="Layer" class="shp1" d="M459.18 264.15C453.59 258.17 444.21 257.86 438.23 263.45C432.25 269.04 431.93 278.43 437.52 284.41C457.96 306.26 469.21 334.78 469.21 364.72C469.21 429.58 416.45 482.35 351.59 482.35C286.73 482.35 233.97 429.58 233.97 364.72C233.97 299.87 286.73 247.1 351.59 247.1C359.78 247.1 366.42 240.46 366.42 232.27C366.42 224.08 359.78 217.45 351.59 217.45C270.38 217.45 204.31 283.51 204.31 364.72C204.31 379.67 206.56 394.11 210.72 407.72L42.79 407.72L42.79 240.18C42.79 231.99 36.15 225.35 27.96 225.35C19.77 225.35 13.13 231.99 13.13 240.18L13.13 422.54C13.13 430.73 19.77 437.37 27.96 437.37L223.52 437.37C248.88 481.9 296.78 512 351.59 512C432.8 512 498.87 445.93 498.87 364.72C498.87 327.24 484.77 291.52 459.18 264.15Z" />
		<path id="Layer" fill-rule="evenodd" class="shp1" d="M409.43 14.83L409.43 172.97C409.43 181.16 402.79 187.79 394.61 187.79C386.42 187.79 379.78 181.16 379.78 172.97L379.78 29.65L187.09 29.65L187.09 164.58C187.09 172.77 180.46 179.41 172.27 179.41L27.96 179.41C19.77 179.41 13.14 172.77 13.14 164.58L13.14 160.53C13.14 160.36 13.16 160.2 13.16 160.03C13.17 159.73 13.18 159.42 13.21 159.12C13.22 158.95 13.26 158.78 13.28 158.6C13.32 158.3 13.36 157.99 13.42 157.69C13.44 157.54 13.48 157.41 13.52 157.26C13.59 156.93 13.67 156.6 13.76 156.28C13.8 156.17 13.84 156.07 13.87 155.96C13.99 155.61 14.11 155.26 14.25 154.91C14.28 154.84 14.32 154.76 14.35 154.68C14.51 154.32 14.67 153.96 14.86 153.61C14.9 153.53 14.95 153.46 14.99 153.38C15.18 153.04 15.37 152.7 15.59 152.37C15.67 152.24 15.77 152.13 15.85 152C16.05 151.73 16.23 151.46 16.44 151.2C16.75 150.82 17.08 150.45 17.43 150.1L161.73 4.39C162.2 3.92 162.7 3.5 163.22 3.1C163.35 3 163.49 2.9 163.62 2.8C164.14 2.42 164.68 2.07 165.25 1.77C165.27 1.75 165.3 1.74 165.32 1.73C165.87 1.44 166.43 1.2 167.01 0.98C167.17 0.92 167.32 0.86 167.48 0.81C168.07 0.61 168.66 0.43 169.27 0.31C169.29 0.31 169.31 0.3 169.33 0.29C169.95 0.17 170.58 0.1 171.22 0.05C171.39 0.04 171.56 0.03 171.73 0.03C171.91 0.02 172.09 0 172.26 0L394.6 0C402.79 0 409.43 6.64 409.43 14.83ZM157.44 149.76L157.44 50.87L150.59 57.78L59.5 149.76L157.44 149.76Z" />
	</g>
	<path id="Layer" class="shp0" d="M374.67 444.03L374.67 386.32L432.38 386.32L432.38 340.16L374.67 340.16L374.67 282.45L328.51 282.45L328.51 340.16L270.8 340.16L270.8 386.32L328.51 386.32L328.51 444.03L374.67 444.03Z" />
	<path id="Layer" fill-rule="evenodd" class="shp1" d="M374.67 458.86L328.51 458.86C320.32 458.86 313.68 452.22 313.68 444.03L313.68 401.15L270.8 401.15C262.61 401.15 255.97 394.51 255.97 386.32L255.97 340.16C255.97 331.97 262.61 325.33 270.8 325.33L313.68 325.33L313.68 282.45C313.68 274.26 320.32 267.62 328.51 267.62L374.67 267.62C382.86 267.62 389.5 274.26 389.5 282.45L389.5 325.33L432.38 325.33C440.57 325.33 447.21 331.97 447.21 340.16L447.21 386.32C447.21 394.51 440.57 401.15 432.38 401.15L389.5 401.15L389.5 444.03C389.5 452.22 382.86 458.86 374.67 458.86ZM343.33 429.2L359.85 429.2L359.85 386.32C359.85 378.13 366.48 371.5 374.67 371.5L417.55 371.5L417.55 354.98L374.67 354.98C366.48 354.98 359.85 348.35 359.85 340.16L359.85 297.28L343.33 297.28L343.33 340.16C343.33 348.35 336.7 354.98 328.51 354.98L285.63 354.98L285.63 371.5L328.51 371.5C336.7 371.5 343.33 378.13 343.33 386.32L343.33 429.2Z" />
	<g id="Layer">
	</g>
</svg>