<svg version="1.2" baseProfile="tiny-ps" xmlns="http://www.w3.org/2000/svg" viewBox="0 0 512 512" width="512" height="512">
	<title>btn_excel-svg</title>
	<style>
		tspan { white-space:pre }
		.shp0 { fill: #86367e } 
		.shp1 { fill: #ff9cf0 } 
	</style>
	<path id="Layer" class="shp0" d="M438.56 512L19.79 512C11.57 512 4.91 505.34 4.91 497.12L4.91 256.92C4.91 248.7 11.57 242.04 19.79 242.04C28 242.04 34.66 248.7 34.66 256.92L34.66 482.25L423.68 482.25L423.68 449.41C423.68 441.2 430.34 434.54 438.56 434.54C446.77 434.54 453.43 441.2 453.43 449.41L453.43 497.12C453.43 505.34 446.77 512 438.56 512Z" />
	<g id="Layer">
		<path id="Layer" class="shp1" d="M19.79 177.12L19.79 172.33L175.58 14.88L175.58 177.12L19.79 177.12Z" />
		<path id="Layer" class="shp1" d="M196.15 219.44L492.21 219.44L492.21 383.09L196.15 383.09L196.15 219.44Z" />
	</g>
	<g id="Layer">
		<path id="Layer" fill-rule="evenodd" class="shp0" d="M507.09 219.44L507.09 383.08C507.09 391.29 500.43 397.95 492.22 397.95L196.16 397.95C187.94 397.95 181.28 391.3 181.28 383.08L181.28 219.44C181.28 211.22 187.94 204.56 196.16 204.56L423.68 204.56L423.68 29.75L190.46 29.75L190.46 177.12C190.46 185.34 183.8 192 175.58 192L19.79 192C11.57 192 4.91 185.34 4.91 177.12L4.91 172.33C4.91 172.16 4.93 172 4.93 171.83C4.95 171.52 4.95 171.22 4.98 170.92C5 170.74 5.03 170.56 5.05 170.39C5.09 170.08 5.13 169.78 5.19 169.48C5.22 169.33 5.26 169.19 5.29 169.04C5.37 168.71 5.44 168.39 5.54 168.07C5.57 167.96 5.61 167.85 5.65 167.74C5.76 167.39 5.88 167.04 6.02 166.7C6.05 166.61 6.1 166.53 6.13 166.44C6.29 166.09 6.45 165.73 6.63 165.39C6.67 165.3 6.73 165.22 6.77 165.14C6.96 164.8 7.15 164.47 7.36 164.14C7.45 164.01 7.55 163.89 7.65 163.76C7.83 163.49 8.02 163.23 8.22 162.97C8.53 162.59 8.86 162.22 9.21 161.87L165 4.41C165.47 3.94 165.98 3.52 166.5 3.11C166.63 3.01 166.77 2.91 166.9 2.82C167.43 2.44 167.97 2.08 168.54 1.78C168.56 1.76 168.58 1.76 168.6 1.75C169.15 1.45 169.72 1.21 170.31 0.98C170.46 0.93 170.62 0.87 170.77 0.82C171.37 0.61 171.97 0.43 172.59 0.31C172.6 0.3 172.62 0.3 172.63 0.3C173.25 0.17 173.89 0.1 174.54 0.05C174.7 0.04 174.87 0.03 175.03 0.03C175.22 0.02 175.4 0 175.58 0L438.56 0C446.77 0 453.43 6.66 453.43 14.88L453.43 204.56L492.21 204.56C500.43 204.56 507.09 211.22 507.09 219.44ZM160.71 162.25L160.71 51.06L50.69 162.25L160.71 162.25ZM477.34 368.2L477.34 234.31L211.03 234.31L211.03 368.2L477.34 368.2Z" />
		<path id="Layer" class="shp0" d="M255.69 313.88L239.62 341.18C238.85 342.39 237.31 342.94 235.55 342.94C230.81 342.94 224.1 339.2 224.1 334.46C224.1 333.47 224.43 332.48 225.09 331.38L244.13 301.99L225.86 272.7C225.09 271.49 224.76 270.39 224.76 269.29C224.76 264.67 231.03 261.14 235.88 261.14C238.3 261.14 239.95 262.02 241.05 264.01L255.69 289.55L270.33 264.01C271.44 262.02 273.09 261.14 275.51 261.14C280.35 261.14 286.63 264.67 286.63 269.29C286.63 270.39 286.3 271.49 285.53 272.7L267.25 301.99L286.3 331.38C286.96 332.48 287.29 333.47 287.29 334.46C287.29 339.2 280.58 342.94 275.84 342.94C274.08 342.94 272.43 342.39 271.77 341.18L255.69 313.88Z" />
		<path id="Layer" class="shp0" d="M301.6 342.28C297.85 342.28 294.11 340.52 294.11 336.99L294.11 266.98C294.11 263.34 298.4 261.8 302.69 261.8C306.99 261.8 311.28 263.34 311.28 266.98L311.28 327.31L336.38 327.31C339.68 327.31 341.34 331.05 341.34 334.79C341.34 338.54 339.68 342.28 336.38 342.28L301.59 342.28L301.59 342.28L301.6 342.28Z" />
		<path id="Layer" class="shp0" d="M381.29 320.7C381.29 307.38 346.39 309.69 346.39 283.93C346.39 267.42 360.82 261.14 374.58 261.14C380.41 261.14 396.49 262.24 396.49 270.83C396.49 273.8 394.5 279.86 389.66 279.86C385.7 279.86 383.6 275.68 374.58 275.68C366.76 275.68 363.57 278.87 363.57 282.28C363.57 293.29 398.47 291.2 398.47 318.94C398.47 334.79 386.91 343.38 370.94 343.38C356.52 343.38 344.41 336.34 344.41 329.07C344.41 325.32 347.72 319.82 351.9 319.82C357.07 319.82 360.37 327.97 370.61 327.97C375.68 327.97 381.29 325.99 381.29 320.7Z" />
		<path id="Layer" class="shp0" d="M433.47 313.88L417.4 341.18C416.63 342.39 415.09 342.94 413.33 342.94C408.59 342.94 401.88 339.2 401.88 334.46C401.88 333.47 402.21 332.48 402.87 331.38L421.92 301.99L403.64 272.7C402.87 271.49 402.54 270.39 402.54 269.29C402.54 264.67 408.82 261.14 413.66 261.14C416.08 261.14 417.73 262.02 418.83 264.01L433.48 289.55L448.12 264.01C449.22 262.02 450.87 261.14 453.29 261.14C458.14 261.14 464.41 264.67 464.41 269.29C464.41 270.39 464.08 271.49 463.31 272.7L445.04 301.99L464.08 331.38C464.74 332.48 465.07 333.47 465.07 334.46C465.07 339.2 458.36 342.94 453.63 342.94C451.86 342.94 450.21 342.39 449.55 341.18L433.47 313.88Z" />
	</g>
</svg>